<?xml version="1.0" encoding="UTF-8" standalone="no"?>
<!-- Created with Inkscape (http://www.inkscape.org/) -->

<svg
   version="1.1"
   id="svg1"
   width="128"
   height="128"
   viewBox="0 0 128 128"
   sodipodi:docname="beard.svg"
   xml:space="preserve"
   inkscape:export-filename="..\..\Godot\GolfCourseGame\common\character_creator\icons\makeup.svg"
   inkscape:export-xdpi="96"
   inkscape:export-ydpi="96"
   inkscape:version="1.3.2 (091e20e, 2023-11-25, custom)"
   xmlns:inkscape="http://www.inkscape.org/namespaces/inkscape"
   xmlns:sodipodi="http://sodipodi.sourceforge.net/DTD/sodipodi-0.dtd"
   xmlns="http://www.w3.org/2000/svg"
   xmlns:svg="http://www.w3.org/2000/svg"><defs
     id="defs1"><linearGradient
       id="swatch53"
       inkscape:swatch="solid"><stop
         style="stop-color:#ff6981;stop-opacity:1;"
         offset="0"
         id="stop53" /></linearGradient></defs><sodipodi:namedview
     id="namedview1"
     pagecolor="#ffffff"
     bordercolor="#999999"
     borderopacity="1"
     inkscape:showpageshadow="2"
     inkscape:pageopacity="0"
     inkscape:pagecheckerboard="0"
     inkscape:deskcolor="#d1d1d1"
     inkscape:zoom="4.274853"
     inkscape:cx="64.79755"
     inkscape:cy="66.551997"
     inkscape:window-width="2560"
     inkscape:window-height="1351"
     inkscape:window-x="1911"
     inkscape:window-y="-9"
     inkscape:window-maximized="1"
     inkscape:current-layer="svg1" /><path
     style="display:inline;fill:#000000;fill-opacity:1;stroke:#000000;stroke-width:6.39039;stroke-linecap:round;stroke-linejoin:round;stroke-dasharray:none;stroke-opacity:1"
     d="M 27.866661,89.766055 C 17.512216,85.808229 14.370049,77.80703 13.686676,72.169202 13.003301,66.531383 13.003301,34.071173 13.003301,34.071173 l 7.004575,1.366748 c 0,0 2.220958,20.672022 6.833728,28.189131 4.61277,7.517101 10.421439,8.54215 15.205043,8.883833 C 46.830259,72.852584 52.468086,64.48126 64,64.48126 c 11.531922,0 17.169749,8.371324 21.953354,8.029625 4.783607,-0.341683 10.592277,-1.366732 15.205046,-8.883833 4.61277,-7.517109 6.83373,-28.189131 6.83373,-28.189131 l 7.00457,-1.366748 c 0,0 0,32.46021 -0.68337,38.098029 -0.68337,5.637828 -3.82554,13.639027 -14.17999,17.596853 -11.483939,4.38957 -22.209613,4.27109 -36.13334,4.10024 -12.898661,-0.51253 -24.649391,0.28933 -36.133339,-4.10024 z"
     id="path16"
     sodipodi:nodetypes="ssccsscssccsscs"
     inkscape:label="Beard" /></svg>
