<?xml version="1.0" encoding="UTF-8" standalone="no"?>
<!-- Created with Inkscape (http://www.inkscape.org/) -->

<svg
   width="128"
   height="128"
   viewBox="0 0 33.866667 33.866667"
   version="1.1"
   id="svg1"
   xml:space="preserve"
   inkscape:export-filename="character_turn_right.svg"
   inkscape:export-xdpi="96"
   inkscape:export-ydpi="96"
   inkscape:version="1.3.2 (091e20e, 2023-11-25, custom)"
   sodipodi:docname="body.svg"
   xmlns:inkscape="http://www.inkscape.org/namespaces/inkscape"
   xmlns:sodipodi="http://sodipodi.sourceforge.net/DTD/sodipodi-0.dtd"
   xmlns="http://www.w3.org/2000/svg"
   xmlns:svg="http://www.w3.org/2000/svg"><sodipodi:namedview
     id="namedview1"
     pagecolor="#ffffff"
     bordercolor="#999999"
     borderopacity="1"
     inkscape:showpageshadow="2"
     inkscape:pageopacity="0"
     inkscape:pagecheckerboard="0"
     inkscape:deskcolor="#d1d1d1"
     inkscape:document-units="mm"
     inkscape:zoom="5.5375421"
     inkscape:cx="74.581825"
     inkscape:cy="65.823427"
     inkscape:window-width="2560"
     inkscape:window-height="1351"
     inkscape:window-x="1911"
     inkscape:window-y="-9"
     inkscape:window-maximized="1"
     inkscape:current-layer="layer1" /><defs
     id="defs1" /><g
     inkscape:label="Layer 1"
     inkscape:groupmode="layer"
     id="layer1"
     transform="matrix(0.0369581,0,0,0.0369581,-20.911761,-20.911761)"><path
       style="fill:#ffffff;fill-opacity:1;stroke:#000000;stroke-width:21.47702398;stroke-linecap:round;stroke-linejoin:round;stroke-dasharray:none"
       d="m 1066.8889,584.64964 v 10.73096 c 0,0 37.971,0.82545 55.3056,35.4947 0,0 22.7001,-2.88909 37.1457,19.81104 l 200.9991,325.23071 c 0,0 35.9076,-0.41273 46.6384,26.00195 10.731,26.4147 5.7783,42.0984 -3.3017,52.4166 -9.0801,10.3183 -32.193,27.6529 -59.4331,14.4455 -27.2402,-13.2073 -30.542,-54.8931 -23.9382,-62.7348 l -185.3156,-249.70127 14.0327,186.55365 c 0,0 0.4128,53.24198 -9.08,64.38582 0,0.8255 6.6037,11.1437 5.7783,23.5256 -0.8255,12.3819 -32.6056,380.5364 -32.6056,380.5364 0,0 31.3674,13.62 22.7001,52.0039 h -94.1023 c 0,0 -7.4291,-34.6693 16.0965,-48.7021 l -26.0019,-340.089 -7.8069,-1.2381 -7.8068,1.2381 -26.00188,340.089 c 23.52548,14.0328 16.09638,48.7021 16.09638,48.7021 h -94.10226 c -8.66734,-38.3839 22.7001,-52.0039 22.7001,-52.0039 0,0 -31.78015,-368.1545 -32.60565,-380.5364 -0.82544,-12.3819 5.77826,-22.7001 5.77826,-23.5256 -9.4928,-11.14384 -9.08006,-64.38582 -9.08006,-64.38582 L 913.0109,756.34503 727.69543,1006.0463 c 6.60367,7.8417 3.30182,49.5275 -23.9383,62.7348 -27.24014,13.2074 -50.35298,-4.1272 -59.43303,-14.4455 -9.08004,-10.3182 -14.0328,-26.0019 -3.30185,-52.4166 10.73098,-26.41468 46.63844,-26.00195 46.63844,-26.00195 L 888.65985,650.68634 c 14.44554,-22.70013 37.14564,-19.81104 37.14564,-19.81104 17.33459,-34.66925 55.3057,-35.4947 55.3057,-35.4947 v -10.73096 z"
       id="path6"
       sodipodi:nodetypes="cccccsssccccscccccccccccsccccsssccccc" /><path
       style="display:none;fill:none;fill-opacity:1;stroke:#000000;stroke-width:18.5208;stroke-linecap:round;stroke-linejoin:round;stroke-dasharray:none"
       d="m 1193.4826,616.24765 c 0,0 56.7596,-133.52034 -15.6765,-249.20191 -72.4361,-115.68157 -168.6114,-99.46452 -168.6114,-99.46452 0,0 -96.17515,-16.21705 -168.61129,99.46452 -72.43612,115.68157 -15.67648,249.20191 -15.67648,249.20191 0,0 57.30023,115.68157 184.28777,125.95238 126.9877,-10.27081 184.2879,-125.95238 184.2879,-125.95238 z"
       id="path8"
       sodipodi:nodetypes="cscsccc" /></g></svg>
