<?xml version="1.0" encoding="UTF-8" standalone="no"?>
<!-- Created with Inkscape (http://www.inkscape.org/) -->

<svg
   width="128"
   height="128"
   viewBox="0 0 33.866667 33.866667"
   version="1.1"
   id="svg1"
   xml:space="preserve"
   inkscape:export-filename="character_turn_right.svg"
   inkscape:export-xdpi="96"
   inkscape:export-ydpi="96"
   inkscape:version="1.3.2 (091e20e, 2023-11-25, custom)"
   sodipodi:docname="body.svg"
   xmlns:inkscape="http://www.inkscape.org/namespaces/inkscape"
   xmlns:sodipodi="http://sodipodi.sourceforge.net/DTD/sodipodi-0.dtd"
   xmlns="http://www.w3.org/2000/svg"
   xmlns:svg="http://www.w3.org/2000/svg"><sodipodi:namedview
     id="namedview1"
     pagecolor="#ffffff"
     bordercolor="#999999"
     borderopacity="1"
     inkscape:showpageshadow="2"
     inkscape:pageopacity="0"
     inkscape:pagecheckerboard="0"
     inkscape:deskcolor="#d1d1d1"
     inkscape:document-units="mm"
     inkscape:zoom="0.12236355"
     inkscape:cx="1413.8197"
     inkscape:cy="3771.548"
     inkscape:window-width="3200"
     inkscape:window-height="1711"
     inkscape:window-x="2391"
     inkscape:window-y="-9"
     inkscape:window-maximized="1"
     inkscape:current-layer="layer1" /><defs
     id="defs1" /><g
     inkscape:label="Layer 1"
     inkscape:groupmode="layer"
     id="layer1"
     transform="matrix(0.0369581,0,0,0.0369581,-20.911761,-20.911761)"><path
       style="fill:none;fill-opacity:1;stroke:#000000;stroke-width:11.9468;stroke-linecap:round;stroke-linejoin:round;stroke-dasharray:none"
       d="m 1060.2343,652.81811 v 9.06598 c 0,0 32.0796,0.69738 46.7246,29.98744 0,0 19.178,-2.44083 31.3822,16.7372 l 169.8127,274.76877 c 0,0 30.3362,-0.34871 39.4021,21.9675 9.066,22.3163 4.8817,35.5665 -2.7895,44.2838 -7.6712,8.7173 -27.198,23.3623 -50.2116,12.2042 -23.0136,-11.1581 -25.8031,-46.376 -20.224,-53.0011 l -156.5625,-210.9582 11.8555,157.60847 c 0,0 0.3487,44.98113 -7.6712,54.39583 0,0.6974 5.5791,9.4147 4.8817,19.8754 -0.6974,10.4608 -27.5466,321.4934 -27.5466,321.4934 0,0 26.5005,11.5068 19.178,43.9351 h -79.5016 c 0,0 -6.2764,-29.2901 13.599,-41.1456 l -21.9675,-287.3217 -6.5956,-1.046 -6.5955,1.046 -21.96755,287.3217 c 19.87535,11.8555 13.59895,41.1456 13.59895,41.1456 h -79.5016 c -7.32254,-32.4283 19.17801,-43.9351 19.17801,-43.9351 0,0 -26.84922,-311.0326 -27.54664,-321.4934 -0.69737,-10.4607 4.88172,-19.178 4.88172,-19.8754 -8.01993,-9.4147 -7.67122,-54.39583 -7.67122,-54.39583 l 11.85551,-157.60847 -156.5624,210.9582 c 5.57906,6.6251 2.78952,41.843 -20.2241,53.0011 -23.01363,11.1581 -42.54034,-3.4869 -50.21155,-12.2042 -7.67121,-8.7173 -11.85551,-21.9675 -2.78954,-44.2838 9.06598,-22.31621 39.40213,-21.9675 39.40213,-21.9675 L 909.65888,708.60873 c 12.20421,-19.17803 31.38222,-16.7372 31.38222,-16.7372 14.645,-29.29006 46.72464,-29.98744 46.72464,-29.98744 v -9.06598 z"
       id="path6"
       sodipodi:nodetypes="cccccsssccccscccccccccccsccccsssccccc" /><path
       style="display:none;fill:none;fill-opacity:1;stroke:#000000;stroke-width:18.5208;stroke-linecap:round;stroke-linejoin:round;stroke-dasharray:none"
       d="m 1193.4826,616.24765 c 0,0 56.7596,-133.52034 -15.6765,-249.20191 -72.4361,-115.68157 -168.6114,-99.46452 -168.6114,-99.46452 0,0 -96.17515,-16.21705 -168.61129,99.46452 -72.43612,115.68157 -15.67648,249.20191 -15.67648,249.20191 0,0 57.30023,115.68157 184.28777,125.95238 126.9877,-10.27081 184.2879,-125.95238 184.2879,-125.95238 z"
       id="path8"
       sodipodi:nodetypes="cscsccc" /></g></svg>
