<?xml version="1.0" encoding="UTF-8" standalone="no"?>
<!-- Created with Inkscape (http://www.inkscape.org/) -->

<svg
   width="128"
   height="128"
   viewBox="0 0 33.866667 33.866667"
   version="1.1"
   id="svg1"
   xml:space="preserve"
   sodipodi:docname="character_turn_left.svg"
   xmlns:inkscape="http://www.inkscape.org/namespaces/inkscape"
   xmlns:sodipodi="http://sodipodi.sourceforge.net/DTD/sodipodi-0.dtd"
   xmlns="http://www.w3.org/2000/svg"
   xmlns:svg="http://www.w3.org/2000/svg"><sodipodi:namedview
     id="namedview1"
     pagecolor="#ffffff"
     bordercolor="#999999"
     borderopacity="1"
     inkscape:showpageshadow="2"
     inkscape:pageopacity="0"
     inkscape:pagecheckerboard="0"
     inkscape:deskcolor="#d1d1d1"
     inkscape:document-units="mm" /><defs
     id="defs1" /><g
     inkscape:label="Layer 1"
     inkscape:groupmode="layer"
     id="layer1"><g
       id="g5"
       transform="matrix(0.02195737,0,0,0.02195737,-5.5510136,-12.395781)"><g
         id="g4"
         transform="translate(61.692356)"><path
           style="display:inline;fill:none;stroke:#000000;stroke-width:13.2292;stroke-linecap:round;stroke-linejoin:round;stroke-dasharray:none"
           d="m 1036.8096,1079.5145 c 0,0 -7.5679,-27.569 -34.0558,-28.6501 l -6.48676,-23.785 c 0,0 85.95036,-42.70486 91.89656,-129.19576 5.9463,-86.49089 -28.1095,-164.87327 -101.62678,-173.52236 -73.51727,-8.64909 -129.73635,18.91988 -164.33271,87.57203 -34.59636,68.65215 -32.43409,209.19989 101.08624,229.20089 0,0 -27.29869,24.0553 -32.97466,35.4072 0,0 -15.13591,0.2703 -27.02841,23.5147 -11.89249,23.2444 -121.08725,275.6898 -121.08725,275.6898 0,0 -25.4067,-5.4057 -38.65062,28.6501 -13.24392,34.0558 22.97414,51.0837 22.97414,51.0837 0,0 30.00153,17.2981 55.13795,-15.4062 0,0 14.86562,-25.1364 -1.6217,-44.8672 l 92.43714,-162.9813 -9.45994,129.4661 c 0,0 0.54057,45.4077 12.43307,56.4894 l 26.25263,336.2983 c 0,0 -42.42857,-1.9112 -58.48262,14.9073 -16.05406,16.8185 -11.08494,39.7529 -11.08494,39.7529 h 74.91891 l 3.8224,0.7645 134.16605,-0.7645 c 0,0 4.9691,-30.1969 -14.5251,-45.8687 l 25.61,-340.1931 c 0,0 27.5212,-22.9343 19.8765,-80.2703 l -11.085,-84.0926 81.0348,148.3089 c 0,0 -19.8765,29.4324 4.5868,49.3088 24.4634,19.8765 47.3977,19.4943 60.7761,3.8224 13.3784,-15.6718 17.9653,-41.6641 4.2046,-56.9536 -13.7606,-15.2896 -22.5521,-18.7298 -30.9614,-17.583 l -123.8455,-283.6217 c 0,0 -9.9677,-19.7354 -23.9047,-22.4816 z"
           id="path1" /><path
           style="fill:none;stroke:#000000;stroke-width:13.2292;stroke-linecap:round;stroke-linejoin:round;stroke-dasharray:none"
           d="m 979.10617,1755.4344 c 0,0 -18.72972,-1.1468 -27.139,2.8667 l 12.61391,-177.359 z"
           id="path2" /></g><g
         id="g3"
         transform="translate(63.050215)"
         style="stroke-width:1.00013;stroke-dasharray:none"><path
           style="fill:none;stroke:#000000;stroke-width:18.5208;stroke-linecap:round;stroke-linejoin:round;stroke-dasharray:none"
           d="m 1162.0077,1876.0309 c 0,0 -146.7799,157.4826 -402.11583,0 l 42.81083,67.2741 33.63707,-77.9768 -76.4479,10.7027"
           id="path3"
           sodipodi:nodetypes="ccccc" /><rect
           style="fill:#000000;fill-opacity:1;stroke:#000000;stroke-width:18.5208;stroke-linecap:round;stroke-linejoin:round;stroke-dasharray:none"
           id="rect3"
           width="33.042225"
           height="37.569485"
           x="780.85065"
           y="1874.9604"
           ry="9.103097" /></g></g></g></svg>
