<?xml version="1.0" encoding="UTF-8" standalone="no"?>
<!-- Created with Inkscape (http://www.inkscape.org/) -->

<svg
   version="1.1"
   id="svg1"
   width="128"
   height="128"
   viewBox="0 0 128 128"
   sodipodi:docname="Hair.svg"
   xml:space="preserve"
   inkscape:export-filename="..\..\Godot\GolfCourseGame\common\character_creator\icons\Eyebrow.svg"
   inkscape:export-xdpi="96"
   inkscape:export-ydpi="96"
   inkscape:version="1.3.2 (091e20e, 2023-11-25, custom)"
   xmlns:inkscape="http://www.inkscape.org/namespaces/inkscape"
   xmlns:sodipodi="http://sodipodi.sourceforge.net/DTD/sodipodi-0.dtd"
   xmlns="http://www.w3.org/2000/svg"
   xmlns:svg="http://www.w3.org/2000/svg"><defs
     id="defs1"><linearGradient
       id="swatch53"
       inkscape:swatch="solid"><stop
         style="stop-color:#ff6981;stop-opacity:1;"
         offset="0"
         id="stop53" /></linearGradient></defs><sodipodi:namedview
     id="namedview1"
     pagecolor="#ffffff"
     bordercolor="#999999"
     borderopacity="1"
     inkscape:showpageshadow="2"
     inkscape:pageopacity="0"
     inkscape:pagecheckerboard="0"
     inkscape:deskcolor="#d1d1d1"
     inkscape:zoom="4.274853"
     inkscape:cx="80.470604"
     inkscape:cy="39.41656"
     inkscape:window-width="2560"
     inkscape:window-height="1351"
     inkscape:window-x="1911"
     inkscape:window-y="-9"
     inkscape:window-maximized="1"
     inkscape:current-layer="svg1" /><g
     id="g14"
     inkscape:label="Hair"
     style="display:inline"
     transform="matrix(0.05859914,0,0,0.05859914,5.141533,1.1630671)"><path
       id="path8"
       style="display:inline;fill:none;fill-opacity:1;stroke:#000000;stroke-width:69.9869;stroke-linecap:round;stroke-linejoin:round;stroke-dasharray:none;stroke-opacity:1"
       inkscape:label="hED"
       d="m 1031.252,239.54102 c -17.3722,0.4688 -41.79974,2.47189 -71.51762,7.37695 -295.38562,19.93732 -409.49262,177.25036 -447.11719,250.92187 -7.58934,11.03393 -14.71809,22.93493 -21.81836,34.90235 -146.22096,54.93572 -196.10719,180.46694 -203.53711,207.40039 -6.28926,22.79855 14.51468,173.69051 65.16211,214.69531 -11.83289,78.93431 -16.02769,151.36621 -11.82813,205.43551 14.97126,192.755 43.04347,297.5553 226.44141,503.4102 183.39794,205.8548 464.21489,241.4121 464.21489,241.4121 0,0 280.8149,-35.5573 464.2128,-241.4121 183.398,-205.8549 211.4703,-310.6552 226.4414,-503.4102 5.1882,-66.7973 -2.2765,-161.39093 -21.498,-262.0566 12.3632,-53.30686 29.3642,-157.41171 0.016,-233.92774 -34.8152,-90.76809 -192.3564,-376.59442 -586.6933,-415.17187 -34.4057,-6.21661 -63.1352,-9.05417 -82.4785,-9.57617 z" /><path
       style="display:inline;fill:none;fill-opacity:1;stroke:#000000;stroke-width:69.9869;stroke-linecap:round;stroke-linejoin:round;stroke-dasharray:none;stroke-opacity:1"
       d="m 496.23235,535.93094 c 0,0 86.01361,-296.41612 538.57755,-291.12298 452.5639,5.29315 628.5609,322.88185 665.613,419.48175 37.052,96.5999 0.083,238.58324 -7.9398,264.65725 -0.6616,2.15034 -55.262,-44.75044 -112.4793,-60.87117 -83.367,-23.48833 -324.2051,-15.87943 -394.3393,-25.14243 -70.1342,-9.26301 -372.40771,-82.72269 -473.73649,-172.02722 -71.8175,-63.29522 -145.56149,-1.32329 -145.56149,-1.32329"
       id="path12"
       sodipodi:nodetypes="cssssssc" /><path
       style="display:inline;fill:none;fill-opacity:1;stroke:#000000;stroke-width:69.9869;stroke-linecap:round;stroke-linejoin:round;stroke-dasharray:none;stroke-opacity:1"
       d="m 494.05208,531.48027 c 0,0 79.5349,114.15597 69.24215,142.22711 C 553.00148,701.77852 458.4953,953.48309 384.57463,964.71154 310.65396,975.94 279.7757,767.27785 287.26134,740.14242 294.74698,713.00698 345.27503,585.75114 494.05208,531.48027 Z"
       id="path13"
       sodipodi:nodetypes="csssc" /></g></svg>
