<?xml version="1.0" encoding="UTF-8" standalone="no"?>
<!-- Created with Inkscape (http://www.inkscape.org/) -->

<svg
   version="1.1"
   id="svg1"
   width="8192"
   height="8192"
   viewBox="0 0 8192 8192"
   xml:space="preserve"
   sodipodi:docname="OffCourseEyes.svg"
   inkscape:export-filename="OffCourseEyes.svg"
   inkscape:export-xdpi="96"
   inkscape:export-ydpi="96"
   inkscape:version="1.3.2 (091e20e, 2023-11-25, custom)"
   xmlns:inkscape="http://www.inkscape.org/namespaces/inkscape"
   xmlns:sodipodi="http://sodipodi.sourceforge.net/DTD/sodipodi-0.dtd"
   xmlns="http://www.w3.org/2000/svg"
   xmlns:svg="http://www.w3.org/2000/svg"><sodipodi:namedview
     id="namedview1"
     pagecolor="#ffffff"
     bordercolor="#999999"
     borderopacity="1"
     inkscape:showpageshadow="2"
     inkscape:pageopacity="0"
     inkscape:pagecheckerboard="0"
     inkscape:deskcolor="#d1d1d1"
     inkscape:zoom="0.18273926"
     inkscape:cx="4093.2639"
     inkscape:cy="4096"
     inkscape:window-width="3200"
     inkscape:window-height="1711"
     inkscape:window-x="2391"
     inkscape:window-y="-9"
     inkscape:window-maximized="1"
     inkscape:current-layer="svg1" /><defs
     id="defs1"><linearGradient
       id="swatch53"><stop
         style="stop-color:#ff6981;stop-opacity:1;"
         offset="0"
         id="stop53" /></linearGradient></defs><g
     id="g16"
     transform="translate(2639.9946,3309.8991)"><g
       id="layer1"
       transform="matrix(4.0541432,0,0,4.0683776,-3621.5837,-4003.7547)"><path
         style="fill:none;fill-opacity:1;stroke:#000000;stroke-width:8.69291;stroke-linecap:round;stroke-linejoin:round;stroke-dasharray:none;stroke-opacity:1;paint-order:normal"
         d="m 411.43167,481.48719 c 26.87375,-6.67772 35.0173,-27.19949 35.0173,-27.19949 0,0 -19.87028,-38.27473 -61.72818,-36.48314 -41.8579,1.79158 -50.97869,42.34651 -50.97869,42.34651 0,0 13.68118,18.89305 38.76335,22.63909"
         id="path1" /><ellipse
         style="fill:#000000;fill-opacity:1;stroke:#000000;stroke-width:9.28513;stroke-linecap:round;stroke-linejoin:round;stroke-dasharray:none;stroke-opacity:1;paint-order:normal"
         id="path2"
         cx="391.88712"
         cy="446.9585"
         rx="22.180115"
         ry="22.180117" /><path
         style="fill:#000000;fill-opacity:1;stroke:#000000;stroke-width:3.02362;stroke-linecap:round;stroke-linejoin:round;stroke-dasharray:none;stroke-opacity:1;paint-order:normal"
         d="m 345.96316,431.32405 c 0,0 -13.07149,-1.20926 -13.53216,-9.67406 0,0 -2.07301,12.09257 7.88896,18.25402"
         id="path4" /><path
         style="fill:#000000;fill-opacity:1;stroke:#000000;stroke-width:2.66391;stroke-linecap:round;stroke-linejoin:round;stroke-dasharray:none;stroke-opacity:1;paint-order:normal"
         d="m 338.48436,443.636 c 0,0 -11.60125,-1.0576 -12.0101,-8.46083 0,0 -1.83985,10.57604 7.00163,15.96478"
         id="path5" /><path
         style="fill:#000000;fill-opacity:1;stroke:#000000;stroke-width:3.02362;stroke-linecap:round;stroke-linejoin:round;stroke-dasharray:none;stroke-opacity:1;paint-order:normal"
         d="m 336.34669,467.83209 c 0,0 -4.26119,2.87918 -3.22469,8.75271 0,0 3.45502,-5.41286 9.15581,-4.5491"
         id="path6" /><path
         style="fill:none;fill-opacity:1;stroke:#000000;stroke-width:8.69291;stroke-linecap:round;stroke-linejoin:round;stroke-dasharray:none;stroke-opacity:1;paint-order:normal"
         d="m 577.97051,481.48719 c -26.87375,-6.67772 -35.0173,-27.19949 -35.0173,-27.19949 0,0 19.87028,-38.27473 61.72818,-36.48314 41.8579,1.79158 50.97869,42.34651 50.97869,42.34651 0,0 -13.68118,18.89305 -38.76335,22.63909"
         id="path31" /><ellipse
         style="fill:#000000;fill-opacity:1;stroke:#000000;stroke-width:9.28513;stroke-linecap:round;stroke-linejoin:round;stroke-dasharray:none;stroke-opacity:1;paint-order:normal"
         id="ellipse31"
         cx="-597.51508"
         cy="446.9585"
         rx="22.180115"
         ry="22.180117"
         transform="scale(-1,1)" /><path
         style="fill:#000000;fill-opacity:1;stroke:#000000;stroke-width:3.02362;stroke-linecap:round;stroke-linejoin:round;stroke-dasharray:none;stroke-opacity:1;paint-order:normal"
         d="m 643.43902,431.32405 c 0,0 13.07149,-1.20926 13.53216,-9.67406 0,0 2.07301,12.09257 -7.88896,18.25402"
         id="path40" /><path
         style="fill:#000000;fill-opacity:1;stroke:#000000;stroke-width:2.66391;stroke-linecap:round;stroke-linejoin:round;stroke-dasharray:none;stroke-opacity:1;paint-order:normal"
         d="m 650.91782,443.636 c 0,0 11.60125,-1.0576 12.0101,-8.46083 0,0 1.83985,10.57604 -7.00163,15.96478"
         id="path41" /><path
         style="fill:#000000;fill-opacity:1;stroke:#000000;stroke-width:3.02362;stroke-linecap:round;stroke-linejoin:round;stroke-dasharray:none;stroke-opacity:1;paint-order:normal"
         d="m 653.05549,467.83209 c 0,0 4.26119,2.87918 3.22469,8.75271 0,0 -3.45502,-5.41286 -9.15581,-4.5491"
         id="path42" /></g><g
       id="g3"
       transform="matrix(4.0584835,0,0,4.0584835,-3641.9322,-3609.1809)"
       style="display:inline"><path
         style="fill:none;fill-opacity:1;stroke:#000000;stroke-width:8.69147;stroke-linecap:round;stroke-linejoin:round;stroke-dasharray:none;stroke-opacity:1;paint-order:normal"
         d="m 920.809,385.45478 c 26.8918,-6.67103 35.04082,-27.17222 35.04082,-27.17222 0,0 -19.88363,-38.23637 -61.76963,-36.44657 -41.88601,1.78978 -51.01293,42.30406 -51.01293,42.30406 0,0 13.69037,18.8741 38.78939,22.6164"
         id="path3" /><ellipse
         style="fill:#000000;fill-opacity:1;stroke:#000000;stroke-width:9.28359;stroke-linecap:round;stroke-linejoin:round;stroke-dasharray:none;stroke-opacity:1;paint-order:normal"
         id="ellipse3"
         cx="901.25134"
         cy="350.96069"
         rx="22.195009"
         ry="22.157883" /><path
         style="fill:none;fill-opacity:1;stroke:#000000;stroke-width:8.69147;stroke-linecap:round;stroke-linejoin:round;stroke-dasharray:none;stroke-opacity:1;paint-order:normal"
         d="m 1086.8067,385.45478 c -26.8918,-6.67103 -35.0408,-27.17222 -35.0408,-27.17222 0,0 19.8836,-38.23637 61.7696,-36.44657 41.886,1.78978 51.013,42.30406 51.013,42.30406 0,0 -13.6904,18.8741 -38.7894,22.6164"
         id="path43" /><ellipse
         style="fill:#000000;fill-opacity:1;stroke:#000000;stroke-width:9.28359;stroke-linecap:round;stroke-linejoin:round;stroke-dasharray:none;stroke-opacity:1;paint-order:normal"
         id="ellipse43"
         cx="-1106.3644"
         cy="350.96069"
         rx="22.195009"
         ry="22.157883"
         transform="scale(-1,1)" /></g><g
       id="layer2"
       transform="matrix(4.0584835,0,0,4.0584835,-3611.5508,-3996.1917)"
       style="display:inline"><path
         style="fill:none;fill-opacity:1;stroke:#000000;stroke-width:8.68981;stroke-linecap:round;stroke-linejoin:round;stroke-dasharray:none;stroke-opacity:1;paint-order:normal"
         d="m 1452.2475,452.66951 c 0,0 -50.2133,-73.81874 -112.1648,-13.65809 0,0 7.0103,23.25127 35.8668,33.49485"
         id="path7" /><ellipse
         style="fill:#000000;fill-opacity:1;stroke:#000000;stroke-width:11.0814;stroke-linecap:round;stroke-linejoin:round;stroke-dasharray:none;stroke-opacity:1;paint-order:normal"
         id="path8"
         cx="1403.3383"
         cy="440.71869"
         rx="21.414513"
         ry="21.357515" /><path
         style="fill:#000000;fill-opacity:1;stroke:#000000;stroke-width:3.02254;stroke-linecap:round;stroke-linejoin:round;stroke-dasharray:none;stroke-opacity:1;paint-order:normal"
         d="m 1355.6482,422.40156 c 0,0 -6.9167,-2.70187 -8.1849,-9.3703 0,0 -1.9019,7.12832 2.9974,13.39435"
         id="path10" /><path
         style="fill:#000000;fill-opacity:1;stroke:#000000;stroke-width:2.5807;stroke-linecap:round;stroke-linejoin:round;stroke-dasharray:none;stroke-opacity:1;paint-order:normal"
         d="m 1347.1472,427.7806 c 0,0 -5.9057,-2.30689 -6.9884,-8.00052 0,0 -1.6241,6.08628 2.5591,11.43633"
         id="path11" /><path
         style="fill:#000000;fill-opacity:1;stroke:#000000;stroke-width:2.11198;stroke-linecap:round;stroke-linejoin:round;stroke-dasharray:none;stroke-opacity:1;paint-order:normal"
         d="m 1340.6605,434.38735 c 0,0 -4.8331,-1.88789 -5.7191,-6.54741 0,0 -1.3291,4.98086 2.0944,9.35915"
         id="path12" /><path
         style="fill:#000000;fill-opacity:1;stroke:#000000;stroke-width:1.88908;stroke-linecap:round;stroke-linejoin:round;stroke-dasharray:none;stroke-opacity:1;paint-order:normal"
         d="m 1340.4699,447.03961 c 0,0 -3.6682,3.00803 -3.5866,7.84528 0,0 1.5895,-3.02836 6.6638,-4.57303"
         id="path13" /><path
         style="fill:#000000;fill-opacity:1;stroke:#000000;stroke-width:2.04532;stroke-linecap:round;stroke-linejoin:round;stroke-dasharray:none;stroke-opacity:1;paint-order:normal"
         d="m 1345.0942,453.78605 c 0,0 -3.9715,3.25681 -3.8833,8.49408 0,0 1.7211,-3.2788 7.215,-4.9512"
         id="path14" /><path
         style="fill:none;fill-opacity:1;stroke:#000000;stroke-width:8.68981;stroke-linecap:round;stroke-linejoin:round;stroke-dasharray:none;stroke-opacity:1;paint-order:normal"
         d="m 1549.6404,452.66951 c 0,0 50.2133,-73.81874 112.1648,-13.65809 0,0 -7.0103,23.25127 -35.8668,33.49485"
         id="path44" /><ellipse
         style="fill:#000000;fill-opacity:1;stroke:#000000;stroke-width:11.0814;stroke-linecap:round;stroke-linejoin:round;stroke-dasharray:none;stroke-opacity:1;paint-order:normal"
         id="ellipse44"
         cx="-1598.5497"
         cy="440.71869"
         rx="21.414513"
         ry="21.357515"
         transform="scale(-1,1)" /><path
         style="fill:#000000;fill-opacity:1;stroke:#000000;stroke-width:3.02254;stroke-linecap:round;stroke-linejoin:round;stroke-dasharray:none;stroke-opacity:1;paint-order:normal"
         d="m 1646.2397,422.40156 c 0,0 6.9167,-2.70187 8.1849,-9.3703 0,0 1.9019,7.12832 -2.9974,13.39435"
         id="path45" /><path
         style="fill:#000000;fill-opacity:1;stroke:#000000;stroke-width:2.5807;stroke-linecap:round;stroke-linejoin:round;stroke-dasharray:none;stroke-opacity:1;paint-order:normal"
         d="m 1654.7407,427.7806 c 0,0 5.9057,-2.30689 6.9884,-8.00052 0,0 1.6241,6.08628 -2.5591,11.43633"
         id="path46" /><path
         style="fill:#000000;fill-opacity:1;stroke:#000000;stroke-width:2.11198;stroke-linecap:round;stroke-linejoin:round;stroke-dasharray:none;stroke-opacity:1;paint-order:normal"
         d="m 1661.2274,434.38735 c 0,0 4.8331,-1.88789 5.7191,-6.54741 0,0 1.3291,4.98086 -2.0944,9.35915"
         id="path47" /><path
         style="fill:#000000;fill-opacity:1;stroke:#000000;stroke-width:1.88908;stroke-linecap:round;stroke-linejoin:round;stroke-dasharray:none;stroke-opacity:1;paint-order:normal"
         d="m 1661.418,447.03961 c 0,0 3.6682,3.00803 3.5866,7.84528 0,0 -1.5895,-3.02836 -6.6638,-4.57303"
         id="path48" /><path
         style="fill:#000000;fill-opacity:1;stroke:#000000;stroke-width:2.04532;stroke-linecap:round;stroke-linejoin:round;stroke-dasharray:none;stroke-opacity:1;paint-order:normal"
         d="m 1656.7937,453.78605 c 0,0 3.9715,3.25681 3.8833,8.49408 0,0 -1.7211,-3.2788 -7.215,-4.9512"
         id="path49" /></g><g
       id="g9"
       transform="matrix(4.0584835,0,0,4.0584835,-3620.805,-3643.2125)"
       style="display:inline"><path
         style="fill:none;fill-opacity:1;stroke:#000000;stroke-width:8.68565;stroke-linecap:round;stroke-linejoin:round;stroke-dasharray:none;stroke-opacity:1;paint-order:normal"
         d="m 1959.1517,365.69697 c 0,0 -50.1614,-73.82411 -112.0491,-13.65908 0,0 7.0031,23.25297 35.8297,33.49727"
         id="path9" /><ellipse
         style="fill:#000000;fill-opacity:1;stroke:#000000;stroke-width:11.0761;stroke-linecap:round;stroke-linejoin:round;stroke-dasharray:none;stroke-opacity:1;paint-order:normal"
         id="circle9"
         cx="1910.2932"
         cy="353.7453"
         rx="21.392424"
         ry="21.35907" /><path
         style="fill:none;fill-opacity:1;stroke:#000000;stroke-width:8.68565;stroke-linecap:round;stroke-linejoin:round;stroke-dasharray:none;stroke-opacity:1;paint-order:normal"
         d="m 2056.5405,365.69697 c 0,0 50.1614,-73.82411 112.0491,-13.65908 0,0 -7.0031,23.25297 -35.8297,33.49727"
         id="path50" /><ellipse
         style="fill:#000000;fill-opacity:1;stroke:#000000;stroke-width:11.0761;stroke-linecap:round;stroke-linejoin:round;stroke-dasharray:none;stroke-opacity:1;paint-order:normal"
         id="ellipse50"
         cx="-2105.3992"
         cy="353.7453"
         rx="21.392424"
         ry="21.35907"
         transform="scale(-1,1)" /></g><g
       id="layer3"
       transform="matrix(4.0584835,0,0,4.0584835,-3611.5508,-3996.1917)"
       style="display:inline"><path
         style="fill:none;fill-opacity:1;stroke:#000000;stroke-width:8.686;stroke-linecap:round;stroke-linejoin:round;stroke-dasharray:none;stroke-opacity:1;paint-order:normal"
         d="m 437.74976,960.70714 c 0,0 3.49134,-34.54349 -35.72533,-35.79893 -31.66477,-1.01368 -32.87314,-1.00477 -38.57358,0.65089 -7.41378,2.15327 -21.32128,10.90239 -21.15852,26.36104 0.16276,15.45862 21.68194,29.12284 28.40124,30.99861 7.65899,2.1381 23.16848,3.57224 43.53769,0.73225 23.9254,-3.33581 23.5185,-22.94386 23.5185,-22.94386 z"
         id="path15" /><ellipse
         style="fill:#000000;fill-opacity:1;stroke:#000000;stroke-width:11.2768;stroke-linecap:round;stroke-linejoin:round;stroke-dasharray:none;stroke-opacity:1;paint-order:normal"
         id="path16"
         cx="390.7128"
         cy="950.45563"
         rx="19.862894"
         ry="19.858582" /><path
         style="fill:none;fill-opacity:1;stroke:#000000;stroke-width:8.686;stroke-linecap:round;stroke-linejoin:round;stroke-dasharray:none;stroke-opacity:1;paint-order:normal"
         d="m 545.65016,960.70714 c 0,0 -3.49134,-34.54349 35.72533,-35.79893 31.66477,-1.01368 32.87314,-1.00477 38.57358,0.65089 7.41378,2.15327 21.32128,10.90239 21.15852,26.36104 -0.16276,15.45862 -21.68194,29.12284 -28.40124,30.99861 -7.65899,2.1381 -23.16848,3.57224 -43.53769,0.73225 -23.9254,-3.33581 -23.5185,-22.94386 -23.5185,-22.94386 z"
         id="path51" /><ellipse
         style="fill:#000000;fill-opacity:1;stroke:#000000;stroke-width:11.2768;stroke-linecap:round;stroke-linejoin:round;stroke-dasharray:none;stroke-opacity:1;paint-order:normal"
         id="ellipse51"
         cx="-592.68713"
         cy="950.45563"
         rx="19.862894"
         ry="19.858582"
         transform="scale(-1,1)" /></g><g
       id="layer4"
       transform="matrix(4.0584835,0,0,4.0584835,-3611.5508,-3996.1917)"
       style="display:inline"><ellipse
         style="fill:#000000;fill-opacity:1;stroke:#000000;stroke-width:10.7357;stroke-linecap:round;stroke-linejoin:round;stroke-dasharray:none;stroke-opacity:1;paint-order:normal"
         id="path17"
         cx="895.17584"
         cy="951.04309"
         rx="18.655943"
         ry="18.655922" /><ellipse
         style="fill:#000000;fill-opacity:1;stroke:#000000;stroke-width:10.7357;stroke-linecap:round;stroke-linejoin:round;stroke-dasharray:none;stroke-opacity:1;paint-order:normal"
         id="ellipse52"
         cx="1097.4681"
         cy="951.04309"
         rx="18.655943"
         ry="18.655922" /></g><g
       id="g17"
       transform="matrix(4.0584835,0,0,4.0584835,-3611.5508,-3996.1917)"
       style="display:inline"><ellipse
         style="fill:#000000;fill-opacity:1;stroke:#000000;stroke-width:10.7346;stroke-linecap:round;stroke-linejoin:round;stroke-dasharray:none;stroke-opacity:1;paint-order:normal"
         id="circle17"
         cx="1399.7988"
         cy="950.55377"
         rx="18.655294"
         ry="18.652998" /><path
         style="fill:#000000;fill-opacity:1;stroke:#000000;stroke-width:3.01954;stroke-linecap:round;stroke-linejoin:round;stroke-dasharray:none;stroke-opacity:1;paint-order:normal"
         d="m 1385.9245,934.14355 c 0,0 -7.3767,-1.44503 -9.8587,-11.77489 0,0 -2.9305,11.81999 3.0792,19.89907"
         id="path18" /><ellipse
         style="fill:#000000;fill-opacity:1;stroke:#000000;stroke-width:10.7346;stroke-linecap:round;stroke-linejoin:round;stroke-dasharray:none;stroke-opacity:1;paint-order:normal"
         id="ellipse53"
         cx="-1602.089"
         cy="950.55377"
         rx="18.655294"
         ry="18.652998"
         transform="scale(-1,1)" /><path
         style="fill:#000000;fill-opacity:1;stroke:#000000;stroke-width:3.01954;stroke-linecap:round;stroke-linejoin:round;stroke-dasharray:none;stroke-opacity:1;paint-order:normal"
         d="m 1615.9632,934.14355 c 0,0 7.3767,-1.44503 9.8587,-11.77489 0,0 2.9305,11.81999 -3.0792,19.89907"
         id="path53" /></g><g
       id="layer5"
       transform="matrix(4.0584835,0,0,4.0584835,-3611.5508,-3996.1917)"
       style="display:inline"><path
         style="fill:none;fill-opacity:1;stroke:#000000;stroke-width:8.68777;stroke-linecap:round;stroke-linejoin:round;stroke-dasharray:none;stroke-opacity:1;paint-order:normal"
         d="m 344.26302,1477.4476 c 0,0 6.10618,-44.1554 44.70181,-43.9255 38.59563,0.2301 48.61896,44.0404 48.61896,44.0404"
         id="path19" /><ellipse
         style="fill:#000000;fill-opacity:1;stroke:#000000;stroke-width:10.5065;stroke-linecap:round;stroke-linejoin:round;stroke-dasharray:none;stroke-opacity:1;paint-order:normal"
         id="path20"
         cx="390.57773"
         cy="1455.0249"
         rx="19.366848"
         ry="19.32938" /><path
         style="fill:none;fill-opacity:1;stroke:#000000;stroke-width:8.68777;stroke-linecap:round;stroke-linejoin:round;stroke-dasharray:none;stroke-opacity:1;paint-order:normal"
         d="m 639.13691,1477.4476 c 0,0 -6.10618,-44.1554 -44.70181,-43.9255 -38.59563,0.2301 -48.61896,44.0404 -48.61896,44.0404"
         id="path55" /><ellipse
         style="fill:#000000;fill-opacity:1;stroke:#000000;stroke-width:10.5065;stroke-linecap:round;stroke-linejoin:round;stroke-dasharray:none;stroke-opacity:1;paint-order:normal"
         id="ellipse55"
         cx="-592.8222"
         cy="1455.0248"
         rx="19.366848"
         ry="19.32938"
         transform="scale(-1,1)" /></g><g
       id="g21"
       transform="matrix(4.0584835,0,0,4.0584835,-3612.212,-4335.6205)"
       style="display:inline"><path
         style="fill:none;fill-opacity:1;stroke:#000000;stroke-width:8.68804;stroke-linecap:round;stroke-linejoin:round;stroke-dasharray:none;stroke-opacity:1;paint-order:normal"
         d="m 849.04144,1561.0817 c 0,0 6.1066,-44.1551 44.70485,-43.9251 38.59825,0.23 48.62227,44.0401 48.62227,44.0401"
         id="path21" /><ellipse
         style="fill:#000000;fill-opacity:1;stroke:#000000;stroke-width:10.5068;stroke-linecap:round;stroke-linejoin:round;stroke-dasharray:none;stroke-opacity:1;paint-order:normal"
         id="circle21"
         cx="895.35925"
         cy="1538.6593"
         rx="19.368164"
         ry="19.329279" /><path
         style="fill:#000000;fill-opacity:1;stroke:#000000;stroke-width:3.02193;stroke-linecap:round;stroke-linejoin:round;stroke-dasharray:none;stroke-opacity:1;paint-order:normal"
         d="m 852.54928,1541.3734 c 0,0 -7.12878,0.7725 -9.45075,-7.521 0,0 -1.30354,9.3912 5.98819,15.1233"
         id="path22" /><path
         style="fill:none;fill-opacity:1;stroke:#000000;stroke-width:8.68804;stroke-linecap:round;stroke-linejoin:round;stroke-dasharray:none;stroke-opacity:1;paint-order:normal"
         d="m 1143.9283,1561.0817 c 0,0 -6.1066,-44.1551 -44.7048,-43.9251 -38.5983,0.23 -48.6223,44.0401 -48.6223,44.0401"
         id="path56" /><ellipse
         style="fill:#000000;fill-opacity:1;stroke:#000000;stroke-width:10.5068;stroke-linecap:round;stroke-linejoin:round;stroke-dasharray:none;stroke-opacity:1;paint-order:normal"
         id="ellipse56"
         cx="-1097.6105"
         cy="1538.6593"
         rx="19.368164"
         ry="19.329279"
         transform="scale(-1,1)" /><path
         style="fill:#000000;fill-opacity:1;stroke:#000000;stroke-width:3.02193;stroke-linecap:round;stroke-linejoin:round;stroke-dasharray:none;stroke-opacity:1;paint-order:normal"
         d="m 1140.4205,1541.3734 c 0,0 7.1288,0.7725 9.4507,-7.521 0,0 1.3036,9.3912 -5.9882,15.1233"
         id="path57" /></g><g
       id="layer6"
       transform="matrix(4.0584835,0,0,4.0584835,-3611.5508,-3996.1917)"
       style="display:inline"><circle
         style="fill:none;fill-opacity:1;stroke:#000000;stroke-width:8.68685;stroke-linecap:round;stroke-linejoin:round;stroke-dasharray:none;stroke-opacity:1;paint-order:normal"
         id="path23"
         cx="1905.1589"
         cy="949.0719"
         r="32.98579" /><path
         style="fill:none;fill-opacity:1;stroke:#000000;stroke-width:8.68685;stroke-linecap:round;stroke-linejoin:round;stroke-dasharray:none;stroke-opacity:1;paint-order:normal"
         d="m 1935.8215,941.34649 c 0,0 -26.9879,-17.2055 -60.766,-3.51014"
         id="path24" /><circle
         style="fill:#000000;fill-opacity:1;stroke:#000000;stroke-width:12.3826;stroke-linecap:round;stroke-linejoin:round;stroke-dasharray:none;stroke-opacity:1;paint-order:normal"
         id="path25"
         cx="1904.9496"
         cy="951.0426"
         r="16.076912" /><circle
         style="fill:none;fill-opacity:1;stroke:#000000;stroke-width:8.68685;stroke-linecap:round;stroke-linejoin:round;stroke-dasharray:none;stroke-opacity:1;paint-order:normal"
         id="circle53"
         cx="-2105.9729"
         cy="949.0719"
         r="32.98579"
         transform="scale(-1,1)" /><path
         style="fill:none;fill-opacity:1;stroke:#000000;stroke-width:8.68685;stroke-linecap:round;stroke-linejoin:round;stroke-dasharray:none;stroke-opacity:1;paint-order:normal"
         d="m 2075.3104,941.34649 c 0,0 26.9879,-17.2055 60.766,-3.51014"
         id="path54" /><circle
         style="fill:#000000;fill-opacity:1;stroke:#000000;stroke-width:12.3826;stroke-linecap:round;stroke-linejoin:round;stroke-dasharray:none;stroke-opacity:1;paint-order:normal"
         id="circle54"
         cx="-2106.1824"
         cy="951.0426"
         r="16.076912"
         transform="scale(-1,1)" /></g><g
       id="layer7"
       style="display:inline"
       transform="matrix(4.0584835,0,0,4.0584835,-3611.5508,-3996.1917)"><path
         style="fill:none;fill-opacity:1;stroke:#000000;stroke-width:8.68964;stroke-linecap:round;stroke-linejoin:round;stroke-dasharray:none;stroke-opacity:1;paint-order:normal"
         d="m 1452.9868,1453.9243 c 0,0 -24.438,-29.4487 -63.05,-18.8731 -38.612,10.5755 -30.1401,54.5046 -30.1401,54.5046 0,0 30.3688,4.2346 53.7635,-4.7183 27.9679,-10.703 39.4266,-30.9132 39.4266,-30.9132 z"
         id="path26" /><ellipse
         style="fill:#000000;fill-opacity:1;stroke:#000000;stroke-width:9.86147;stroke-linecap:round;stroke-linejoin:round;stroke-dasharray:none;stroke-opacity:1;paint-order:normal"
         id="path27"
         cx="1399.875"
         cy="1455.0634"
         rx="20.430344"
         ry="20.402826" /><path
         style="fill:#000000;fill-opacity:1;stroke:#000000;stroke-width:3.02248;stroke-linecap:round;stroke-linejoin:round;stroke-dasharray:none;stroke-opacity:1;paint-order:normal"
         d="m 1356.9383,1465.6312 c 0,0 -8.8129,-0.7478 -10.5986,-10.5842 0,0 -0.9791,14.0932 10.541,19.7304"
         id="path28" /><path
         style="fill:#000000;fill-opacity:1;stroke:#000000;stroke-width:2.44757;stroke-linecap:round;stroke-linejoin:round;stroke-dasharray:none;stroke-opacity:1;paint-order:normal"
         d="m 1354.9587,1478.3037 c 0,0 -7.1286,0.6929 -9.9927,-6.8802 0,0 1.2861,11.3675 11.2877,14.1729"
         id="path29" /><path
         style="fill:none;fill-opacity:1;stroke:#000000;stroke-width:8.68964;stroke-linecap:round;stroke-linejoin:round;stroke-dasharray:none;stroke-opacity:1;paint-order:normal"
         d="m 1548.901,1453.9243 c 0,0 24.438,-29.4487 63.05,-18.8731 38.612,10.5755 30.1401,54.5046 30.1401,54.5046 0,0 -30.3688,4.2346 -53.7635,-4.7183 -27.9679,-10.703 -39.4266,-30.9132 -39.4266,-30.9132 z"
         id="path58" /><ellipse
         style="fill:#000000;fill-opacity:1;stroke:#000000;stroke-width:9.86147;stroke-linecap:round;stroke-linejoin:round;stroke-dasharray:none;stroke-opacity:1;paint-order:normal"
         id="ellipse58"
         cx="-1602.0127"
         cy="1455.0634"
         rx="20.430344"
         ry="20.402826"
         transform="scale(-1,1)" /><path
         style="fill:#000000;fill-opacity:1;stroke:#000000;stroke-width:3.02248;stroke-linecap:round;stroke-linejoin:round;stroke-dasharray:none;stroke-opacity:1;paint-order:normal"
         d="m 1644.9495,1465.6312 c 0,0 8.8129,-0.7478 10.5986,-10.5842 0,0 0.9791,14.0932 -10.541,19.7304"
         id="path59" /><path
         style="fill:#000000;fill-opacity:1;stroke:#000000;stroke-width:2.44757;stroke-linecap:round;stroke-linejoin:round;stroke-dasharray:none;stroke-opacity:1;paint-order:normal"
         d="m 1646.9291,1478.3037 c 0,0 7.1286,0.6929 9.9927,-6.8802 0,0 -1.2861,11.3675 -11.2877,14.1729"
         id="path60" /></g><g
       id="g32"
       style="display:inline"
       transform="matrix(4.0584835,0,0,4.0584835,-3610.6162,-3625.0727)"><path
         style="fill:none;fill-opacity:1;stroke:#000000;stroke-width:8.69288;stroke-linecap:round;stroke-linejoin:round;stroke-dasharray:none;stroke-opacity:1;paint-order:normal"
         d="m 1957.3769,1362.4822 c 0,0 -24.4575,-29.4472 -63.1004,-18.8723 -38.643,10.575 -30.1643,54.5017 -30.1643,54.5017 0,0 30.3931,4.2344 53.8065,-4.7181 27.9902,-10.7024 39.4582,-30.9113 39.4582,-30.9113 z"
         id="path30" /><ellipse
         style="fill:#000000;fill-opacity:1;stroke:#000000;stroke-width:9.86514;stroke-linecap:round;stroke-linejoin:round;stroke-dasharray:none;stroke-opacity:1;paint-order:normal"
         id="circle30"
         cx="1904.2227"
         cy="1363.621"
         rx="20.446695"
         ry="20.401688" /><path
         style="fill:none;fill-opacity:1;stroke:#000000;stroke-width:8.69288;stroke-linecap:round;stroke-linejoin:round;stroke-dasharray:none;stroke-opacity:1;paint-order:normal"
         d="m 2053.2943,1362.4822 c 0,0 24.4575,-29.4472 63.1004,-18.8723 38.643,10.575 30.1643,54.5017 30.1643,54.5017 0,0 -30.3931,4.2344 -53.8065,-4.7181 -27.9902,-10.7024 -39.4582,-30.9113 -39.4582,-30.9113 z"
         id="path61" /><ellipse
         style="fill:#000000;fill-opacity:1;stroke:#000000;stroke-width:9.86514;stroke-linecap:round;stroke-linejoin:round;stroke-dasharray:none;stroke-opacity:1;paint-order:normal"
         id="ellipse61"
         cx="-2106.4485"
         cy="1363.621"
         rx="20.446695"
         ry="20.401688"
         transform="scale(-1,1)" /></g><g
       id="layer8"
       transform="matrix(4.0584835,0,0,4.0584835,-3611.5508,-3996.1917)"
       style="display:inline"><path
         style="fill:none;fill-opacity:1;stroke:#000000;stroke-width:8.69809;stroke-linecap:round;stroke-linejoin:round;stroke-dasharray:none;stroke-opacity:1;paint-order:normal"
         d="m 439.79625,1942.0613 c -69.40171,18.4298 -103.41085,-2.1885 -103.41085,-2.1885 0,0 -1.2297,42.9268 49.2268,46.996 51.4172,4.1468 54.18405,-44.8075 54.18405,-44.8075 z"
         id="path32" /><path
         style="fill:#000000;fill-opacity:1;stroke:#000000;stroke-width:8.69809;stroke-linecap:round;stroke-linejoin:round;stroke-dasharray:none;stroke-opacity:1;paint-order:normal"
         d="m 375.92823,1950.7003 c 0,0 -13.5268,24.9614 14.41065,26.2624 27.20732,1.2671 13.60366,-26.2624 13.60366,-26.2624"
         id="path33" /><path
         style="fill:none;fill-opacity:1;stroke:#000000;stroke-width:8.69809;stroke-linecap:round;stroke-linejoin:round;stroke-dasharray:none;stroke-opacity:1;paint-order:normal"
         d="m 543.60369,1942.0613 c 69.40171,18.4298 103.41085,-2.1885 103.41085,-2.1885 0,0 1.2297,42.9268 -49.2268,46.996 -51.4172,4.1468 -54.18405,-44.8075 -54.18405,-44.8075 z"
         id="path62" /><path
         style="fill:#000000;fill-opacity:1;stroke:#000000;stroke-width:8.69809;stroke-linecap:round;stroke-linejoin:round;stroke-dasharray:none;stroke-opacity:1;paint-order:normal"
         d="m 607.47171,1950.7003 c 0,0 13.5268,24.9614 -14.41065,26.2624 -27.20732,1.2671 -13.60366,-26.2624 -13.60366,-26.2624"
         id="path63" /></g><g
       id="layer9"
       transform="matrix(4.0584835,0,0,4.0584835,-3611.5508,-3996.1917)"
       style="display:inline"><ellipse
         style="fill:none;fill-opacity:1;stroke:#000000;stroke-width:8.69594;stroke-linecap:round;stroke-linejoin:round;stroke-dasharray:none;stroke-opacity:1;paint-order:normal"
         id="path34"
         cx="895.13495"
         cy="1966.1945"
         rx="43.124313"
         ry="29.525513" /><ellipse
         style="fill:#000000;fill-opacity:1;stroke:#000000;stroke-width:12.7755;stroke-linecap:round;stroke-linejoin:round;stroke-dasharray:none;stroke-opacity:1;paint-order:normal"
         id="path35"
         cx="894.90424"
         cy="1959.2303"
         rx="20.32782"
         ry="20.293188" /><path
         style="fill:#000000;fill-opacity:1;stroke:#000000;stroke-width:3.02467;stroke-linecap:round;stroke-linejoin:round;stroke-dasharray:none;stroke-opacity:1;paint-order:normal"
         d="m 850.51161,1973.6767 c 0,0 -10.08924,5.1798 -5.93824,18.1871 0,0 0.0577,-8.8058 10.49282,-12.3742"
         id="path36" /><path
         style="fill:#000000;fill-opacity:1;stroke:#000000;stroke-width:2.5678;stroke-linecap:round;stroke-linejoin:round;stroke-dasharray:none;stroke-opacity:1;paint-order:normal"
         d="m 857.88531,1982.7526 c 0,0 -8.56528,4.3975 -5.04128,15.4401 0,0 0.049,-7.4756 8.9079,-10.5051"
         id="path37" /><path
         style="fill:#000000;fill-opacity:1;stroke:#000000;stroke-width:2.11093;stroke-linecap:round;stroke-linejoin:round;stroke-dasharray:none;stroke-opacity:1;paint-order:normal"
         d="m 867.27687,1990.2748 c 0,0 -7.04131,3.615 -4.14431,12.6929 0,0 0.0403,-6.1456 7.32298,-8.636"
         id="path38" /><ellipse
         style="fill:none;fill-opacity:1;stroke:#000000;stroke-width:8.69594;stroke-linecap:round;stroke-linejoin:round;stroke-dasharray:none;stroke-opacity:1;paint-order:normal"
         id="ellipse63"
         cx="-1097.5089"
         cy="1966.1945"
         rx="43.124313"
         ry="29.525513"
         transform="scale(-1,1)" /><ellipse
         style="fill:#000000;fill-opacity:1;stroke:#000000;stroke-width:12.7755;stroke-linecap:round;stroke-linejoin:round;stroke-dasharray:none;stroke-opacity:1;paint-order:normal"
         id="ellipse64"
         cx="-1097.7396"
         cy="1959.2303"
         rx="20.32782"
         ry="20.293188"
         transform="scale(-1,1)" /><path
         style="fill:#000000;fill-opacity:1;stroke:#000000;stroke-width:3.02467;stroke-linecap:round;stroke-linejoin:round;stroke-dasharray:none;stroke-opacity:1;paint-order:normal"
         d="m 1142.1322,1973.6767 c 0,0 10.0893,5.1798 5.9383,18.1871 0,0 -0.058,-8.8058 -10.4929,-12.3742"
         id="path64" /><path
         style="fill:#000000;fill-opacity:1;stroke:#000000;stroke-width:2.5678;stroke-linecap:round;stroke-linejoin:round;stroke-dasharray:none;stroke-opacity:1;paint-order:normal"
         d="m 1134.7585,1982.7526 c 0,0 8.5653,4.3975 5.0413,15.4401 0,0 -0.049,-7.4756 -8.9079,-10.5051"
         id="path65" /><path
         style="fill:#000000;fill-opacity:1;stroke:#000000;stroke-width:2.11093;stroke-linecap:round;stroke-linejoin:round;stroke-dasharray:none;stroke-opacity:1;paint-order:normal"
         d="m 1125.367,1990.2748 c 0,0 7.0413,3.615 4.1443,12.6929 0,0 -0.04,-6.1456 -7.323,-8.636"
         id="path66" /></g><g
       id="layer10"
       transform="matrix(4.0584835,0,0,4.0584835,-3611.5508,-3996.1917)"
       style="display:inline"><path
         style="fill:#000000;fill-opacity:1;stroke:#000000;stroke-width:8.62404;stroke-linecap:round;stroke-linejoin:round;stroke-dasharray:none;stroke-opacity:1;paint-order:normal"
         d="m 1353.7215,1959.7943 h 90.1812"
         id="path39" /><path
         style="fill:#000000;fill-opacity:1;stroke:#000000;stroke-width:8.62404;stroke-linecap:round;stroke-linejoin:round;stroke-dasharray:none;stroke-opacity:1;paint-order:normal"
         d="M 1648.1662,1959.7943 H 1557.985"
         id="path67" /></g></g><g
     id="layer11"><rect
       style="opacity:0.506608;fill:none;fill-opacity:1;stroke-width:35;stroke-linecap:round;stroke-linejoin:round;stroke-dasharray:none"
       id="rect67"
       width="100"
       height="100"
       x="0"
       y="0" /><rect
       style="opacity:0.506608;fill:none;fill-opacity:1;stroke-width:35;stroke-linecap:round;stroke-linejoin:round;stroke-dasharray:none"
       id="rect68"
       width="100"
       height="100"
       x="8092"
       y="0" /><rect
       style="opacity:0.506608;fill:none;fill-opacity:1;stroke-width:35;stroke-linecap:round;stroke-linejoin:round;stroke-dasharray:none"
       id="rect69"
       width="100"
       height="100"
       x="8092"
       y="8092" /><rect
       style="opacity:0.506608;fill:none;fill-opacity:1;stroke-width:35;stroke-linecap:round;stroke-linejoin:round;stroke-dasharray:none"
       id="rect70"
       width="100"
       height="100"
       x="0"
       y="8092" /></g></svg>
