<?xml version="1.0" encoding="UTF-8" standalone="no"?>
<!-- Created with Inkscape (http://www.inkscape.org/) -->

<svg
   version="1.1"
   id="svg1"
   width="8192"
   height="4096"
   viewBox="0 0 8192 4096"
   sodipodi:docname="OffCourseMoustacheSheet.svg"
   inkscape:export-filename="..\..\..\..\..\..\..\Downloads\TestStache.png"
   inkscape:export-xdpi="96"
   inkscape:export-ydpi="96"
   inkscape:version="1.3.2 (091e20e, 2023-11-25, custom)"
   xml:space="preserve"
   xmlns:inkscape="http://www.inkscape.org/namespaces/inkscape"
   xmlns:sodipodi="http://sodipodi.sourceforge.net/DTD/sodipodi-0.dtd"
   xmlns="http://www.w3.org/2000/svg"
   xmlns:svg="http://www.w3.org/2000/svg"><defs
     id="defs1" /><sodipodi:namedview
     id="namedview1"
     pagecolor="#ffffff"
     bordercolor="#999999"
     borderopacity="1"
     inkscape:showpageshadow="2"
     inkscape:pageopacity="0"
     inkscape:pagecheckerboard="0"
     inkscape:deskcolor="#d1d1d1"
     inkscape:zoom="0.18969727"
     inkscape:cx="3484.4993"
     inkscape:cy="1694.8056"
     inkscape:window-width="3200"
     inkscape:window-height="1711"
     inkscape:window-x="2391"
     inkscape:window-y="-9"
     inkscape:window-maximized="1"
     inkscape:current-layer="layer1" /><g
     inkscape:groupmode="layer"
     inkscape:label="Image"
     id="g1"><g
       id="g2"
       inkscape:label="Stash1"
       style="display:inline"
       transform="matrix(0.99954474,0,0,1.0011464,0.15744276,-0.93337733)"><path
         style="fill:#ffffff;fill-opacity:1;stroke:#ffffff;stroke-width:40;stroke-linecap:round;stroke-linejoin:round;stroke-opacity:1"
         d="m 1096.5998,1227.7447 50.0798,-79.0734 75.1196,65.8945 71.1661,-80.3913 90.9343,51.3977 51.3977,-71.166 119.9279,44.8082 35.5831,-54.0334 126.5173,35.583 C 1622.4376,799.43058 1024,820.51681 1024,820.51681 c 0,0 -598.43754,-21.08623 -693.32557,320.24719 l 126.51737,-35.583 35.58301,54.0334 119.92793,-44.8082 51.39769,71.166 90.93436,-51.3977 71.16602,80.3913 75.11969,-65.8945 50.0798,79.0734 72.5997,-71.1661 z"
         id="path2"
         sodipodi:nodetypes="ccccccccccccccccccccc" /></g><g
       inkscape:groupmode="layer"
       id="layer1"
       inkscape:label="Stash2"
       transform="matrix(0.79930337,0,0,0.79984526,2253.5133,215.50156)"
       style="display:inline"><path
         style="display:inline;fill:#ffffff;fill-opacity:1;stroke:#ffffff;stroke-width:30;stroke-linecap:round;stroke-linejoin:round;stroke-dasharray:none;stroke-opacity:1"
         d="m 532.75704,862.16452 c -59.30502,56.0103 -155.51094,96.86487 -206.90862,104.77221 -51.39768,7.90729 -91.59331,25.03989 -91.59331,25.03989 C 55.022161,1082.911 49.750611,1274.0049 49.750611,1274.0049 c 0,0 275.438869,-166.054 461.920199,-222.0643 186.48134,-56.01028 246.07302,-91.76693 422.01124,-80.5649 0,0 113.17895,-12.82839 -35.0328,-100.2573 -205.52276,-100.94129 -365.89221,-8.95388 -365.89221,-8.95388 z"
         id="path3"
         sodipodi:nodetypes="csccsccc"
         transform="matrix(0.89067473,0.17476368,-0.17500073,0.89067473,325.46989,27.339838)" /><path
         style="fill:#ffffff;fill-opacity:1;stroke:#ffffff;stroke-width:30;stroke-linecap:round;stroke-linejoin:round;stroke-dasharray:none;stroke-opacity:1"
         d="m 1343.3327,703.11748 c 76.0949,29.44281 180.6166,30.91163 231.1903,18.81066 50.5737,-12.10101 94.2676,-11.4288 94.2676,-11.4288 200.3335,16.45778 277.5188,191.37238 277.5188,191.37238 0,0 -317.8201,-49.6477 -511.6495,-31.0354 -193.8293,18.6124 -262.5261,8.0279 -421.1636,84.8787 0,0 -109.63027,30.89 -5.503,-106.0515 152.0705,-171.10647 335.3394,-146.54604 335.3394,-146.54604 z"
         id="path4"
         sodipodi:nodetypes="csccsccc"
         transform="matrix(0.89067473,0.17476368,-0.17500073,0.89067473,325.46989,27.339838)" /></g><g
       id="g5"
       inkscape:label="Stash3"
       transform="translate(4086.831,22.359803)"
       style="display:inline"><path
         style="display:inline;fill:#ffffff;fill-opacity:1;stroke:#ffffff;stroke-width:30;stroke-linecap:round;stroke-linejoin:round;stroke-opacity:1"
         d="M 662.89831,931.74773 C 794.68724,885.6216 889.57527,850.03859 998.96008,898.8005 1108.3449,947.5624 1035.861,1083.305 1035.861,1083.305 951.51607,1191.3719 749.87901,1141.2921 582.50707,1060.9009 415.13513,980.50963 337.37966,857.94593 337.37966,857.94593 c 0,0 108.06692,162.10037 325.51865,73.8018 z"
         id="path1" /><path
         style="display:inline;fill:#ffffff;fill-opacity:1;stroke:#ffffff;stroke-width:30;stroke-linecap:round;stroke-linejoin:round;stroke-opacity:1"
         d="m 1403.4396,931.74773 c -131.7889,-46.12613 -226.677,-81.70914 -336.0618,-32.94723 -109.38479,48.7619 -36.9009,184.5045 -36.9009,184.5045 84.3449,108.0669 285.982,57.9871 453.3539,-22.4041 167.372,-80.39127 245.1275,-202.95497 245.1275,-202.95497 0,0 -108.067,162.10037 -325.5187,73.8018 z"
         id="path5" /></g><g
       id="g7"
       inkscape:label="Stash4"
       transform="translate(6142.9342,-0.4922409)"
       style="display:inline"><path
         style="fill:#ffffff;fill-opacity:1;stroke:#ffffff;stroke-width:20;stroke-linecap:round;stroke-linejoin:round;stroke-dasharray:none;stroke-opacity:1"
         d="m 201.28791,1653.1701 c 122.07738,-159.3529 136.9876,-256.2693 137.91949,-284.226 0.93189,-27.9566 14.91021,-136.0557 24.2291,-163.0804 9.31888,-27.0248 58.70897,-221.78949 273.9752,-246.01859 215.26623,-24.2291 351.32195,42.86689 351.32195,42.86689 0,0 29.82045,13.0464 27.02475,41.935 -2.7957,28.8885 -27.02475,23.2972 -42.86685,20.5015 -15.84211,-2.7957 -207.81113,-33.548 -316.84208,-4.6594 -109.03095,28.8885 -167.73992,38.2074 -204.08357,134.1919 0,0 -16.77399,47.5263 -24.2291,118.3498 0,0 -27.02476,254.4055 -226.44889,340.1393 z"
         id="path6"
         sodipodi:nodetypes="csssc" /><path
         style="fill:#ffffff;fill-opacity:1;stroke:#ffffff;stroke-width:20;stroke-linecap:round;stroke-linejoin:round;stroke-dasharray:none;stroke-opacity:1"
         d="m 1848.8436,1653.1701 c -122.0773,-159.3529 -136.9875,-256.2693 -137.9194,-284.226 -0.9319,-27.9566 -14.9102,-136.0557 -24.2291,-163.0804 -9.3189,-27.0248 -58.709,-221.78949 -273.9752,-246.01859 -215.2662,-24.2291 -351.322,42.86689 -351.322,42.86689 0,0 -29.8204,13.0464 -27.0247,41.935 2.7957,28.8885 27.0247,23.2972 42.8668,20.5015 15.8421,-2.7957 207.8112,-33.548 316.8421,-4.6594 109.031,28.8885 167.7399,38.2074 204.0836,134.1919 0,0 16.774,47.5263 24.2291,118.3498 0,0 27.0247,254.4055 226.4488,340.1393 z"
         id="path7"
         sodipodi:nodetypes="csssc" /></g><g
       id="g9"
       inkscape:label="Stash5"
       style="display:inline"
       transform="translate(-6.260755,2087.5367)"><path
         style="fill:#ffffff;fill-opacity:1;stroke:#ffffff;stroke-width:10;stroke-linecap:round;stroke-linejoin:round;stroke-dasharray:none;stroke-opacity:1"
         d="m 330.79021,1170.2857 c 0,0 168.68983,-245.78636 664.2162,-225.35908 0,0 20.42729,30.9704 23.06309,75.11968 0,0 -483.22591,-4.6203 -687.27929,150.2394 z"
         id="path8" /><path
         style="fill:#ffffff;fill-opacity:1;stroke:#ffffff;stroke-width:10;stroke-linecap:round;stroke-linejoin:round;stroke-dasharray:none;stroke-opacity:1"
         d="m 1729.7313,1170.2857 c 0,0 -168.6898,-245.78636 -664.2162,-225.35908 0,0 -20.4272,30.9704 -23.063,75.11968 0,0 483.2259,-4.6203 687.2792,150.2394 z"
         id="path9" /></g></g></svg>
