<?xml version="1.0" encoding="UTF-8" standalone="no"?>
<!-- Created with Inkscape (http://www.inkscape.org/) -->

<svg
   version="1.1"
   id="svg1"
   width="8192"
   height="8192"
   viewBox="0 0 8192 8192"
   xml:space="preserve"
   sodipodi:docname="MakeupWingedEyelinerSheet.svg"
   inkscape:export-filename="..\FinalFacialFeatures\OffCourseSeperateEyes.svg"
   inkscape:export-xdpi="96"
   inkscape:export-ydpi="96"
   inkscape:version="1.3.2 (091e20e, 2023-11-25, custom)"
   xmlns:inkscape="http://www.inkscape.org/namespaces/inkscape"
   xmlns:sodipodi="http://sodipodi.sourceforge.net/DTD/sodipodi-0.dtd"
   xmlns="http://www.w3.org/2000/svg"
   xmlns:svg="http://www.w3.org/2000/svg"><sodipodi:namedview
     id="namedview1"
     pagecolor="#ffffff"
     bordercolor="#999999"
     borderopacity="1"
     inkscape:showpageshadow="2"
     inkscape:pageopacity="0"
     inkscape:pagecheckerboard="0"
     inkscape:deskcolor="#d1d1d1"
     inkscape:zoom="0.056568543"
     inkscape:cx="-247.48737"
     inkscape:cy="5701.0484"
     inkscape:window-width="2400"
     inkscape:window-height="1261"
     inkscape:window-x="2391"
     inkscape:window-y="-9"
     inkscape:window-maximized="1"
     inkscape:current-layer="g16" /><defs
     id="defs1"><linearGradient
       id="swatch53"><stop
         style="stop-color:#ff6981;stop-opacity:1;"
         offset="0"
         id="stop53" /></linearGradient></defs><g
     id="g16"
     transform="translate(2639.9946,3309.8991)"><g
       id="layer1"
       transform="matrix(4.0541432,0,0,4.0683776,-3621.5837,-4003.7547)"
       inkscape:label="Eye1.1"
       style="display:inline"><g
         id="g1"
         inkscape:label="EyeShape"
         transform="matrix(2.8700192,0,0,2.8700191,-1261.7422,-845.44998)"><path
           style="display:inline;fill:#ffffff;fill-opacity:1;stroke:#ffffff;stroke-width:1.71587;stroke-linecap:round;stroke-linejoin:round;stroke-dasharray:none;stroke-opacity:1"
           d="m 658.4476,460.73937 c 0,0 11.7745,-1.70323 26.20777,-19.49244 0,0 -12.53416,7.77693 -20.32052,3.40645 0,0 -15.56879,-32.58295 -56.88523,-35.28783 0,0 -41.46191,-3.70655 -65.37561,40.01344"
           id="path1"
           transform="translate(-3.4134387e-6)"
           sodipodi:nodetypes="ccccc"
           inkscape:label="EyeLiner1.1" /></g></g><g
       id="g3"
       transform="matrix(3.664552,0,0,3.664552,-1522.5474,-3379.7591)"
       style="display:inline"
       inkscape:label="Eye1"><g
         id="g2"
         inkscape:label="Eyeshape"><path
           style="display:inline;fill:#ffffff;fill-opacity:1;stroke:#ffffff;stroke-width:5.45768;stroke-linecap:round;stroke-linejoin:round;stroke-dasharray:none;stroke-opacity:1"
           d="m 680.85446,359.15319 c 0,0 37.3857,-5.42698 83.21336,-62.10854 0,0 -39.79772,24.77955 -64.52051,10.85393 0,0 -49.43311,-103.81868 -180.61862,-112.43721 0,0 -131.64741,-11.81014 -207.57678,127.49437"
           id="path5"
           sodipodi:nodetypes="ccccc"
           inkscape:label="EyeLiner1" /></g></g><g
       id="layer2"
       transform="matrix(4.0584835,0,0,4.0584835,484.4489,-3996.1917)"
       style="display:inline"
       inkscape:label="Eye2.1"><g
         id="g4"
         inkscape:label="EyeShape"
         transform="matrix(2.940563,0,0,2.940563,-4244.4654,-867.00516)"
         style="display:inline"><path
           style="display:inline;fill:#ffffff;fill-opacity:1;stroke:#ffffff;stroke-width:1.65206;stroke-linecap:round;stroke-linejoin:round;stroke-dasharray:none;stroke-opacity:1"
           d="m 1659.2493,442.12588 c 0,0 13.1923,-0.51274 20.9964,-16.22325 0,0 -5.9158,6.01374 -15.1494,1.71017 0,0 -23.7357,-28.13174 -63.2661,-23.54284 0,0 -36.3042,3.29701 -54.2968,48.91271"
           id="path3"
           sodipodi:nodetypes="ccccc"
           inkscape:label="EyeLiner2.1" /></g></g><g
       id="g9"
       transform="matrix(4.0584835,0,0,4.0584835,2523.1947,-3643.2125)"
       style="display:inline"
       inkscape:label="Eye2"><g
         id="g5"
         inkscape:label="EyeShape"
         transform="matrix(2.964012,0,0,2.964012,-5780.4034,-706.50899)"><path
           style="display:inline;fill:#ffffff;fill-opacity:1;stroke:#ffffff;stroke-width:1.63899;stroke-linecap:round;stroke-linejoin:round;stroke-dasharray:none;stroke-opacity:1"
           d="m 2165.0874,355.13676 c 0,0 13.088,-0.50868 20.8303,-16.0949 0,0 -5.869,5.96616 -15.0295,1.69664 0,0 -23.5479,-27.90918 -62.7656,-23.35659 0,0 -36.017,3.27093 -53.8673,48.52575"
           id="path103"
           sodipodi:nodetypes="ccccc"
           inkscape:label="EyeLiner2.1" /></g></g><g
       id="layer3"
       transform="matrix(14.804899,0,0,14.804899,-8501.8445,-6902.634)"
       style="display:inline"
       inkscape:label="Eye3"><g
         id="g6"
         inkscape:label="EyeShape"
         transform="matrix(0.89999987,0,0,0.89999987,-79.35584,-399.08319)"><path
           style="display:inline;fill:#ffffff;fill-opacity:1;stroke:#ffffff;stroke-width:1.501;stroke-linecap:round;stroke-linejoin:round;stroke-dasharray:none;stroke-opacity:1"
           d="m 642.59238,958.32278 c 0,0 12.7127,-5.48794 24.15561,-26.21783 0,0 -11.0023,8.12505 -18.79673,3.46595 0,0 -12.00424,-25.05249 -41.18604,-24.09179 0,0 -39.08258,-1.85369 -60.4626,28.58124"
           id="path6"
           sodipodi:nodetypes="ccccc"
           inkscape:label="EyeLiner3" /></g></g><g
       id="layer4"
       transform="matrix(4.0584835,0,0,4.0584835,-1563.5511,-1948.1915)"
       style="display:inline"
       inkscape:label="Eye4"><g
         id="g104"
         inkscape:label="EyeShape"
         transform="matrix(0.90000003,0,0,0.90000003,17.167976,57.195102)"><path
           style="display:inline;fill:#ffffff;fill-opacity:1;stroke:#ffffff;stroke-width:3.34517;stroke-linecap:round;stroke-linejoin:round;stroke-dasharray:none;stroke-opacity:1"
           d="m 582.66355,426.07106 c 0,0 33.21117,-11.95867 54.57422,-59.68246 0,0 -18.31139,12.31479 -34.81378,10.86025 0,0 -13.20024,-49.69014 -94.37471,-55.93721 0,0 -59.76568,-9.27063 -102.05536,67.47365"
           id="path7"
           sodipodi:nodetypes="ccccc"
           inkscape:label="EyeLiner4" /></g></g><g
       id="g17"
       transform="matrix(4.0584835,0,0,4.0584835,484.44809,-1948.1915)"
       style="display:inline"
       inkscape:label="Eye4.1"><g
         id="g7"
         inkscape:label="EyeShape"
         transform="matrix(3.4645779,0,0,3.4645779,-5092.1255,-2852.1363)"><path
           style="display:inline;fill:#ffffff;fill-opacity:1;stroke:#ffffff;stroke-width:0.868981;stroke-linecap:round;stroke-linejoin:round;stroke-dasharray:none;stroke-opacity:1"
           d="m 1626.0829,950.41748 c 0,0 8.6273,-3.10653 14.1769,-15.50383 0,0 -4.7568,3.19904 -9.0437,2.82119 0,0 -3.429,-12.9081 -24.5159,-14.53092 0,0 -15.5254,-2.40825 -26.5111,17.52776"
           id="path100"
           sodipodi:nodetypes="ccccc"
           inkscape:label="EyeLiner4.1" /></g></g><g
       id="layer6"
       transform="matrix(4.0584835,0,0,4.0584835,2532.4481,-1948.1915)"
       style="display:inline"
       inkscape:label="Eye5"><g
         id="g8"
         inkscape:label="EyeShape"
         transform="matrix(0.90000006,0,0,0.90000006,34.402241,87.891189)"><path
           style="display:inline;fill:#ffffff;fill-opacity:1;stroke:#ffffff;stroke-width:4.67479;stroke-linecap:round;stroke-linejoin:round;stroke-dasharray:none;stroke-opacity:1"
           d="m 601.70223,363.54968 c 0,0 42.31825,-5.01363 53.14282,-50.70881 0,0 -22.46176,12.83587 -46.63304,5.74323 0,0 -31.26981,-83.05008 -125.25963,-83.80237 0,0 -105.07155,-2.48384 -146.83429,108.0415"
           id="path9"
           sodipodi:nodetypes="ccccc"
           inkscape:label="EyeLiner5" /></g></g><g
       id="layer5"
       transform="matrix(4.0584835,0,0,4.0584835,-3611.5519,99.808523)"
       style="display:inline"
       inkscape:label="Eye6"><g
         id="g10"
         inkscape:label="EyeShape"
         transform="matrix(3.1760874,0,0,3.1760874,-1439.8748,-4182.1102)"><path
           style="display:inline;fill:#ffffff;fill-opacity:1;stroke:#ffffff;stroke-width:1.55157;stroke-linecap:round;stroke-linejoin:round;stroke-dasharray:none;stroke-opacity:1"
           d="m 642.70051,1477.3621 c 0,0 12.91225,-2.362 20.76135,-18.3514 0,0 -7.31044,7.4256 -17.57881,1.9862 0,0 -11.38519,-36.9289 -46.52012,-36.4207 0,0 -38.82357,-2.7646 -53.04485,41.7872"
           id="path11"
           sodipodi:nodetypes="ccccc"
           inkscape:label="EyeLiner6"
           transform="translate(1.3860097e-6,-2.9566748e-5)" /></g></g><g
       id="g21"
       transform="matrix(4.0584835,0,0,4.0584835,-1564.213,-239.62023)"
       style="display:inline"
       inkscape:label="Eye6.1"><g
         id="g11"
         inkscape:label="EyeShape"
         transform="matrix(3.1384939,0,0,3.1384939,-3003.6169,-4306.4652)"><path
           style="display:inline;fill:#ffffff;fill-opacity:1;stroke:#ffffff;stroke-width:1.57016;stroke-linecap:round;stroke-linejoin:round;stroke-dasharray:none;stroke-opacity:1"
           d="m 1148.6968,1561.3287 c 0,0 13.0669,-2.3903 21.01,-18.5713 0,0 -7.398,7.5146 -17.7893,2.01 0,0 -11.5216,-37.3712 -47.0774,-36.8569 0,0 -39.2886,-2.7977 -53.6802,42.2877"
           id="path101"
           sodipodi:nodetypes="ccccc"
           inkscape:label="EyeLiner6" /></g></g><g
       id="layer7"
       style="display:inline"
       transform="matrix(4.0584835,0,0,4.0584835,484.44809,99.808523)"
       inkscape:label="Eye7.1"><g
         id="g12"
         inkscape:label="EyeShape"
         transform="matrix(3.2425193,0,0,3.2425193,-4734.0581,-4290.2141)"><path
           style="display:inline;fill:#ffffff;fill-opacity:1;stroke:#ffffff;stroke-width:1.6277;stroke-linecap:round;stroke-linejoin:round;stroke-dasharray:none;stroke-opacity:1"
           d="m 1644.8709,1491.3238 c 0,0 19.4971,-1.0184 24.7622,-10.0733 0,0 -9.5209,2.9621 -14.1493,-5.0276 0,0 5.2969,-34.5907 -37.5057,-48.8507 0,0 -38.9667,-12.7291 -68.8609,27.4054"
           id="path12"
           sodipodi:nodetypes="ccccc"
           inkscape:label="EyeLiner7.1" /></g></g><g
       id="g32"
       style="display:inline"
       transform="matrix(4.0584835,0,0,4.0584835,2453.3827,470.92762)"
       inkscape:label="Eye7"><g
         id="g14"
         inkscape:label="EyeShape"
         transform="matrix(0.89997468,0,0,0.89997468,17.791224,-953.04721)"><path
           style="display:inline;fill:#ffffff;fill-opacity:1;stroke:#ffffff;stroke-width:5.86444;stroke-linecap:round;stroke-linejoin:round;stroke-dasharray:none;stroke-opacity:1"
           d="m 667.972,1563.4178 c 0,0 70.24612,-3.6692 89.21575,-36.2931 0,0 -34.30286,10.6722 -50.97852,-18.1139 0,0 19.0842,-124.6269 -135.12931,-176.0042 0,0 -140.39315,-45.8617 -248.09898,98.7389"
           id="path102"
           sodipodi:nodetypes="ccccc"
           inkscape:label="EyeLiner7" /></g></g><g
       id="layer8"
       transform="matrix(4.0584835,0,0,4.0584835,-3611.5519,2147.8085)"
       style="display:inline"
       inkscape:label="Eye8"><g
         id="g15"
         inkscape:label="EyeShape"
         transform="matrix(3.6782584,0,0,3.6782584,-1713.4368,-6753.3164)"><path
           style="display:inline;fill:#ffffff;fill-opacity:1;stroke:#ffffff;stroke-width:1.33975;stroke-linecap:round;stroke-linejoin:round;stroke-dasharray:none;stroke-opacity:1"
           d="m 650.9571,1942.9001 c 0,0 7.99324,-1.6283 12.28591,-15.3944 0,0 -7.40114,7.105 -15.83845,5.9209 0,0 -1.77628,-5.921 -100.21153,8.2893 0,0 10.06556,13.3221 38.0419,14.8023 27.97633,1.4802 44.11081,3.8486 65.72217,-13.6181 z"
           id="path15"
           sodipodi:nodetypes="ccccsc"
           transform="translate(-1.2665466e-6,-2.815624e-5)"
           inkscape:label="EyeLiner8" /></g></g><g
       id="layer9"
       transform="matrix(4.0584835,0,0,4.0584835,-1563.5519,2147.8085)"
       style="display:inline"
       inkscape:label="Eye9"><g
         id="g18"
         inkscape:label="EyeShape"
         transform="matrix(3.7342604,0,0,3.7342604,-3653.9332,-6893.014)"><path
           style="display:inline;fill:#ffffff;fill-opacity:1;stroke:#ffffff;stroke-width:1.31966;stroke-linecap:round;stroke-linejoin:round;stroke-dasharray:none;stroke-opacity:1"
           d="m 1144.0578,1970.7561 c 0,0 12.8587,-1.1415 21.8985,-15.5761 0,0 -6.539,5.1493 -14.4125,3.6776 0,0 -8.5273,-29.6615 -44.8258,-30.906 0,0 -45.9,-2.3942 -53.9674,30.8253"
           id="path16"
           sodipodi:nodetypes="ccccc"
           inkscape:label="EyeLiner9" /></g></g><g
       id="layer10"
       transform="matrix(4.0584835,0,0,4.0584835,636.44809,1883.8085)"
       style="display:inline"
       inkscape:label="Eye10"><g
         id="g105"
         inkscape:label="EyeShape"
         transform="matrix(0.90000005,0,0,0.90000005,7.5419511,106.16058)"><path
           style="display:inline;fill:#ffffff;fill-opacity:1;stroke:#ffffff;stroke-width:5.4755;stroke-linecap:round;stroke-linejoin:round;stroke-dasharray:none;stroke-opacity:1"
           d="m 685.27357,417.40124 c 0,0 53.20111,-0.38486 73.00768,-48.13911 0,0 -28.8862,22.56578 -66.51028,14.26125 0,0 -198.34618,-85.39584 -392.54751,31.04805 87.8292,4.35253 219.0967,7.27618 386.05011,2.82981 z"
           id="path17"
           sodipodi:nodetypes="ccccc"
           inkscape:label="EyeLiner10" /></g></g></g><g
     id="layer11"
     inkscape:label="layer11"><rect
       style="opacity:0.506608;fill:none;fill-opacity:1;stroke-width:35;stroke-linecap:round;stroke-linejoin:round;stroke-dasharray:none"
       id="rect67"
       width="100"
       height="100"
       x="0"
       y="0" /><rect
       style="opacity:0.506608;fill:none;fill-opacity:1;stroke-width:35;stroke-linecap:round;stroke-linejoin:round;stroke-dasharray:none"
       id="rect68"
       width="100"
       height="100"
       x="8092"
       y="0" /><rect
       style="opacity:0.506608;fill:none;fill-opacity:1;stroke-width:35;stroke-linecap:round;stroke-linejoin:round;stroke-dasharray:none"
       id="rect69"
       width="100"
       height="100"
       x="8092"
       y="8092" /><rect
       style="opacity:0.506608;fill:none;fill-opacity:1;stroke-width:35;stroke-linecap:round;stroke-linejoin:round;stroke-dasharray:none"
       id="rect70"
       width="100"
       height="100"
       x="0"
       y="8092" /></g></svg>
