<?xml version="1.0" encoding="UTF-8" standalone="no"?>
<!-- Created with Inkscape (http://www.inkscape.org/) -->

<svg
   version="1.1"
   id="svg1"
   width="8192"
   height="8192"
   viewBox="0 0 8192 8192"
   xml:space="preserve"
   sodipodi:docname="makeup_eyeshadowhardbig_sheet.svg"
   inkscape:export-filename="..\FinalFacialFeatures\OffCourseSeperateEyes.svg"
   inkscape:export-xdpi="96"
   inkscape:export-ydpi="96"
   inkscape:version="1.3.2 (091e20e, 2023-11-25, custom)"
   xmlns:inkscape="http://www.inkscape.org/namespaces/inkscape"
   xmlns:sodipodi="http://sodipodi.sourceforge.net/DTD/sodipodi-0.dtd"
   xmlns="http://www.w3.org/2000/svg"
   xmlns:svg="http://www.w3.org/2000/svg"><sodipodi:namedview
     id="namedview1"
     pagecolor="#ffffff"
     bordercolor="#999999"
     borderopacity="1"
     inkscape:showpageshadow="2"
     inkscape:pageopacity="0"
     inkscape:pagecheckerboard="0"
     inkscape:deskcolor="#d1d1d1"
     inkscape:zoom="0.088388348"
     inkscape:cx="5017.6297"
     inkscape:cy="6692.0586"
     inkscape:window-width="1920"
     inkscape:window-height="991"
     inkscape:window-x="-9"
     inkscape:window-y="-9"
     inkscape:window-maximized="1"
     inkscape:current-layer="g16" /><defs
     id="defs1" /><g
     id="g16"
     transform="translate(2639.9946,3309.8991)"><g
       id="layer1"
       transform="matrix(4.0541432,0,0,4.0683776,-3621.5837,-4003.7547)"
       inkscape:label="Eye1.1"
       style="display:inline"><g
         id="g1"
         inkscape:label="EyeShape"
         transform="matrix(2.8700192,0,0,2.8700191,-1261.7422,-845.44998)"><g
           id="g193"
           inkscape:label="MakeUpHard1.1"
           style="display:inline"
           transform="translate(-3.4134387e-6)"><path
             style="display:inline;fill:#ffffff;fill-opacity:1;stroke:none;stroke-width:8.87964;stroke-linecap:round;stroke-linejoin:round;stroke-dasharray:none"
             d="m 539.78032,451.6543 c 0,0 18.9594,-42.74108 60.72823,-52.91551 41.76883,-10.17444 69.57716,12.21213 84.87874,41.33174 0,0 -13.93393,18.18158 -30.66534,19.59998"
             id="path193"
             sodipodi:nodetypes="cscc"
             inkscape:label="EyeShadowBig1.1"
             transform="translate(1.2416851e-6)" /></g></g></g><g
       id="g3"
       transform="matrix(3.664552,0,0,3.664552,-1522.5474,-3379.7591)"
       style="display:inline"
       inkscape:label="Eye1"><g
         id="g2"
         inkscape:label="Eyeshape"><g
           id="g191"
           inkscape:label="MakeUpHard1"
           style="display:inline"><path
             style="display:inline;fill:#ffffff;fill-opacity:1;stroke:none;stroke-width:28.3357;stroke-linecap:round;stroke-linejoin:round;stroke-dasharray:none"
             d="m 302.56077,330.48838 c 0,0 60.39518,-136.62976 193.4498,-169.15421 133.05463,-32.52448 221.63807,39.03833 270.38126,132.12455 0,0 -44.38654,58.12078 -97.68445,62.65496"
             id="path191"
             sodipodi:nodetypes="cscc"
             inkscape:label="EyeShadowBig1" /></g></g></g><g
       id="layer2"
       transform="matrix(4.0584835,0,0,4.0584835,484.4489,-3996.1917)"
       style="display:inline"
       inkscape:label="Eye2.1"><g
         id="g4"
         inkscape:label="EyeShape"
         transform="matrix(2.940563,0,0,2.940563,-4244.4654,-867.00516)"
         style="display:inline"><g
           id="g189"
           inkscape:label="MakeUpHard2.1"
           style="display:inline"
           transform="translate(2.4485953e-5)"><path
             style="display:inline;fill:#ffffff;fill-opacity:1;stroke:none;stroke-width:8.67253;stroke-linecap:round;stroke-linejoin:round;stroke-dasharray:none"
             d="m 1546.1652,451.8667 c 0,0 18.2715,-50.77607 58.9947,-60.73062 40.7232,-9.95457 71.6748,13.01472 78.9144,25.08084 0,0 -5.4796,18.85519 -25.8449,23.86905"
             id="path189"
             sodipodi:nodetypes="cscc"
             inkscape:label="EyeShadowBig2.1"
             transform="translate(6.3800169e-6)" /></g></g></g><g
       id="g9"
       transform="matrix(4.0584835,0,0,4.0584835,2523.1947,-3643.2125)"
       style="display:inline"
       inkscape:label="Eye2"><g
         id="g5"
         inkscape:label="EyeShape"
         transform="matrix(2.964012,0,0,2.964012,-5780.4034,-706.50899)"><g
           id="g187"
           inkscape:label="MakeUpHard2"
           style="display:inline"
           transform="translate(-3.9715725e-5)"><path
             style="display:inline;fill:#ffffff;fill-opacity:1;stroke:none;stroke-width:8.66156;stroke-linecap:round;stroke-linejoin:round;stroke-dasharray:none"
             d="m 2052.0352,364.87508 c 0,0 18.2484,-50.71185 58.9201,-60.65381 40.6717,-9.94199 71.5842,12.99826 78.8146,25.04912 0,0 -5.4726,18.83134 -25.8122,23.83886"
             id="path187"
             sodipodi:nodetypes="cscc"
             inkscape:label="EyeShadowBig2" /></g></g></g><g
       id="layer3"
       transform="matrix(14.804899,0,0,14.804899,-8501.8445,-6902.634)"
       style="display:inline"
       inkscape:label="Eye3"><g
         id="g6"
         inkscape:label="EyeShape"
         transform="matrix(0.89999987,0,0,0.89999987,-79.35584,-399.08319)"><g
           id="g185"
           inkscape:label="MakeUpHard3"
           style="display:inline"><path
             style="display:inline;fill:#ffffff;fill-opacity:1;stroke:none;stroke-width:7.7677;stroke-linecap:round;stroke-linejoin:round;stroke-dasharray:none"
             d="m 546.12449,949.45924 c 0,0 8.04475,-40.6795 44.81561,-48.28089 42.20581,-8.72493 66.68033,-2.09851 77.7498,28.00444 0,0 -11.02145,26.63133 -29.26195,28.25638"
             id="path185"
             sodipodi:nodetypes="cscc"
             inkscape:label="EyeShadowBig3" /></g></g></g><g
       id="layer4"
       transform="matrix(4.0584835,0,0,4.0584835,-1563.5511,-1948.1915)"
       style="display:inline"
       inkscape:label="Eye4"><g
         id="g104"
         inkscape:label="EyeShape"
         transform="matrix(0.90000003,0,0,0.90000003,17.167976,57.195102)"><g
           id="g183"
           inkscape:label="MakeUpHard4"
           style="display:inline"
           transform="translate(-1.2415472e-5)"><path
             style="display:inline;fill:#ffffff;fill-opacity:1;stroke:none;stroke-width:28.3357;stroke-linecap:round;stroke-linejoin:round;stroke-dasharray:none"
             d="m 403.08739,423.77923 c 0,0 -18.42116,-102.54099 113.96971,-127.54929 53.79185,-10.16114 113.82707,16.81301 139.63602,57.72098 0,0 -16.20668,59.16194 -79.95833,75.54371"
             id="path183"
             sodipodi:nodetypes="cscc"
             inkscape:label="EyeShadowBig4" /></g></g></g><g
       id="g17"
       transform="matrix(4.0584835,0,0,4.0584835,484.44809,-1948.1915)"
       style="display:inline"
       inkscape:label="Eye4.1"><g
         id="g7"
         inkscape:label="EyeShape"
         transform="matrix(3.4645779,0,0,3.4645779,-5092.1255,-2852.1363)"><g
           id="g181"
           inkscape:label="MakeUpHard4.1"
           style="display:inline"
           transform="translate(-2.6194618e-5,-3.4613562e-5)"><path
             style="display:inline;fill:#ffffff;fill-opacity:1;stroke:none;stroke-width:7.2539;stroke-linecap:round;stroke-linejoin:round;stroke-dasharray:none"
             d="m 1580.3909,948.33268 c 0,0 -4.7158,-26.25035 29.1761,-32.65244 13.7707,-2.60124 29.1396,4.3041 35.7467,14.77649 0,0 -4.1489,15.14537 -20.4693,19.33908"
             id="path180"
             sodipodi:nodetypes="cscc"
             inkscape:label="EyeShadowBig4.1" /></g></g></g><g
       id="layer6"
       transform="matrix(4.0584835,0,0,4.0584835,2532.4481,-1948.1915)"
       style="display:inline"
       inkscape:label="Eye5"><g
         id="g8"
         inkscape:label="EyeShape"
         transform="matrix(0.90000006,0,0,0.90000006,34.402241,87.891189)"><g
           id="g179"
           inkscape:label="MakeUpHard5"
           style="display:inline"
           transform="translate(-7.5182766e-6,-1.1047334e-5)"><path
             style="display:inline;fill:#ffffff;fill-opacity:1;stroke:none;stroke-width:28.3357;stroke-linecap:round;stroke-linejoin:round;stroke-dasharray:none"
             d="m 332.36874,353.773 c 0,0 -2.37806,-120.79377 160.24887,-150.67564 88.65128,-16.28921 156.79681,22.78811 201.43099,83.76059 0,0 -26.2169,84.59762 -100.00217,96.06599"
             id="path179"
             sodipodi:nodetypes="cscc"
             inkscape:label="EyeShadowBig5"
             transform="translate(1.055938e-5)" /></g></g></g><g
       id="layer5"
       transform="matrix(4.0584835,0,0,4.0584835,-3611.5519,99.808523)"
       style="display:inline"
       inkscape:label="Eye6"><g
         id="g10"
         inkscape:label="EyeShape"
         transform="matrix(3.1760874,0,0,3.1760874,-1439.8748,-4182.1102)"><g
           id="g177"
           inkscape:label="MakeUpHard6"
           style="display:inline"
           transform="translate(2.5126883e-7,3.7754191e-5)"><path
             style="display:inline;fill:#ffffff;fill-opacity:1;stroke:none;stroke-width:8.02942;stroke-linecap:round;stroke-linejoin:round;stroke-dasharray:none"
             d="m 543.85478,1473.7459 c 0,0 -1.47781,-49.5477 49.3498,-60.2692 40.95387,-8.6387 68.71792,10.7384 81.6468,34.2122 0,0 -11.20935,25.3927 -33.89504,30.8188"
             id="path177"
             sodipodi:nodetypes="cscc"
             inkscape:label="EyeShadowBig6"
             transform="translate(-1.7894993e-6)" /></g></g></g><g
       id="g21"
       transform="matrix(4.0584835,0,0,4.0584835,-1564.213,-239.62023)"
       style="display:inline"
       inkscape:label="Eye6.1"><g
         id="g11"
         inkscape:label="EyeShape"
         transform="matrix(3.1384939,0,0,3.1384939,-3003.6169,-4306.4652)"><g
           id="g175"
           inkscape:label="MakeUpHard6.1"
           style="display:inline"
           transform="translate(2.2744725e-6)"><path
             style="display:inline;fill:#ffffff;fill-opacity:1;stroke:none;stroke-width:8.02881;stroke-linecap:round;stroke-linejoin:round;stroke-dasharray:none"
             d="m 1050.2449,1557.3791 c 0,0 -1.4777,-49.544 49.3461,-60.2647 40.9508,-8.638 68.7127,10.7376 81.6406,34.2096 0,0 -11.2085,25.3908 -33.8925,30.8165"
             id="path175"
             sodipodi:nodetypes="cscc"
             inkscape:label="EyeShadowBig6.1" /></g></g></g><g
       id="layer7"
       style="display:inline"
       transform="matrix(4.0584835,0,0,4.0584835,484.44809,99.808523)"
       inkscape:label="Eye7.1"><g
         id="g12"
         inkscape:label="EyeShape"
         transform="matrix(3.2425193,0,0,3.2425193,-4734.0581,-4290.2141)"><g
           id="g173"
           style="display:inline"
           inkscape:label="MakeUpHard7.1"
           transform="translate(-2.3622488e-7,-3.6982776e-5)"><path
             style="display:inline;fill:#ffffff;fill-opacity:1;stroke:none;stroke-width:7.86491;stroke-linecap:round;stroke-linejoin:round;stroke-dasharray:none"
             d="m 1547.5805,1450.4074 c 0,0 23.1313,-47.1438 73.1823,-38.0461 42.7006,7.7617 56.1893,37.6204 57.9514,65.3344 0,0 -12.338,17.6777 -36.7882,13.8258"
             id="path173"
             sodipodi:nodetypes="cscc"
             inkscape:label="EyeShadowBig7.1"
             transform="translate(-3.2838341e-5,-1.325094e-5)" /></g></g></g><g
       id="g32"
       style="display:inline"
       transform="matrix(4.0584835,0,0,4.0584835,2453.3827,470.92762)"
       inkscape:label="Eye7"><g
         id="g14"
         inkscape:label="EyeShape"
         transform="matrix(0.89997468,0,0,0.89997468,17.791224,-953.04721)"><g
           id="g170"
           inkscape:label="MakeUpHard7"
           style="display:inline"
           transform="translate(3.4119917e-6)"><path
             style="display:inline;fill:#ffffff;fill-opacity:1;stroke:none;stroke-width:28.3357;stroke-linecap:round;stroke-linejoin:round;stroke-dasharray:none"
             d="m 317.45742,1416.0374 c 0,0 83.33743,-169.8496 263.66115,-137.0725 153.84169,27.9639 202.43877,135.5388 208.78727,235.3868 0,0 -44.45134,63.6892 -132.54051,49.8116"
             id="path170"
             sodipodi:nodetypes="cscc"
             inkscape:label="EyeShadowBig7" /></g></g></g><g
       id="layer8"
       transform="matrix(4.0584835,0,0,4.0584835,-3611.5519,2147.8085)"
       style="display:inline"
       inkscape:label="Eye8"><g
         id="g15"
         inkscape:label="EyeShape"
         transform="matrix(3.6782584,0,0,3.6782584,-1713.4368,-6753.3164)"><g
           id="g168"
           inkscape:label="MakeUpHard8"
           style="display:inline"
           transform="translate(-1.2665466e-6,-2.815624e-5)"><path
             style="display:inline;fill:#ffffff;fill-opacity:1;stroke:none;stroke-width:6.93321;stroke-linecap:round;stroke-linejoin:round;stroke-dasharray:none"
             d="m 648.7697,1941.3994 c 16.1104,-7.4186 9.74817,-31.7007 9.74817,-31.7007 -49.11013,20.6965 -79.61826,20.706 -115.70745,29.6936 0,0 40.40076,27.1972 105.95928,2.0071 z"
             id="path168"
             sodipodi:nodetypes="cscc"
             inkscape:label="EyeShadowBig8"
             transform="translate(-1.1017323e-6)" /></g></g></g><g
       id="layer9"
       transform="matrix(4.0584835,0,0,4.0584835,-1563.5519,2147.8085)"
       style="display:inline"
       inkscape:label="Eye9"><g
         id="g18"
         inkscape:label="EyeShape"
         transform="matrix(3.7342604,0,0,3.7342604,-3653.9332,-6893.014)"><g
           id="g166"
           inkscape:label="MakeUpHard9"
           style="display:inline"
           transform="translate(-6.4463873e-6)"><path
             style="display:inline;fill:#ffffff;fill-opacity:1;stroke:none;stroke-width:6.82923;stroke-linecap:round;stroke-linejoin:round;stroke-dasharray:none"
             d="m 1052.9127,1965.3775 c 0,0 -6.1711,-43.5801 48.0152,-50.692 46.1168,-6.0528 60.9758,10.9591 69.3592,31.8744 0,0 -10.1361,24.4525 -30.386,26.0373"
             id="path166"
             sodipodi:nodetypes="cscc"
             inkscape:label="EyeShadowBig9"
             transform="translate(-2.0673604e-5,1.5732804e-5)" /></g></g></g><g
       id="layer10"
       transform="matrix(4.0584835,0,0,4.0584835,636.44809,1883.8085)"
       style="display:inline"
       inkscape:label="Eye10"><g
         id="g105"
         inkscape:label="EyeShape"
         transform="matrix(0.90000005,0,0,0.90000005,7.5419511,106.16058)"><g
           id="g164"
           inkscape:label="MakeUpHard10"
           style="display:inline"
           transform="translate(7.091549e-6,1.0326673e-5)"><path
             style="display:inline;fill:#ffffff;fill-opacity:1;stroke:none;stroke-width:28.3357;stroke-linecap:round;stroke-linejoin:round;stroke-dasharray:none"
             d="m 307.61923,420.27175 c 0,0 38.87156,-127.28859 198.32845,-148.94343 207.55242,-28.1864 233.78923,41.88242 267.20039,82.69989 0,0 -16.53672,60.26005 -99.382,66.08324"
             id="path164"
             sodipodi:nodetypes="cscc"
             inkscape:label="EyeShadowBig10"
             transform="translate(2.4639746e-6)" /></g></g></g></g><g
     id="layer11"
     inkscape:label="layer11"><rect
       style="opacity:0.506608;fill:none;fill-opacity:1;stroke-width:35;stroke-linecap:round;stroke-linejoin:round;stroke-dasharray:none"
       id="rect67"
       width="100"
       height="100"
       x="0"
       y="0" /><rect
       style="opacity:0.506608;fill:none;fill-opacity:1;stroke-width:35;stroke-linecap:round;stroke-linejoin:round;stroke-dasharray:none"
       id="rect68"
       width="100"
       height="100"
       x="8092"
       y="0" /><rect
       style="opacity:0.506608;fill:none;fill-opacity:1;stroke-width:35;stroke-linecap:round;stroke-linejoin:round;stroke-dasharray:none"
       id="rect69"
       width="100"
       height="100"
       x="8092"
       y="8092" /><rect
       style="opacity:0.506608;fill:none;fill-opacity:1;stroke-width:35;stroke-linecap:round;stroke-linejoin:round;stroke-dasharray:none"
       id="rect70"
       width="100"
       height="100"
       x="0"
       y="8092" /></g></svg>
