<?xml version="1.0" encoding="UTF-8" standalone="no"?>
<!-- Created with Inkscape (http://www.inkscape.org/) -->

<svg
   version="1.1"
   id="svg1"
   width="8192"
   height="8192"
   viewBox="0 0 8192 8192"
   xml:space="preserve"
   sodipodi:docname="MakeupEyeshadowHardSmallSheet.svg"
   inkscape:export-filename="..\FinalFacialFeatures\OffCourseSeperateEyes.svg"
   inkscape:export-xdpi="96"
   inkscape:export-ydpi="96"
   inkscape:version="1.3.2 (091e20e, 2023-11-25, custom)"
   xmlns:inkscape="http://www.inkscape.org/namespaces/inkscape"
   xmlns:sodipodi="http://sodipodi.sourceforge.net/DTD/sodipodi-0.dtd"
   xmlns="http://www.w3.org/2000/svg"
   xmlns:svg="http://www.w3.org/2000/svg"><sodipodi:namedview
     id="namedview1"
     pagecolor="#ffffff"
     bordercolor="#999999"
     borderopacity="1"
     inkscape:showpageshadow="2"
     inkscape:pageopacity="0"
     inkscape:pagecheckerboard="0"
     inkscape:deskcolor="#d1d1d1"
     inkscape:zoom="0.0625"
     inkscape:cx="5984"
     inkscape:cy="6360"
     inkscape:window-width="2400"
     inkscape:window-height="1261"
     inkscape:window-x="2391"
     inkscape:window-y="-9"
     inkscape:window-maximized="1"
     inkscape:current-layer="g16" /><defs
     id="defs1" /><g
     id="g16"
     transform="translate(2639.9946,3309.8991)"><g
       id="layer1"
       transform="matrix(4.0541432,0,0,4.0683776,-3621.5837,-4003.7547)"
       inkscape:label="Eye1.1"
       style="display:inline"><g
         id="g1"
         inkscape:label="EyeShape"
         transform="matrix(2.8700192,0,0,2.8700191,-1261.7422,-845.44998)"><g
           id="g193"
           inkscape:label="MakeUpHard1.1"
           style="display:inline"
           transform="translate(-3.4134387e-6)"><path
             style="display:inline;fill:#ffffff;fill-opacity:1;stroke:none;stroke-width:8.87964;stroke-linecap:round;stroke-linejoin:round;stroke-dasharray:none"
             d="m 539.78032,451.6543 c 0,0 16.55284,-35.76468 58.32167,-45.93911 41.76883,-10.17444 70.2335,24.20282 77.65907,36.53546 0,0 -12.84004,12.94929 -21.03911,17.41986"
             id="path192"
             sodipodi:nodetypes="cscc"
             inkscape:label="EyeShadowSmall1.1" /></g></g></g><g
       id="g3"
       transform="matrix(3.664552,0,0,3.664552,-1522.5474,-3379.7591)"
       style="display:inline"
       inkscape:label="Eye1"><g
         id="g2"
         inkscape:label="Eyeshape"><g
           id="g191"
           inkscape:label="MakeUpHard1"
           style="display:inline"><path
             style="display:inline;fill:#ffffff;fill-opacity:1;stroke:none;stroke-width:28.3357;stroke-linecap:round;stroke-linejoin:round;stroke-dasharray:none"
             d="m 302.56077,330.48838 c 0,0 52.72908,-114.32841 185.7837,-146.85286 133.05463,-32.52448 223.72885,77.36879 247.383,116.79235 0,0 -40.90195,41.3948 -67.02009,55.68581"
             id="path190"
             sodipodi:nodetypes="cscc"
             inkscape:label="EyeShadowSmall1" /></g></g></g><g
       id="layer2"
       transform="matrix(4.0584835,0,0,4.0584835,484.4489,-3996.1917)"
       style="display:inline"
       inkscape:label="Eye2.1"><g
         id="g4"
         inkscape:label="EyeShape"
         transform="matrix(2.940563,0,0,2.940563,-4244.4654,-867.00516)"
         style="display:inline"><g
           id="g189"
           inkscape:label="MakeUpHard2.1"
           style="display:inline"
           transform="translate(2.4485953e-5)"><path
             style="display:inline;fill:#ffffff;fill-opacity:1;stroke:none;stroke-width:8.67253;stroke-linecap:round;stroke-linejoin:round;stroke-dasharray:none"
             d="m 1546.1652,451.8667 c 0,0 16.5651,-40.96422 57.2883,-50.91877 40.7232,-9.95457 65.2758,10.45511 72.5154,22.52123 0,0 -9.7457,12.24285 -17.7395,16.61681"
             id="path188"
             sodipodi:nodetypes="cscc"
             inkscape:label="EyeShadowSmall2.1" /></g></g></g><g
       id="g9"
       transform="matrix(4.0584835,0,0,4.0584835,2523.1947,-3643.2125)"
       style="display:inline"
       inkscape:label="Eye2"><g
         id="g5"
         inkscape:label="EyeShape"
         transform="matrix(2.964012,0,0,2.964012,-5780.4034,-706.50899)"><g
           id="g187"
           inkscape:label="MakeUpHard2"
           style="display:inline"
           transform="translate(-3.9715725e-5)"><path
             style="display:inline;fill:#ffffff;fill-opacity:1;stroke:none;stroke-width:8.66156;stroke-linecap:round;stroke-linejoin:round;stroke-dasharray:none"
             d="m 2052.0352,364.87508 c 0,0 16.5442,-40.91241 57.2159,-50.85437 40.6717,-9.94198 65.1932,10.44189 72.4237,22.49275 0,0 -9.7334,12.22736 -17.7171,16.59579"
             id="path186"
             sodipodi:nodetypes="cscc"
             inkscape:label="EyeShadowSmall2" /></g></g></g><g
       id="layer3"
       transform="matrix(14.804899,0,0,14.804899,-8501.8445,-6902.634)"
       style="display:inline"
       inkscape:label="Eye3"><g
         id="g6"
         inkscape:label="EyeShape"
         transform="matrix(0.89999987,0,0,0.89999987,-79.35584,-399.08319)"><g
           id="g185"
           inkscape:label="MakeUpHard3"
           style="display:inline"><path
             style="display:inline;fill:#ffffff;fill-opacity:1;stroke:none;stroke-width:7.7677;stroke-linecap:round;stroke-linejoin:round;stroke-dasharray:none"
             d="m 544.59612,945.25621 c 0,0 8.82096,-29.56782 45.77083,-36.24495 38.76698,-7.00551 65.72511,13.94941 68.19747,26.28501 0,0 -4.71691,14.2133 -17.03496,19.08615"
             id="path184"
             sodipodi:nodetypes="cscc"
             inkscape:label="EyeShadowSmall3" /></g></g></g><g
       id="layer4"
       transform="matrix(4.0584835,0,0,4.0584835,-1563.5511,-1948.1915)"
       style="display:inline"
       inkscape:label="Eye4"><g
         id="g104"
         inkscape:label="EyeShape"
         transform="matrix(0.90000003,0,0,0.90000003,17.167976,57.195102)"><g
           id="g183"
           inkscape:label="MakeUpHard4"
           style="display:inline"
           transform="translate(-1.2415472e-5)"><path
             style="display:inline;fill:#ffffff;fill-opacity:1;stroke:none;stroke-width:28.3357;stroke-linecap:round;stroke-linejoin:round;stroke-dasharray:none"
             d="m 403.08739,423.77923 c 0,0 0.82584,-93.51868 101.4252,-111.52019 42.59367,-7.62182 101.28256,23.78218 123.60692,50.05489 0,0 -7.84367,37.5575 -52.77855,55.33311"
             id="path182"
             sodipodi:nodetypes="cscc"
             inkscape:label="EyeShadowSmall4" /></g></g></g><g
       id="g17"
       transform="matrix(4.0584835,0,0,4.0584835,484.44809,-1948.1915)"
       style="display:inline"
       inkscape:label="Eye4.1"><g
         id="g7"
         inkscape:label="EyeShape"
         transform="matrix(3.4645779,0,0,3.4645779,-5092.1255,-2852.1363)"><g
           id="g181"
           inkscape:label="MakeUpHard4.1"
           style="display:inline"
           transform="translate(-2.6194618e-5,-3.4613562e-5)"><path
             style="display:inline;fill:#ffffff;fill-opacity:1;stroke:none;stroke-width:7.2539;stroke-linecap:round;stroke-linejoin:round;stroke-dasharray:none"
             d="m 1580.3909,948.33268 c 0,0 0.2114,-23.94065 25.9647,-28.54902 10.904,-1.95117 25.9282,6.08821 31.6432,12.81399 0,0 -2.0079,9.61466 -13.5112,14.1652"
             id="path181"
             sodipodi:nodetypes="cscc"
             inkscape:label="EyeShadowSmall4.1" /></g></g></g><g
       id="layer6"
       transform="matrix(4.0584835,0,0,4.0584835,2532.4481,-1948.1915)"
       style="display:inline"
       inkscape:label="Eye5"><g
         id="g8"
         inkscape:label="EyeShape"
         transform="matrix(0.90000006,0,0,0.90000006,34.402241,87.891189)"><g
           id="g179"
           inkscape:label="MakeUpHard5"
           style="display:inline"
           transform="translate(-7.5182766e-6,-1.1047334e-5)"><path
             style="display:inline;fill:#ffffff;fill-opacity:1;stroke:none;stroke-width:28.3357;stroke-linecap:round;stroke-linejoin:round;stroke-dasharray:none"
             d="m 337.78948,352.78741 c 0,0 -1.88526,-97.63241 139.05869,-124.06471 88.59096,-16.61415 152.85445,52.3558 168.90653,79.32543 0,0 -21.78175,50.10198 -54.17224,58.12078"
             id="path178"
             sodipodi:nodetypes="cscc"
             inkscape:label="EyeShadowSmall5"
             transform="translate(-7.5182766e-6,-1.1047334e-5)" /></g></g></g><g
       id="layer5"
       transform="matrix(4.0584835,0,0,4.0584835,-3611.5519,99.808523)"
       style="display:inline"
       inkscape:label="Eye6"><g
         id="g10"
         inkscape:label="EyeShape"
         transform="matrix(3.1760874,0,0,3.1760874,-1439.8748,-4182.1102)"><g
           id="g177"
           inkscape:label="MakeUpHard6"
           style="display:inline"
           transform="translate(2.5126883e-7,3.7754191e-5)"><path
             style="display:inline;fill:#ffffff;fill-opacity:1;stroke:none;stroke-width:8.02942;stroke-linecap:round;stroke-linejoin:round;stroke-dasharray:none"
             d="m 545.2512,1467.8809 c 0,0 8.8557,-40.6106 47.11553,-47.1428 41.25806,-7.0441 62.0151,23.3062 68.52044,33.0951 0,0 -9.81293,17.852 -20.76868,19.9267"
             id="path176"
             sodipodi:nodetypes="cscc"
             inkscape:label="EyeShadowSmall6" /></g></g></g><g
       id="g21"
       transform="matrix(4.0584835,0,0,4.0584835,-1564.213,-239.62023)"
       style="display:inline"
       inkscape:label="Eye6.1"><g
         id="g11"
         inkscape:label="EyeShape"
         transform="matrix(3.1384939,0,0,3.1384939,-3003.6169,-4306.4652)"><g
           id="g175"
           inkscape:label="MakeUpHard6.1"
           style="display:inline"
           transform="translate(2.2744725e-6)"><path
             style="display:inline;fill:#ffffff;fill-opacity:1;stroke:none;stroke-width:8.02881;stroke-linecap:round;stroke-linejoin:round;stroke-dasharray:none"
             d="m 1051.6412,1551.5145 c 0,0 8.8551,-40.6075 47.112,-47.1392 41.2549,-7.0436 62.0104,23.3044 68.5153,33.0926 0,0 -9.8122,17.8506 -20.7672,19.9252"
             id="path174"
             sodipodi:nodetypes="cscc"
             inkscape:label="EyeShadowSmall6.1" /></g></g></g><g
       id="layer7"
       style="display:inline"
       transform="matrix(4.0584835,0,0,4.0584835,484.44809,99.808523)"
       inkscape:label="Eye7.1"><g
         id="g12"
         inkscape:label="EyeShape"
         transform="matrix(3.2425193,0,0,3.2425193,-4734.0581,-4290.2141)"><g
           id="g173"
           style="display:inline"
           inkscape:label="MakeUpHard7.1"
           transform="translate(-2.3622488e-7,-3.6982776e-5)"><path
             style="display:inline;fill:#ffffff;fill-opacity:1;stroke:none;stroke-width:7.86491;stroke-linecap:round;stroke-linejoin:round;stroke-dasharray:none"
             d="m 1549.7083,1448.473 c 0,0 28.4754,-37.1677 65.6382,-29.1479 40.0749,8.6482 49.2256,44.971 52.9221,58.7575 0,0 -15.6265,15.9367 -26.3426,13.8258"
             id="path172"
             sodipodi:nodetypes="cscc"
             inkscape:label="EyeShadowSmall7.1" /></g></g></g><g
       id="g32"
       style="display:inline"
       transform="matrix(4.0584835,0,0,4.0584835,2453.3827,470.92762)"
       inkscape:label="Eye7"><g
         id="g14"
         inkscape:label="EyeShape"
         transform="matrix(0.89997468,0,0,0.89997468,17.791224,-953.04721)"><g
           id="g170"
           inkscape:label="MakeUpHard7"
           style="display:inline"
           transform="translate(3.4119917e-6)"><path
             style="display:inline;fill:#ffffff;fill-opacity:1;stroke:none;stroke-width:28.3357;stroke-linecap:round;stroke-linejoin:round;stroke-dasharray:none"
             d="m 325.12358,1409.0682 c 0,0 102.59116,-133.9078 236.48127,-105.0141 144.38183,31.1577 177.34996,162.0215 190.66771,211.6915 0,0 -56.29914,57.4167 -94.9071,49.8116"
             id="path169"
             sodipodi:nodetypes="cscc"
             inkscape:label="EyeShadowSmall7" /></g></g></g><g
       id="layer8"
       transform="matrix(4.0584835,0,0,4.0584835,-3611.5519,2147.8085)"
       style="display:inline"
       inkscape:label="Eye8"><g
         id="g15"
         inkscape:label="EyeShape"
         transform="matrix(3.6782584,0,0,3.6782584,-1713.4368,-6753.3164)"><g
           id="g168"
           inkscape:label="MakeUpHard8"
           style="display:inline"
           transform="translate(-1.2665466e-6,-2.815624e-5)"><path
             style="display:inline;fill:#ffffff;fill-opacity:1;stroke:none;stroke-width:6.93321;stroke-linecap:round;stroke-linejoin:round;stroke-dasharray:none"
             d="m 648.08761,1940.3763 c 6.73167,-7.5892 2.41571,-21.8104 2.41571,-21.8104 -49.11013,16.4334 -69.89849,17.9776 -106.32872,20.4854 0,0 38.35449,26.5151 103.91301,1.325 z"
             id="path167"
             sodipodi:nodetypes="cscc"
             inkscape:label="EyeShadowSmall8" /></g></g></g><g
       id="layer9"
       transform="matrix(4.0584835,0,0,4.0584835,-1563.5519,2147.8085)"
       style="display:inline"
       inkscape:label="Eye9"><g
         id="g18"
         inkscape:label="EyeShape"
         transform="matrix(3.7342604,0,0,3.7342604,-3653.9332,-6893.014)"><g
           id="g166"
           inkscape:label="MakeUpHard9"
           style="display:inline"
           transform="translate(-6.4463873e-6)"><path
             style="display:inline;fill:#ffffff;fill-opacity:1;stroke:none;stroke-width:6.82923;stroke-linecap:round;stroke-linejoin:round;stroke-dasharray:none"
             d="m 1052.9127,1965.3775 c 0,0 -1.0833,-36.6833 43.2644,-42.6157 38.5738,-5.1599 60.9758,17.1351 66.5088,25.4609 0,0 -9.186,18.0389 -21.3596,20.8114"
             id="path165"
             sodipodi:nodetypes="cscc"
             inkscape:label="EyeShadowSmall9" /></g></g></g><g
       id="layer10"
       transform="matrix(4.0584835,0,0,4.0584835,636.44809,1883.8085)"
       style="display:inline"
       inkscape:label="Eye10"><g
         id="g105"
         inkscape:label="EyeShape"
         transform="matrix(0.90000005,0,0,0.90000005,7.5419511,106.16058)"><g
           id="g164"
           inkscape:label="MakeUpHard10"
           style="display:inline"
           transform="translate(7.091549e-6,1.0326673e-5)"><path
             style="display:inline;fill:#ffffff;fill-opacity:1;stroke:none;stroke-width:28.3357;stroke-linecap:round;stroke-linejoin:round;stroke-dasharray:none"
             d="m 307.61923,420.27175 c 0,0 67.28768,-99.93675 186.48086,-116.88524 159.86706,-22.73205 195.85224,19.52471 239.71716,57.55451 0,0 -24.17601,44.18225 -60.05118,59.17043"
             id="path163"
             sodipodi:nodetypes="cscc"
             inkscape:label="EyeShadowSmall10" /></g></g></g></g><g
     id="layer11"
     inkscape:label="layer11"><rect
       style="opacity:0.506608;fill:none;fill-opacity:1;stroke-width:35;stroke-linecap:round;stroke-linejoin:round;stroke-dasharray:none"
       id="rect67"
       width="100"
       height="100"
       x="0"
       y="0" /><rect
       style="opacity:0.506608;fill:none;fill-opacity:1;stroke-width:35;stroke-linecap:round;stroke-linejoin:round;stroke-dasharray:none"
       id="rect68"
       width="100"
       height="100"
       x="8092"
       y="0" /><rect
       style="opacity:0.506608;fill:none;fill-opacity:1;stroke-width:35;stroke-linecap:round;stroke-linejoin:round;stroke-dasharray:none"
       id="rect69"
       width="100"
       height="100"
       x="8092"
       y="8092" /><rect
       style="opacity:0.506608;fill:none;fill-opacity:1;stroke-width:35;stroke-linecap:round;stroke-linejoin:round;stroke-dasharray:none"
       id="rect70"
       width="100"
       height="100"
       x="0"
       y="8092" /></g></svg>
