<?xml version="1.0" encoding="UTF-8" standalone="no"?>
<!-- Created with Inkscape (http://www.inkscape.org/) -->

<svg
   version="1.1"
   id="svg1"
   width="8192"
   height="8192"
   viewBox="0 0 8192 8192"
   xml:space="preserve"
   sodipodi:docname="MakeupEyelinerSheet.svg"
   inkscape:export-filename="..\FinalFacialFeatures\OffCourseSeperateEyes.svg"
   inkscape:export-xdpi="96"
   inkscape:export-ydpi="96"
   inkscape:version="1.3.2 (091e20e, 2023-11-25, custom)"
   xmlns:inkscape="http://www.inkscape.org/namespaces/inkscape"
   xmlns:sodipodi="http://sodipodi.sourceforge.net/DTD/sodipodi-0.dtd"
   xmlns="http://www.w3.org/2000/svg"
   xmlns:svg="http://www.w3.org/2000/svg"><sodipodi:namedview
     id="namedview1"
     pagecolor="#ffffff"
     bordercolor="#999999"
     borderopacity="1"
     inkscape:showpageshadow="2"
     inkscape:pageopacity="0"
     inkscape:pagecheckerboard="0"
     inkscape:deskcolor="#d1d1d1"
     inkscape:zoom="0.08"
     inkscape:cx="1425"
     inkscape:cy="4818.75"
     inkscape:window-width="2400"
     inkscape:window-height="1261"
     inkscape:window-x="2391"
     inkscape:window-y="-9"
     inkscape:window-maximized="1"
     inkscape:current-layer="svg1" /><defs
     id="defs1"><linearGradient
       id="swatch53"><stop
         style="stop-color:#ff6981;stop-opacity:1;"
         offset="0"
         id="stop53" /></linearGradient></defs><g
     id="g16"
     transform="translate(2639.9946,3309.8991)"><g
       id="layer1"
       transform="matrix(4.0541432,0,0,4.0683776,-3621.5837,-4003.7547)"
       inkscape:label="Eye1.1"
       style="display:inline"><g
         id="g1"
         inkscape:label="EyeShape"
         transform="matrix(2.8700192,0,0,2.8700191,-1261.7422,-845.44998)"><path
           style="fill:#ffffff;fill-opacity:1;stroke:#ffffff;stroke-width:20;stroke-linecap:round;stroke-linejoin:round;stroke-opacity:1"
           d="m -2399.1363,-2180.738 c 0,0 159.0989,-464.0388 680.5902,-464.0388 583.3631,0 744.67181,450.7806 755.72041,508.233 0,0 -30.93594,53.033 -128.16311,66.2913"
           id="path2"
           transform="matrix(0.08594411,0,0,0.08564341,750.88227,637.47513)"
           sodipodi:nodetypes="cscc"
           inkscape:label="EyeLineNoWing1.1" /></g></g><g
       id="g3"
       transform="matrix(3.664552,0,0,3.664552,-1522.5474,-3379.7591)"
       style="display:inline"
       inkscape:label="Eye1"><g
         id="g2"
         inkscape:label="Eyeshape"><path
           style="display:inline;fill:#ffffff;fill-opacity:1;stroke:#ffffff;stroke-width:5.45769;stroke-linecap:round;stroke-linejoin:round;stroke-opacity:1"
           d="m 319.66003,327.19449 c 0,0 43.41565,-126.62906 185.72262,-126.62906 159.19083,0 203.2095,123.0111 206.2245,138.68898 0,0 -8.44195,14.47189 -34.97375,18.08988"
           id="path14"
           sodipodi:nodetypes="cscc"
           inkscape:label="EyeLineNoWing1" /></g></g><g
       id="layer2"
       transform="matrix(4.0584835,0,0,4.0584835,484.4489,-3996.1917)"
       style="display:inline"
       inkscape:label="Eye2.1"><g
         id="g4"
         inkscape:label="EyeShape"
         transform="matrix(2.940563,0,0,2.940563,-4244.4654,-867.00516)"
         style="display:inline"><path
           style="display:inline;fill:#ffffff;fill-opacity:1;stroke:#ffffff;stroke-width:1.67585;stroke-linecap:round;stroke-linejoin:round;stroke-opacity:1"
           d="m 1550.6007,451.50914 c 0,0 8.6323,-34.7191 45.9298,-43.16563 42.4819,-9.62065 71.2494,20.08007 73.0459,24.64132 0,0 -1.7295,4.84515 -9.5324,7.43743"
           id="path18"
           sodipodi:nodetypes="cscc"
           inkscape:label="EyeLineNoWing2.1" /></g></g><g
       id="g9"
       transform="matrix(4.0584835,0,0,4.0584835,2523.1947,-3643.2125)"
       style="display:inline"
       inkscape:label="Eye2"><g
         id="g5"
         inkscape:label="EyeShape"
         transform="matrix(2.964012,0,0,2.964012,-5780.4034,-706.50899)"><path
           style="display:inline;fill:#ffffff;fill-opacity:1;stroke:#ffffff;stroke-width:1.66259;stroke-linecap:round;stroke-linejoin:round;stroke-opacity:1"
           d="m 2057.2984,364.44579 c 0,0 8.564,-34.44443 45.5664,-42.82414 42.1458,-9.54454 70.6858,19.92121 72.468,24.44638 0,0 -1.7158,4.80682 -9.4569,7.37859"
           id="path20"
           sodipodi:nodetypes="cscc"
           inkscape:label="EyeLineNoWing2" /></g></g><g
       id="layer3"
       transform="matrix(14.804899,0,0,14.804899,-8501.8445,-6902.634)"
       style="display:inline"
       inkscape:label="Eye3"><g
         id="g6"
         inkscape:label="EyeShape"
         transform="matrix(0.89999987,0,0,0.89999987,-79.35584,-399.08319)"><path
           style="display:inline;fill:#ffffff;fill-opacity:1;stroke:#ffffff;stroke-width:1.501;stroke-linecap:round;stroke-linejoin:round;stroke-opacity:1"
           d="m 546.18291,951.50822 c 0,0 1.44995,-33.04948 50.91262,-37.31381 43.75752,-3.77246 55.0586,29.68521 55.8878,33.99703 0,0 -3.8143,5.14102 -9.61867,8.78948"
           id="path21"
           sodipodi:nodetypes="cscc"
           inkscape:label="EyeLineNoWing3" /></g></g><g
       id="layer4"
       transform="matrix(4.0584835,0,0,4.0584835,-1563.5511,-1948.1915)"
       style="display:inline"
       inkscape:label="Eye4"><g
         id="g104"
         inkscape:label="EyeShape"
         transform="matrix(0.90000003,0,0,0.90000003,17.167976,57.195102)"><path
           style="display:inline;fill:#ffffff;fill-opacity:1;stroke:#ffffff;stroke-width:5.47548;stroke-linecap:round;stroke-linejoin:round;stroke-opacity:1"
           d="m 415.091,403.95932 c 0,0 15.25808,-84.28906 89.04679,-79.00888 69.88376,5.00075 86.41828,43.69456 99.49578,74.60956 0,0 -5.35868,16.82889 -21.39909,24.36312"
           id="path22"
           sodipodi:nodetypes="cscc"
           inkscape:label="EyeLineNoWing4" /></g></g><g
       id="g17"
       transform="matrix(4.0584835,0,0,4.0584835,484.44809,-1948.1915)"
       style="display:inline"
       inkscape:label="Eye4.1"><g
         id="g7"
         inkscape:label="EyeShape"
         transform="matrix(3.4645779,0,0,3.4645779,-5092.1255,-2852.1363)"><path
           style="display:inline;fill:#ffffff;fill-opacity:1;stroke:#ffffff;stroke-width:1.42238;stroke-linecap:round;stroke-linejoin:round;stroke-opacity:1"
           d="m 1582.5523,944.67347 c 0,0 3.9636,-21.89593 23.1319,-20.52429 18.1538,1.29905 22.449,11.35062 25.8462,19.38147 0,0 -1.3921,4.37167 -5.5589,6.32885"
           id="path35"
           sodipodi:nodetypes="cscc"
           inkscape:label="EyeLineNoWing4.1" /></g></g><g
       id="layer6"
       transform="matrix(4.0584835,0,0,4.0584835,2532.4481,-1948.1915)"
       style="display:inline"
       inkscape:label="Eye5"><g
         id="g8"
         inkscape:label="EyeShape"
         transform="matrix(0.90000006,0,0,0.90000006,34.402241,87.891189)"><path
           style="display:inline;fill:#ffffff;fill-opacity:1;stroke:#ffffff;stroke-width:5.4755;stroke-linecap:round;stroke-linejoin:round;stroke-opacity:1"
           d="m 342.47022,341.19161 c 0,0 23.81347,-103.96663 149.79078,-104.24751 70.06213,-0.15621 108.66233,63.37213 129.43987,109.68697 0,0 -4.07561,9.55674 -24.39357,17.51874"
           id="path52"
           sodipodi:nodetypes="cscc"
           inkscape:label="EyeLineNoWing5" /></g></g><g
       id="layer5"
       transform="matrix(4.0584835,0,0,4.0584835,-3611.5519,99.808523)"
       style="display:inline"
       inkscape:label="Eye6"><g
         id="g10"
         inkscape:label="EyeShape"
         transform="matrix(3.1760874,0,0,3.1760874,-1439.8748,-4182.1102)"><path
           style="display:inline;fill:#ffffff;fill-opacity:1;stroke:#ffffff;stroke-width:1.55157;stroke-linecap:round;stroke-linejoin:round;stroke-opacity:1"
           d="m 549.22477,1464.7419 c 0,0 3.64914,-37.4929 50.68856,-40.0257 34.55581,-1.8607 47.16589,35.3828 50.13415,46.052 0,0 -1.0336,2.2839 -8.00328,7.025"
           id="path72"
           sodipodi:nodetypes="cscc"
           inkscape:label="EyeLineNoWing6" /></g></g><g
       id="g21"
       transform="matrix(4.0584835,0,0,4.0584835,-1564.213,-239.62023)"
       style="display:inline"
       inkscape:label="Eye6.1"><g
         id="g11"
         inkscape:label="EyeShape"
         transform="matrix(3.1384939,0,0,3.1384939,-3003.6169,-4306.4652)"><path
           style="display:inline;fill:#ffffff;fill-opacity:1;stroke:#ffffff;stroke-width:1.57016;stroke-linecap:round;stroke-linejoin:round;stroke-opacity:1"
           d="m 1054.1799,1548.5573 c 0,0 3.6929,-37.942 51.2957,-40.5052 34.9698,-1.8829 47.7309,35.8067 50.7347,46.6037 0,0 -1.046,2.3112 -8.0991,7.1091"
           id="path91"
           sodipodi:nodetypes="cscc"
           inkscape:label="EyeLineNoWing6.1" /></g></g><g
       id="layer7"
       style="display:inline"
       transform="matrix(4.0584835,0,0,4.0584835,484.44809,99.808523)"
       inkscape:label="Eye7.1"><g
         id="g12"
         inkscape:label="EyeShape"
         transform="matrix(3.2425193,0,0,3.2425193,-4734.0581,-4290.2141)"><path
           style="display:inline;fill:#ffffff;fill-opacity:1;stroke:#ffffff;stroke-width:1.51979;stroke-linecap:round;stroke-linejoin:round;stroke-opacity:1"
           d="m 1552.2971,1457.3164 c 0,0 13.1158,-38.4572 61.1,-29.4662 36.377,6.8161 43.5692,46.5198 44.198,57.3491 0,0 -4.633,4.8385 -13.1698,5.7906"
           id="path94"
           sodipodi:nodetypes="cscc"
           inkscape:label="EyeLineNoWing7.1" /></g></g><g
       id="g32"
       style="display:inline"
       transform="matrix(4.0584835,0,0,4.0584835,2453.3827,470.92762)"
       inkscape:label="Eye7"><g
         id="g14"
         inkscape:label="EyeShape"
         transform="matrix(0.89997468,0,0,0.89997468,17.791224,-953.04721)"><path
           style="display:inline;fill:#ffffff;fill-opacity:1;stroke:#ffffff;stroke-width:5.47565;stroke-linecap:round;stroke-linejoin:round;stroke-opacity:1"
           d="m 334.43764,1440.8925 c 0,0 47.25492,-138.5574 220.13723,-106.1638 131.06271,24.5578 156.97549,167.6063 159.241,206.6231 0,0 -16.69224,17.4327 -47.44948,20.863"
           id="path99"
           sodipodi:nodetypes="cscc"
           inkscape:label="EyeLineNoWing7" /></g></g><g
       id="layer8"
       transform="matrix(4.0584835,0,0,4.0584835,-3611.5519,2147.8085)"
       style="display:inline"
       inkscape:label="Eye8"><g
         id="g15"
         inkscape:label="EyeShape"
         transform="matrix(3.6782584,0,0,3.6782584,-1713.4368,-6753.3164)"><path
           style="display:inline;fill:#ffffff;fill-opacity:1;stroke:#ffffff;stroke-width:1.33974;stroke-linecap:round;stroke-linejoin:round;stroke-opacity:1"
           d="m 549.34771,1944.1198 c 0,0 20.85755,-6.6035 67.0734,-9.8749 27.58399,-1.9526 30.56602,-1.9888 37.3107,1.4508 0,0 -0.78148,4.1555 -4.39425,7.3982"
           id="path104"
           sodipodi:nodetypes="cscc"
           inkscape:label="EyeLineNoWing8" /></g></g><g
       id="layer9"
       transform="matrix(4.0584835,0,0,4.0584835,-1563.5519,2147.8085)"
       style="display:inline"
       inkscape:label="Eye9"><g
         id="g18"
         inkscape:label="EyeShape"
         transform="matrix(3.7342604,0,0,3.7342604,-3653.9332,-6893.014)"><path
           style="display:inline;fill:#ffffff;fill-opacity:1;stroke:#ffffff;stroke-width:1.31966;stroke-linecap:round;stroke-linejoin:round;stroke-opacity:1"
           d="m 1056.4595,1950.5223 c 0,0 9.5201,-24.0534 52.2933,-22.5379 30.768,1.0901 43.4419,28.7917 44.4199,39.2065 0,0 -4.1783,3.2826 -9.7968,3.1912"
           id="path105"
           sodipodi:nodetypes="cscc"
           inkscape:label="EyeLineNoWing9" /></g></g><g
       id="layer10"
       transform="matrix(4.0584835,0,0,4.0584835,636.44809,1883.8085)"
       style="display:inline"
       inkscape:label="Eye10"><g
         id="g105"
         inkscape:label="EyeShape"
         transform="matrix(0.90000005,0,0,0.90000005,7.5419511,106.16058)"><path
           style="display:inline;fill:#ffffff;fill-opacity:1;stroke:#ffffff;stroke-width:5.47546;stroke-linecap:round;stroke-linejoin:round;stroke-opacity:1"
           d="m 310.40251,413.70694 c 0,0 17.18551,-37.27257 206.06754,-50.64263 112.73449,-7.98018 161.21968,18.18776 188.78487,32.24525 0,0 -4.4038,10.63122 -19.16903,23.88399"
           id="path106"
           sodipodi:nodetypes="cscc"
           inkscape:label="EyeLineNoWing10" /></g></g></g><g
     id="layer11"
     inkscape:label="layer11"><rect
       style="opacity:0.506608;fill:none;fill-opacity:1;stroke-width:35;stroke-linecap:round;stroke-linejoin:round;stroke-dasharray:none"
       id="rect67"
       width="100"
       height="100"
       x="0"
       y="0" /><rect
       style="opacity:0.506608;fill:none;fill-opacity:1;stroke-width:35;stroke-linecap:round;stroke-linejoin:round;stroke-dasharray:none"
       id="rect68"
       width="100"
       height="100"
       x="8092"
       y="0" /><rect
       style="opacity:0.506608;fill:none;fill-opacity:1;stroke-width:35;stroke-linecap:round;stroke-linejoin:round;stroke-dasharray:none"
       id="rect69"
       width="100"
       height="100"
       x="8092"
       y="8092" /><rect
       style="opacity:0.506608;fill:none;fill-opacity:1;stroke-width:35;stroke-linecap:round;stroke-linejoin:round;stroke-dasharray:none"
       id="rect70"
       width="100"
       height="100"
       x="0"
       y="8092" /></g></svg>
