<?xml version="1.0" encoding="UTF-8" standalone="no"?>
<!-- Created with Inkscape (http://www.inkscape.org/) -->

<svg
   version="1.1"
   id="svg1"
   width="8192"
   height="6144"
   viewBox="0 0 8192 6144"
   xml:space="preserve"
   sodipodi:docname="OffCourseMouths.svg"
   inkscape:export-filename="OffCourseMouths.svg"
   inkscape:export-xdpi="96"
   inkscape:export-ydpi="96"
   inkscape:version="1.3.2 (091e20e, 2023-11-25, custom)"
   xmlns:inkscape="http://www.inkscape.org/namespaces/inkscape"
   xmlns:sodipodi="http://sodipodi.sourceforge.net/DTD/sodipodi-0.dtd"
   xmlns="http://www.w3.org/2000/svg"
   xmlns:svg="http://www.w3.org/2000/svg"><sodipodi:namedview
     id="namedview1"
     pagecolor="#ffffff"
     bordercolor="#999999"
     borderopacity="1"
     inkscape:showpageshadow="2"
     inkscape:pageopacity="0"
     inkscape:pagecheckerboard="0"
     inkscape:deskcolor="#d1d1d1"
     inkscape:zoom="0.12182617"
     inkscape:cx="4814.2366"
     inkscape:cy="3172.5532"
     inkscape:window-width="1920"
     inkscape:window-height="991"
     inkscape:window-x="-9"
     inkscape:window-y="-9"
     inkscape:window-maximized="1"
     inkscape:current-layer="svg1" /><defs
     id="defs1"><linearGradient
       id="swatch53"><stop
         style="stop-color:#ff6981;stop-opacity:1;"
         offset="0"
         id="stop53" /></linearGradient></defs><g
     id="g2"
     transform="matrix(9.390065,0,0,9.390065,-1805.5139,-3652.647)"><g
       id="layer18"
       transform="matrix(1.3305514,0,0,0.96902981,-80.774321,78.426694)"
       style="fill:#000000;fill-opacity:1"><circle
         style="fill:#000000;fill-opacity:1;stroke:#000000;stroke-width:7.55906;stroke-linecap:round;stroke-linejoin:round;stroke-dasharray:none"
         id="path46"
         cx="287.17786"
         cy="433.02625"
         r="24.794252" /></g><g
       id="layer19"
       transform="matrix(0.96949478,0,0,0.96949478,242.02292,17.640674)"
       style="display:inline"><path
         style="display:inline;fill:#ff6981;fill-opacity:1;stroke:#ff6981;stroke-width:6.80627;stroke-linecap:round;stroke-linejoin:round;stroke-dasharray:none;stroke-opacity:1"
         d="m 224.12463,484.17458 c 11.06823,0.81561 24.57798,-6.36184 39.55265,-10.11368 14.97467,-3.75183 21.81111,7.66682 21.81111,7.66682 0,0 6.83643,-11.41865 21.8111,-7.66682 14.97466,3.75184 28.48442,10.92929 39.55265,10.11368 m 0,0 c 0,0 -23.60137,33.76658 -61.36375,35.07157 -37.76238,-1.30499 -61.36376,-35.07157 -61.36376,-35.07157"
         id="path51" /><path
         style="display:inline;fill:none;stroke:#000000;stroke-width:6.80627;stroke-linecap:round;stroke-linejoin:round;stroke-dasharray:none"
         d="m 214.84684,479.11774 c 0,0 71.94352,44.20649 142.58488,0"
         id="path49" /></g><g
       id="layer20"
       style="display:inline"
       transform="matrix(0.96949478,0,0,0.96949478,24.343379,17.640674)"><path
         style="fill:none;fill-opacity:1;stroke:#000000;stroke-width:6.80984;stroke-linecap:round;stroke-linejoin:round;stroke-dasharray:none;stroke-opacity:1"
         d="m 680.05099,481.45655 c 0,0 17.1466,16.2832 55.46754,18.01546 38.32092,-1.73226 55.69769,-18.01546 55.69769,-18.01546"
         id="path52" /></g><g
       id="layer21"
       transform="matrix(0.96949478,0,0,0.96949478,552.62308,72.635091)"
       style="display:inline"><path
         style="fill:#ff6981;fill-opacity:1;stroke:none;stroke-width:6.80163;stroke-linecap:round;stroke-linejoin:round;stroke-dasharray:none;stroke-opacity:1"
         d="m 355.43018,428.90947 c 0,0 15.40342,36.35591 60.38208,36.35591 45.94605,0 60.38208,-36.35591 60.38208,-36.35591 0,0 -7.60538,-22.54988 -60.38208,-17.94786 -52.77669,-4.60202 -60.38208,17.94786 -60.38208,17.94786 z"
         id="path59" /><path
         style="fill:none;fill-opacity:1;stroke:#000000;stroke-width:6.80163;stroke-linecap:round;stroke-linejoin:round;stroke-dasharray:none;stroke-opacity:1"
         d="m 488.63947,425.68805 c 0,0 -26.04264,13.34584 -72.94245,13.11575 -46.89981,0.23009 -72.94245,-13.11575 -72.94245,-13.11575"
         id="path61" /></g><g
       id="layer22"
       transform="matrix(0.96968816,0,0,0.96910393,-134.94114,231.07803)"
       style="display:inline"><path
         style="fill:none;fill-opacity:1;stroke:#000000;stroke-width:6.80315;stroke-linecap:round;stroke-linejoin:round;stroke-dasharray:none;stroke-opacity:1"
         d="m 397.16266,476.78987 c 2.07301,5.6432 -0.11516,9.55888 -0.11516,9.55888 0,0 -2.64885,4.72186 -8.75272,6.56454"
         id="path63" /><path
         style="fill:none;fill-opacity:1;stroke:#000000;stroke-width:6.80315;stroke-linecap:round;stroke-linejoin:round;stroke-dasharray:none;stroke-opacity:1"
         d="m 502.31044,486.57909 c 0,0 -10.59524,16.81443 -52.40114,16.81443 -41.00103,0 -52.40114,-16.81443 -52.40114,-16.81443"
         id="path64" /><path
         style="fill:none;fill-opacity:1;stroke:#000000;stroke-width:6.80315;stroke-linecap:round;stroke-linejoin:round;stroke-dasharray:none;stroke-opacity:1"
         d="m 502.65594,476.78987 c -2.07301,5.6432 0.11516,9.55888 0.11516,9.55888 0,0 2.64885,4.72186 8.75272,6.56454"
         id="path65" /></g><g
       id="g66"
       style="display:inline"
       transform="matrix(0.96949478,0,0,0.96949478,287.80359,-104.03092)"><path
         style="fill:none;fill-opacity:1;stroke:#000000;stroke-width:6.80984;stroke-linecap:round;stroke-linejoin:round;stroke-dasharray:none;stroke-opacity:1"
         d="m 183.3355,866.30461 c 0,0 17.1466,-16.2832 55.46754,-18.01546 38.32092,1.73226 55.69769,18.01546 55.69769,18.01546"
         id="path66" /></g><g
       id="layer23"
       transform="matrix(0.96949478,0,0,0.96949478,24.343379,17.640674)"
       style="display:inline"><path
         style="display:inline;fill:#ffffff;fill-opacity:1;stroke:#ffffff;stroke-width:2.1969285;stroke-linecap:round;stroke-linejoin:round;stroke-dasharray:none;stroke-opacity:1"
         d="m 735.6336,724.69575 c -43.81408,-0.87577 -72.94014,-24.6466 -72.94014,-24.6466 v 0 c 0,0 17.00062,56.54955 72.94014,55.79889 55.93952,0.75066 72.94014,-55.79889 72.94014,-55.79889 v 0 c 0,0 -29.12606,23.77083 -72.94014,24.6466"
         id="path3"
         transform="translate(-1.2225506e-6)"
         sodipodi:nodetypes="ccccccc" /><path
         style="display:inline;fill:none;fill-opacity:1;stroke:#000000;stroke-width:6.80626;stroke-linecap:round;stroke-linejoin:round;stroke-dasharray:none;stroke-opacity:1"
         d="m 662.69346,700.04915 c 0,0 17.00062,56.54955 73.50266,55.79889"
         id="path68"
         transform="translate(-1.2225506e-6)" /><path
         style="display:inline;fill:none;fill-opacity:1;stroke:#000000;stroke-width:5.67188;stroke-linecap:round;stroke-linejoin:round;stroke-dasharray:none;stroke-opacity:1"
         d="m 662.69346,700.04915 c 0,0 29.12606,40.53552 72.94014,41.41129 43.81408,-0.87577 72.94014,-41.41129 72.94014,-41.41129"
         id="path69" /><path
         style="display:inline;fill:none;fill-opacity:1;stroke:#000000;stroke-width:5.67188;stroke-linecap:round;stroke-linejoin:round;stroke-dasharray:none;stroke-opacity:1"
         d="m 720.19554,723.69487 -6.00021,28.6501"
         id="path70" /><path
         style="display:inline;fill:none;fill-opacity:1;stroke:#000000;stroke-width:5.67188;stroke-linecap:round;stroke-linejoin:round;stroke-dasharray:none;stroke-opacity:1"
         d="m 703.06992,720.56713 -8.00029,22.89506"
         id="path71" /><path
         style="display:inline;fill:none;fill-opacity:1;stroke:#000000;stroke-width:5.67188;stroke-linecap:round;stroke-linejoin:round;stroke-dasharray:none;stroke-opacity:1"
         d="m 687.69437,715.56275 -7.75028,13.38673"
         id="path72" /><path
         style="display:inline;fill:none;fill-opacity:1;stroke:#000000;stroke-width:6.80626;stroke-linecap:round;stroke-linejoin:round;stroke-dasharray:none;stroke-opacity:1"
         d="m 808.57374,700.04915 c 0,0 -29.12606,23.77083 -72.94014,24.6466 -43.81408,-0.87577 -72.94014,-24.6466 -72.94014,-24.6466"
         id="path73" /><path
         style="display:inline;fill:none;fill-opacity:1;stroke:#000000;stroke-width:6.80626;stroke-linecap:round;stroke-linejoin:round;stroke-dasharray:none;stroke-opacity:1"
         d="m 808.57374,700.04915 c 0,0 -17.00062,56.54955 -73.50266,55.79889"
         id="path74" /><path
         style="display:inline;fill:none;fill-opacity:1;stroke:#000000;stroke-width:5.67188;stroke-linecap:round;stroke-linejoin:round;stroke-dasharray:none;stroke-opacity:1"
         d="m 751.07166,723.69487 6.00022,28.6501"
         id="path76" /><path
         style="display:inline;fill:none;fill-opacity:1;stroke:#000000;stroke-width:5.67188;stroke-linecap:round;stroke-linejoin:round;stroke-dasharray:none;stroke-opacity:1"
         d="m 768.19728,720.56713 8.00029,22.89506"
         id="path77" /><path
         style="display:inline;fill:none;fill-opacity:1;stroke:#000000;stroke-width:5.67188;stroke-linecap:round;stroke-linejoin:round;stroke-dasharray:none;stroke-opacity:1"
         d="m 783.57283,715.56275 7.75028,13.38673"
         id="path78" /><path
         style="display:inline;fill:none;fill-opacity:1;stroke:#000000;stroke-width:6.33741;stroke-linecap:round;stroke-linejoin:round;stroke-dasharray:none;stroke-opacity:1"
         d="m 735.6948,727.05709 v 25.70669"
         id="path79" /></g><g
       id="layer24"
       style="display:inline"
       transform="matrix(0.96949478,0,0,0.96949478,24.343379,17.640674)"><path
         style="display:inline;fill:#000000;fill-opacity:1;stroke:#000000;stroke-width:6.79981;stroke-linecap:round;stroke-linejoin:round;stroke-dasharray:none;stroke-opacity:1"
         d="m 892.70865,700.26562 c 0,0 20.23183,25.61765 67.89044,25.61765 47.65471,0 67.89041,-25.61765 67.89041,-25.61765 0,0 -11.8645,59.10804 -67.89041,59.10804 -55.64908,0 -67.89044,-59.10804 -67.89044,-59.10804 z"
         id="path80" /><path
         style="display:inline;fill:#ffffff;fill-opacity:1;stroke:#000000;stroke-width:4.5332;stroke-linecap:round;stroke-linejoin:round;stroke-dasharray:none;stroke-opacity:1"
         d="m 1014.9989,712.63707 -2.3733,8.74749 c 0,0 -13.11408,17.37002 -52.02651,17.37002 -36.41425,0 -52.02646,-17.37002 -52.02646,-17.37002 l -2.37335,-8.74749 c 0,0 49.40567,29.06492 108.79962,0 z"
         id="path81" /><path
         style="display:inline;fill:none;fill-opacity:1;stroke:#000000;stroke-width:6.79981;stroke-linecap:round;stroke-linejoin:round;stroke-dasharray:none;stroke-opacity:1"
         d="m 892.70865,700.26562 c 0,0 20.23183,25.61765 67.89044,25.61765 47.65471,0 67.89041,-25.61765 67.89041,-25.61765"
         id="path1" /></g><g
       id="layer25"
       transform="matrix(0.96949478,0,0,0.96949478,24.343379,17.640674)"
       style="display:inline"><path
         style="fill:none;fill-opacity:1;stroke:#000000;stroke-width:6.80617;stroke-linecap:round;stroke-linejoin:round;stroke-dasharray:none;stroke-opacity:1"
         d="m 346.77942,935.12045 c 0,0 -28.10769,25.83213 -61.07678,1.41548 -32.96908,24.41665 -61.07677,-1.41548 -61.07677,-1.41548"
         id="path84" /></g><g
       id="layer26"
       transform="matrix(0.96949478,0,0,0.96949478,24.343379,17.640674)"
       style="display:inline"><path
         style="fill:none;fill-opacity:1;stroke:#000000;stroke-width:6.79717;stroke-linecap:round;stroke-linejoin:round;stroke-dasharray:none;stroke-opacity:1"
         d="m 489.02172,947.97744 h 39.67343 c 0,0 28.35926,0.99793 46.23978,-23.07721"
         id="path85" /></g><g
       id="layer27"
       transform="matrix(0.96945382,0,0,0.96949478,52.357065,400.96607)"
       style="display:inline"><path
         style="fill:none;fill-opacity:1;stroke:#000000;stroke-width:6.81061;stroke-linecap:round;stroke-linejoin:round;stroke-dasharray:none;stroke-opacity:1"
         d="m 660.19139,552.8075 h 93.15388"
         id="path86" /></g></g><g
     id="layer1"
     style="display:inline"><rect
       style="opacity:0.517621;fill:none;fill-opacity:1;stroke-width:62;stroke-linecap:round;stroke-linejoin:round"
       id="rect1"
       width="100"
       height="100"
       x="0"
       y="0" /><rect
       style="opacity:0.517621;fill:none;fill-opacity:1;stroke-width:62;stroke-linecap:round;stroke-linejoin:round"
       id="rect2"
       width="100"
       height="100"
       x="8092"
       y="0" /><rect
       style="opacity:0.517621;fill:none;fill-opacity:1;stroke-width:62;stroke-linecap:round;stroke-linejoin:round"
       id="rect3"
       width="100"
       height="100"
       x="8092"
       y="6044" /><rect
       style="opacity:0.517621;fill:none;fill-opacity:1;stroke-width:62;stroke-linecap:round;stroke-linejoin:round"
       id="rect4"
       width="100"
       height="100"
       x="0"
       y="6044" /></g></svg>
