<?xml version="1.0" encoding="UTF-8" standalone="no"?>
<!-- Created with Inkscape (http://www.inkscape.org/) -->

<svg
   version="1.1"
   id="svg1"
   width="8192"
   height="8192"
   viewBox="0 0 8192 8192"
   xml:space="preserve"
   sodipodi:docname="EyeMakeUpSketch.svg"
   inkscape:export-filename="..\FinalFacialFeatures\OffCourseSeperateEyes.svg"
   inkscape:export-xdpi="96"
   inkscape:export-ydpi="96"
   inkscape:version="1.3.2 (091e20e, 2023-11-25, custom)"
   xmlns:inkscape="http://www.inkscape.org/namespaces/inkscape"
   xmlns:sodipodi="http://sodipodi.sourceforge.net/DTD/sodipodi-0.dtd"
   xmlns="http://www.w3.org/2000/svg"
   xmlns:svg="http://www.w3.org/2000/svg"><sodipodi:namedview
     id="namedview1"
     pagecolor="#ffffff"
     bordercolor="#999999"
     borderopacity="1"
     inkscape:showpageshadow="2"
     inkscape:pageopacity="0"
     inkscape:pagecheckerboard="0"
     inkscape:deskcolor="#d1d1d1"
     inkscape:zoom="0.056568543"
     inkscape:cx="-247.48737"
     inkscape:cy="5683.3708"
     inkscape:window-width="2400"
     inkscape:window-height="1261"
     inkscape:window-x="2391"
     inkscape:window-y="-9"
     inkscape:window-maximized="1"
     inkscape:current-layer="g105" /><defs
     id="defs1" /><g
     id="g16"
     transform="translate(2639.9946,3309.8991)"><g
       id="layer1"
       transform="matrix(4.0541432,0,0,4.0683776,-3621.5837,-4003.7547)"
       inkscape:label="Eye1.1"
       style="display:inline"><g
         id="g1"
         inkscape:label="EyeShape"
         transform="matrix(2.8700192,0,0,2.8700191,-1261.7422,-845.44998)"><path
           style="display:inline;fill:#ffffff;fill-opacity:1;stroke:#ffffff;stroke-width:4.92865;stroke-linecap:round;stroke-linejoin:round;stroke-dasharray:none;stroke-opacity:1;paint-order:normal"
           d="m 578.08097,481.64339 c -26.88806,-6.6852 -35.03594,-27.22993 -35.03594,-27.22993 0,0 19.88086,-38.31755 61.76105,-36.52395 41.88019,1.79357 51.00583,42.39388 51.00583,42.39388 0,0 -13.68846,18.91419 -38.78399,22.66443 0,0 -22.84778,2.9052 -38.94695,-1.30443 z"
           id="path69" /><path
           style="display:inline;fill:none;fill-opacity:1;stroke:#000000;stroke-width:8.69572;stroke-linecap:round;stroke-linejoin:round;stroke-dasharray:none;stroke-opacity:1;paint-order:normal"
           d="m 577.98325,481.50923 c -26.88245,-6.67988 -35.02863,-27.20829 -35.02863,-27.20829 0,0 19.87671,-38.28712 61.74816,-36.49495 41.87145,1.79216 50.99519,42.36021 50.99519,42.36021 0,0 -13.68561,18.89917 -38.7759,22.64642"
           id="path31" /><ellipse
           style="display:inline;fill:#000000;fill-opacity:1;stroke:#000000;stroke-width:9.28814;stroke-linecap:round;stroke-linejoin:round;stroke-dasharray:none;stroke-opacity:1;paint-order:normal"
           id="ellipse31"
           cx="-597.53412"
           cy="446.96936"
           rx="22.187294"
           ry="22.187296"
           transform="scale(-1,1)" /><path
           style="display:inline;fill:#000000;fill-opacity:1;stroke:#000000;stroke-width:3.02362;stroke-linecap:round;stroke-linejoin:round;stroke-dasharray:none;stroke-opacity:1;paint-order:normal"
           d="m 643.43902,431.32405 c 0,0 13.07149,-1.20926 13.53216,-9.67406 0,0 2.07301,12.09257 -7.88896,18.25402"
           id="path40" /><path
           style="display:inline;fill:#000000;fill-opacity:1;stroke:#000000;stroke-width:2.66391;stroke-linecap:round;stroke-linejoin:round;stroke-dasharray:none;stroke-opacity:1;paint-order:normal"
           d="m 650.91782,443.636 c 0,0 11.60125,-1.0576 12.0101,-8.46083 0,0 1.83985,10.57604 -7.00163,15.96478"
           id="path41" /><path
           style="display:inline;fill:#000000;fill-opacity:1;stroke:#000000;stroke-width:3.02362;stroke-linecap:round;stroke-linejoin:round;stroke-dasharray:none;stroke-opacity:1;paint-order:normal"
           d="m 653.05549,467.83209 c 0,0 4.26119,2.87918 3.22469,8.75271 0,0 -3.45502,-5.41286 -9.15581,-4.5491"
           id="path42" /></g></g><g
       id="g3"
       transform="matrix(3.664552,0,0,3.664552,-1522.5474,-3379.7591)"
       style="display:inline"
       inkscape:label="Eye1"><g
         id="g2"
         inkscape:label="Eyeshape"><path
           style="display:inline;fill:#ffffff;fill-opacity:1;stroke:#ffffff;stroke-width:15.7013;stroke-linecap:round;stroke-linejoin:round;stroke-dasharray:none;stroke-opacity:1;paint-order:normal"
           d="m 426.67522,426.02503 c -85.508,-21.33454 -111.4194,-86.89921 -111.4194,-86.89921 0,0 63.2242,-122.2833 196.4092,-116.55936 133.1853,5.72384 162.2061,135.29216 162.2061,135.29216 0,0 -43.5313,60.36109 -123.3389,72.32926 0,0 -72.6591,9.27141 -123.857,-4.16285 z"
           id="path71" /><path
           style="display:inline;fill:none;fill-opacity:1;stroke:#000000;stroke-width:27.6787;stroke-linecap:round;stroke-linejoin:round;stroke-dasharray:none;stroke-opacity:1;paint-order:normal"
           d="m 425.77272,425.64708 c -85.6392,-21.24444 -111.5904,-86.53218 -111.5904,-86.53218 0,0 63.321,-121.76689 196.7104,-116.06712 133.3895,5.6997 162.4552,134.72078 162.4552,134.72078 0,0 -43.5983,60.10614 -123.5281,72.0238"
           id="path43" /><ellipse
           style="display:inline;fill:#000000;fill-opacity:1;stroke:#000000;stroke-width:29.5644;stroke-linecap:round;stroke-linejoin:round;stroke-dasharray:none;stroke-opacity:1;paint-order:normal"
           id="ellipse43"
           cx="-488.05573"
           cy="315.79779"
           rx="70.681847"
           ry="70.563614"
           transform="scale(-1,1)" /></g></g><g
       id="layer2"
       transform="matrix(4.0584835,0,0,4.0584835,484.4489,-3996.1917)"
       style="display:inline"
       inkscape:label="Eye2.1"><g
         id="g4"
         inkscape:label="EyeShape"
         transform="matrix(2.940563,0,0,2.940563,-4244.4654,-867.00516)"
         style="display:inline"><path
           style="display:inline;fill:#ffffff;fill-opacity:1;stroke:#ffffff;stroke-width:4.92926;stroke-linecap:round;stroke-linejoin:round;stroke-dasharray:none;stroke-opacity:1;paint-order:normal"
           d="m 1549.7317,452.69803 c 0,0 50.203,-73.87292 112.1417,-13.66813 0,0 -7.0089,23.26833 -35.8595,33.51943 0,0 -39.897,14.63411 -76.2822,-19.8513 z"
           id="path73" /><path
           style="display:inline;fill:none;fill-opacity:1;stroke:#000000;stroke-width:8.69218;stroke-linecap:round;stroke-linejoin:round;stroke-dasharray:none;stroke-opacity:1;paint-order:normal"
           d="m 1549.6416,452.6809 c 0,0 50.227,-73.83894 112.1954,-13.66183 0,0 -7.0122,23.25763 -35.8766,33.50401"
           id="path44" /><ellipse
           style="fill:#000000;fill-opacity:1;stroke:#000000;stroke-width:11.0844;stroke-linecap:round;stroke-linejoin:round;stroke-dasharray:none;stroke-opacity:1;paint-order:normal"
           id="ellipse44"
           cx="-1598.5642"
           cy="440.72678"
           rx="21.42037"
           ry="21.363358"
           transform="scale(-1,1)" /><path
           style="fill:#000000;fill-opacity:1;stroke:#000000;stroke-width:3.02254;stroke-linecap:round;stroke-linejoin:round;stroke-dasharray:none;stroke-opacity:1;paint-order:normal"
           d="m 1646.2397,422.40156 c 0,0 6.9167,-2.70187 8.1849,-9.3703 0,0 1.9019,7.12832 -2.9974,13.39435"
           id="path45" /><path
           style="fill:#000000;fill-opacity:1;stroke:#000000;stroke-width:2.5807;stroke-linecap:round;stroke-linejoin:round;stroke-dasharray:none;stroke-opacity:1;paint-order:normal"
           d="m 1654.7407,427.7806 c 0,0 5.9057,-2.30689 6.9884,-8.00052 0,0 1.6241,6.08628 -2.5591,11.43633"
           id="path46" /><path
           style="fill:#000000;fill-opacity:1;stroke:#000000;stroke-width:2.11198;stroke-linecap:round;stroke-linejoin:round;stroke-dasharray:none;stroke-opacity:1;paint-order:normal"
           d="m 1661.2274,434.38735 c 0,0 4.8331,-1.88789 5.7191,-6.54741 0,0 1.3291,4.98086 -2.0944,9.35915"
           id="path47" /><path
           style="fill:#000000;fill-opacity:1;stroke:#000000;stroke-width:1.88908;stroke-linecap:round;stroke-linejoin:round;stroke-dasharray:none;stroke-opacity:1;paint-order:normal"
           d="m 1661.418,447.03961 c 0,0 3.6682,3.00803 3.5866,7.84528 0,0 -1.5895,-3.02836 -6.6638,-4.57303"
           id="path48" /><path
           style="fill:#000000;fill-opacity:1;stroke:#000000;stroke-width:2.04532;stroke-linecap:round;stroke-linejoin:round;stroke-dasharray:none;stroke-opacity:1;paint-order:normal"
           d="m 1656.7937,453.78605 c 0,0 3.9715,3.25681 3.8833,8.49408 0,0 -1.7211,-3.2788 -7.215,-4.9512"
           id="path49" /></g></g><g
       id="g9"
       transform="matrix(4.0584835,0,0,4.0584835,2523.1947,-3643.2125)"
       style="display:inline"
       inkscape:label="Eye2"><g
         id="g5"
         inkscape:label="EyeShape"
         transform="matrix(2.964012,0,0,2.964012,-5780.4034,-706.50899)"><path
           style="display:inline;fill:#ffffff;fill-opacity:1;stroke:#ffffff;stroke-width:4.92791;stroke-linecap:round;stroke-linejoin:round;stroke-dasharray:none;stroke-opacity:1;paint-order:normal"
           d="m 2056.6327,365.71346 c 0,0 50.1893,-73.85272 112.1111,-13.66439 0,0 -7.007,23.26197 -35.8497,33.51027 0,0 -39.8861,14.6301 -76.2614,-19.84588 z"
           id="path75" /><path
           style="fill:none;fill-opacity:1;stroke:#000000;stroke-width:8.68567;stroke-linecap:round;stroke-linejoin:round;stroke-dasharray:none;stroke-opacity:1;paint-order:normal"
           d="m 2056.5405,365.69697 c 0,0 50.1614,-73.82411 112.0491,-13.65908 0,0 -7.0031,23.25297 -35.8297,33.49727"
           id="path50" /><ellipse
           style="fill:#000000;fill-opacity:1;stroke:#000000;stroke-width:11.0761;stroke-linecap:round;stroke-linejoin:round;stroke-dasharray:none;stroke-opacity:1;paint-order:normal"
           id="ellipse50"
           cx="-2105.3992"
           cy="353.7453"
           rx="21.392424"
           ry="21.35907"
           transform="scale(-1,1)" /></g></g><g
       id="layer3"
       transform="matrix(14.804899,0,0,14.804899,-8501.8445,-6902.634)"
       style="display:inline"
       inkscape:label="Eye3"><g
         id="g6"
         inkscape:label="EyeShape"
         transform="matrix(0.89999987,0,0,0.89999987,-79.35584,-399.08319)"><path
           style="display:inline;fill:#ffffff;fill-opacity:1;stroke:#ffffff;stroke-width:4.92795;stroke-linecap:round;stroke-linejoin:round;stroke-dasharray:none;stroke-opacity:1;paint-order:normal"
           d="m 545.65016,960.70714 c 0,0 -3.49134,-34.54349 35.72533,-35.79893 31.66477,-1.01368 32.87314,-1.00477 38.57358,0.65089 7.41378,2.15327 21.32128,10.90239 21.15852,26.36104 -0.16276,15.45862 -21.68194,29.12284 -28.40124,30.99861 -7.65899,2.1381 -23.16848,3.57224 -43.53769,0.73225 -23.9254,-3.33581 -23.5185,-22.94386 -23.5185,-22.94386 z"
           id="path77" /><path
           style="fill:none;fill-opacity:1;stroke:#000000;stroke-width:8.686;stroke-linecap:round;stroke-linejoin:round;stroke-dasharray:none;stroke-opacity:1;paint-order:normal"
           d="m 545.65016,960.70714 c 0,0 -3.49134,-34.54349 35.72533,-35.79893 31.66477,-1.01368 32.87314,-1.00477 38.57358,0.65089 7.41378,2.15327 21.32128,10.90239 21.15852,26.36104 -0.16276,15.45862 -21.68194,29.12284 -28.40124,30.99861 -7.65899,2.1381 -23.16848,3.57224 -43.53769,0.73225 -23.9254,-3.33581 -23.5185,-22.94386 -23.5185,-22.94386 z"
           id="path51" /><ellipse
           style="fill:#000000;fill-opacity:1;stroke:#000000;stroke-width:11.2768;stroke-linecap:round;stroke-linejoin:round;stroke-dasharray:none;stroke-opacity:1;paint-order:normal"
           id="ellipse51"
           cx="-592.68713"
           cy="950.45563"
           rx="19.862894"
           ry="19.858582"
           transform="scale(-1,1)" /></g></g><g
       id="layer4"
       transform="matrix(4.0584835,0,0,4.0584835,-1563.5511,-1948.1915)"
       style="display:inline"
       inkscape:label="Eye4"><g
         id="g104"
         inkscape:label="EyeShape"
         transform="matrix(0.90000003,0,0,0.90000003,17.167976,57.195102)"><ellipse
           style="fill:#000000;fill-opacity:1;stroke:#000000;stroke-width:41.9517;stroke-linecap:round;stroke-linejoin:round;stroke-dasharray:none;stroke-opacity:1;paint-order:normal"
           id="ellipse52"
           cx="491.69995"
           cy="421.41174"
           rx="72.901558"
           ry="72.901482" /></g></g><g
       id="g17"
       transform="matrix(4.0584835,0,0,4.0584835,484.44809,-1948.1915)"
       style="display:inline"
       inkscape:label="Eye4.1"><g
         id="g7"
         inkscape:label="EyeShape"
         transform="matrix(3.4645779,0,0,3.4645779,-5092.1255,-2852.1363)"><ellipse
           style="fill:#000000;fill-opacity:1;stroke:#000000;stroke-width:10.739;stroke-linecap:round;stroke-linejoin:round;stroke-dasharray:none;stroke-opacity:1;paint-order:normal"
           id="ellipse53"
           cx="-1602.0989"
           cy="950.56366"
           rx="18.662981"
           ry="18.660685"
           transform="scale(-1,1)" /><path
           style="fill:#000000;fill-opacity:1;stroke:#000000;stroke-width:3.01954;stroke-linecap:round;stroke-linejoin:round;stroke-dasharray:none;stroke-opacity:1;paint-order:normal"
           d="m 1615.9632,934.14355 c 0,0 7.3767,-1.44503 9.8587,-11.77489 0,0 2.9305,11.81999 -3.0792,19.89907"
           id="path53" /></g></g><g
       id="layer6"
       transform="matrix(4.0584835,0,0,4.0584835,2532.4481,-1948.1915)"
       style="display:inline"
       inkscape:label="Eye5"><g
         id="g8"
         inkscape:label="EyeShape"
         transform="matrix(0.90000006,0,0,0.90000006,34.402241,87.891189)"><path
           style="display:inline;fill:#ffffff;fill-opacity:1;stroke:#ffffff;stroke-width:33.7917;stroke-linecap:round;stroke-linejoin:round;stroke-dasharray:none;stroke-opacity:1;paint-order:normal"
           d="m 348.23838,366.31362 c 0,0 104.89661,-66.98332 236.18598,-13.66546 0,0 41.01814,157.41778 -117.48479,158.77472 C 313.64534,512.73519 348.23838,366.31362 348.23838,366.31362 Z"
           id="path79"
           sodipodi:nodetypes="ccsc" /><circle
           style="display:inline;fill:none;fill-opacity:1;stroke:#000000;stroke-width:33.8246;stroke-linecap:round;stroke-linejoin:round;stroke-dasharray:none;stroke-opacity:1;paint-order:normal"
           id="circle53"
           cx="-467.52048"
           cy="396.41653"
           r="128.43909"
           transform="scale(-1,1)" /><path
           style="fill:none;fill-opacity:1;stroke:#000000;stroke-width:33.8246;stroke-linecap:round;stroke-linejoin:round;stroke-dasharray:none;stroke-opacity:1;paint-order:normal"
           d="m 348.12779,366.33551 c 0,0 105.08468,-66.99427 236.60885,-13.66768"
           id="path54" /><circle
           style="fill:#000000;fill-opacity:1;stroke:#000000;stroke-width:48.215;stroke-linecap:round;stroke-linejoin:round;stroke-dasharray:none;stroke-opacity:1;paint-order:normal"
           id="circle54"
           cx="-468.33609"
           cy="404.09003"
           r="62.5998"
           transform="scale(-1,1)" /></g></g><g
       id="layer5"
       transform="matrix(4.0584835,0,0,4.0584835,-3611.5519,99.808523)"
       style="display:inline"
       inkscape:label="Eye6"><g
         id="g10"
         inkscape:label="EyeShape"
         transform="matrix(3.1760874,0,0,3.1760874,-1439.8748,-4182.1102)"><path
           style="display:inline;fill:#ffffff;fill-opacity:1;stroke:#ffffff;stroke-width:4.93062;stroke-linecap:round;stroke-linejoin:round;stroke-dasharray:none;stroke-opacity:1;paint-order:normal"
           d="m 545.6623,1477.5826 c 0,0 10.02991,-43.8289 48.65088,-44.0591 38.62096,-0.2301 44.73115,43.9442 44.73115,43.9442 0,0 -43.53286,16.9229 -93.38203,0.1149 z"
           id="path81" /><path
           style="fill:none;fill-opacity:1;stroke:#000000;stroke-width:8.68777;stroke-linecap:round;stroke-linejoin:round;stroke-dasharray:none;stroke-opacity:1;paint-order:normal"
           d="m 639.13691,1477.4476 c 0,0 -6.10618,-44.1554 -44.70181,-43.9255 -38.59563,0.2301 -48.61896,44.0404 -48.61896,44.0404"
           id="path55" /><ellipse
           style="fill:#000000;fill-opacity:1;stroke:#000000;stroke-width:10.5065;stroke-linecap:round;stroke-linejoin:round;stroke-dasharray:none;stroke-opacity:1;paint-order:normal"
           id="ellipse55"
           cx="-592.8222"
           cy="1455.0248"
           rx="19.366848"
           ry="19.32938"
           transform="scale(-1,1)" /></g></g><g
       id="g21"
       transform="matrix(4.0584835,0,0,4.0584835,-1564.213,-239.62023)"
       style="display:inline"
       inkscape:label="Eye6.1"><g
         id="g11"
         inkscape:label="EyeShape"
         transform="matrix(3.1384939,0,0,3.1384939,-3003.6169,-4306.4652)"><path
           style="display:inline;fill:#ffffff;fill-opacity:1;stroke:#ffffff;stroke-width:4.92993;stroke-linecap:round;stroke-linejoin:round;stroke-dasharray:none;stroke-opacity:1;paint-order:normal"
           d="m 1050.4466,1561.2102 c 0,0 10.0285,-43.8227 48.6441,-44.0529 38.6155,-0.2301 44.7248,43.938 44.7248,43.938 0,0 -43.5267,16.9205 -93.3689,0.1149 z"
           id="path83" /><path
           style="fill:none;fill-opacity:1;stroke:#000000;stroke-width:8.68682;stroke-linecap:round;stroke-linejoin:round;stroke-dasharray:none;stroke-opacity:1;paint-order:normal"
           d="m 1143.9146,1561.0749 c 0,0 -6.1058,-44.1489 -44.6985,-43.9189 -38.5929,0.23 -48.6155,44.0339 -48.6155,44.0339"
           id="path56" /><ellipse
           style="fill:#000000;fill-opacity:1;stroke:#000000;stroke-width:10.5053;stroke-linecap:round;stroke-linejoin:round;stroke-dasharray:none;stroke-opacity:1;paint-order:normal"
           id="ellipse56"
           cx="-1097.6033"
           cy="1538.6556"
           rx="19.365444"
           ry="19.326565"
           transform="scale(-1,1)" /><path
           style="fill:#000000;fill-opacity:1;stroke:#000000;stroke-width:3.02193;stroke-linecap:round;stroke-linejoin:round;stroke-dasharray:none;stroke-opacity:1;paint-order:normal"
           d="m 1140.4205,1541.3734 c 0,0 7.1288,0.7725 9.4507,-7.521 0,0 1.3036,9.3912 -5.9882,15.1233"
           id="path57" /></g></g><g
       id="layer7"
       style="display:inline"
       transform="matrix(4.0584835,0,0,4.0584835,484.44809,99.808523)"
       inkscape:label="Eye7.1"><g
         id="g12"
         inkscape:label="EyeShape"
         transform="matrix(3.2425193,0,0,3.2425193,-4734.0581,-4290.2141)"><path
           style="display:inline;fill:#ffffff;fill-opacity:1;stroke:#ffffff;stroke-width:4.92806;stroke-linecap:round;stroke-linejoin:round;stroke-dasharray:none;stroke-opacity:1;paint-order:normal"
           d="m 1548.9912,1453.9512 c 0,0 24.4077,-29.4864 62.972,-18.8973 38.5643,10.589 30.103,54.5744 30.103,54.5744 0,0 -30.3314,4.24 -53.6972,-4.7244 -27.9333,-10.7167 -39.3778,-30.9527 -39.3778,-30.9527 z"
           id="path85" /><path
           style="fill:none;fill-opacity:1;stroke:#000000;stroke-width:8.68837;stroke-linecap:round;stroke-linejoin:round;stroke-dasharray:none;stroke-opacity:1;paint-order:normal"
           d="m 1548.9004,1453.9206 c 0,0 24.4344,-29.4444 63.0408,-18.8704 38.6063,10.574 30.1357,54.4967 30.1357,54.4967 0,0 -30.3644,4.234 -53.7557,-4.7176 -27.9638,-10.7015 -39.4208,-30.9087 -39.4208,-30.9087 z"
           id="path58" /><ellipse
           style="fill:#000000;fill-opacity:1;stroke:#000000;stroke-width:9.86003;stroke-linecap:round;stroke-linejoin:round;stroke-dasharray:none;stroke-opacity:1;paint-order:normal"
           id="ellipse58"
           cx="-1602.0043"
           cy="1455.0594"
           rx="20.427362"
           ry="20.399849"
           transform="scale(-1,1)" /><path
           style="fill:#000000;fill-opacity:1;stroke:#000000;stroke-width:3.02248;stroke-linecap:round;stroke-linejoin:round;stroke-dasharray:none;stroke-opacity:1;paint-order:normal"
           d="m 1644.9495,1465.6312 c 0,0 8.8129,-0.7478 10.5986,-10.5842 0,0 0.9791,14.0932 -10.541,19.7304"
           id="path59" /><path
           style="fill:#000000;fill-opacity:1;stroke:#000000;stroke-width:2.44757;stroke-linecap:round;stroke-linejoin:round;stroke-dasharray:none;stroke-opacity:1;paint-order:normal"
           d="m 1646.9291,1478.3037 c 0,0 7.1286,0.6929 9.9927,-6.8802 0,0 -1.2861,11.3675 -11.2877,14.1729"
           id="path60" /></g></g><g
       id="g32"
       style="display:inline"
       transform="matrix(4.0584835,0,0,4.0584835,2453.3827,470.92762)"
       inkscape:label="Eye7"><g
         id="g14"
         inkscape:label="EyeShape"
         transform="matrix(0.89997468,0,0,0.89997468,17.791224,-953.04721)"><path
           style="display:inline;fill:#ffffff;fill-opacity:1;stroke:#ffffff;stroke-width:17.7413;stroke-linecap:round;stroke-linejoin:round;stroke-dasharray:none;stroke-opacity:1;paint-order:normal"
           d="m 322.51409,1428.8434 c 0,0 87.869,-106.1525 226.7023,-68.031 138.8336,38.1207 108.3722,196.4702 108.3722,196.4702 0,0 -109.1944,15.2641 -193.3123,-17.0081 -100.5613,-38.5804 -141.7622,-111.4311 -141.7622,-111.4311 z"
           id="path87" /><path
           style="fill:none;fill-opacity:1;stroke:#000000;stroke-width:31.2902;stroke-linecap:round;stroke-linejoin:round;stroke-dasharray:none;stroke-opacity:1;paint-order:normal"
           d="m 322.19317,1428.7357 c 0,0 88.0354,-105.9958 227.1314,-67.9312 139.0963,38.0649 108.577,196.1801 108.577,196.1801 0,0 -109.4006,15.2418 -193.6777,-16.9829 -100.7513,-38.5236 -142.0307,-111.266 -142.0307,-111.266 z"
           id="path61" /><ellipse
           style="fill:#000000;fill-opacity:1;stroke:#000000;stroke-width:35.5098;stroke-linecap:round;stroke-linejoin:round;stroke-dasharray:none;stroke-opacity:1;paint-order:normal"
           id="ellipse61"
           cx="-491.4697"
           cy="1432.8347"
           rx="73.598343"
           ry="73.43634"
           transform="scale(-1,1)" /></g></g><g
       id="layer8"
       transform="matrix(4.0584835,0,0,4.0584835,-3611.5519,2147.8085)"
       style="display:inline"
       inkscape:label="Eye8"><g
         id="g15"
         inkscape:label="EyeShape"
         transform="matrix(3.6782584,0,0,3.6782584,-1713.4368,-6753.3164)"><path
           style="display:inline;fill:#ffffff;fill-opacity:1;stroke:#ffffff;stroke-width:4.92795;stroke-linecap:round;stroke-linejoin:round;stroke-dasharray:none;stroke-opacity:1;paint-order:normal"
           d="m 543.60369,1942.0613 c 69.40171,18.4298 103.41085,-2.1885 103.41085,-2.1885 0,0 1.2297,42.9268 -49.2268,46.996 -51.4172,4.1468 -54.18405,-44.8075 -54.18405,-44.8075 z"
           id="path89" /><path
           style="fill:none;fill-opacity:1;stroke:#000000;stroke-width:8.69809;stroke-linecap:round;stroke-linejoin:round;stroke-dasharray:none;stroke-opacity:1;paint-order:normal"
           d="m 543.60369,1942.0613 c 69.40171,18.4298 103.41085,-2.1885 103.41085,-2.1885 0,0 1.2297,42.9268 -49.2268,46.996 -51.4172,4.1468 -54.18405,-44.8075 -54.18405,-44.8075 z"
           id="path62" /><path
           style="fill:#000000;fill-opacity:1;stroke:#000000;stroke-width:8.69809;stroke-linecap:round;stroke-linejoin:round;stroke-dasharray:none;stroke-opacity:1;paint-order:normal"
           d="m 607.47171,1950.7003 c 0,0 13.5268,24.9614 -14.41065,26.2624 -27.20732,1.2671 -13.60366,-26.2624 -13.60366,-26.2624"
           id="path63" /></g></g><g
       id="layer9"
       transform="matrix(4.0584835,0,0,4.0584835,-1563.5519,2147.8085)"
       style="display:inline"
       inkscape:label="Eye9"><g
         id="g18"
         inkscape:label="EyeShape"
         transform="matrix(3.7342604,0,0,3.7342604,-3653.9332,-6893.014)"><ellipse
           style="display:inline;fill:#ffffff;fill-opacity:1;stroke:#ffffff;stroke-width:4.92795;stroke-linecap:round;stroke-linejoin:round;stroke-dasharray:none;stroke-opacity:1;paint-order:normal"
           id="ellipse90"
           cx="-1097.5089"
           cy="1966.1945"
           rx="43.124313"
           ry="29.525513"
           transform="scale(-1,1)" /><ellipse
           style="display:inline;fill:none;fill-opacity:1;stroke:#000000;stroke-width:8.69594;stroke-linecap:round;stroke-linejoin:round;stroke-dasharray:none;stroke-opacity:1;paint-order:normal"
           id="ellipse63"
           cx="-1097.5089"
           cy="1966.1945"
           rx="43.124313"
           ry="29.525513"
           transform="scale(-1,1)" /><ellipse
           style="fill:#000000;fill-opacity:1;stroke:#000000;stroke-width:12.7755;stroke-linecap:round;stroke-linejoin:round;stroke-dasharray:none;stroke-opacity:1;paint-order:normal"
           id="ellipse64"
           cx="-1097.7396"
           cy="1959.2303"
           rx="20.32782"
           ry="20.293188"
           transform="scale(-1,1)" /><path
           style="fill:#000000;fill-opacity:1;stroke:#000000;stroke-width:3.02467;stroke-linecap:round;stroke-linejoin:round;stroke-dasharray:none;stroke-opacity:1;paint-order:normal"
           d="m 1142.1322,1973.6767 c 0,0 10.0893,5.1798 5.9383,18.1871 0,0 -0.058,-8.8058 -10.4929,-12.3742"
           id="path64" /><path
           style="display:inline;fill:#000000;fill-opacity:1;stroke:#000000;stroke-width:2.5678;stroke-linecap:round;stroke-linejoin:round;stroke-dasharray:none;stroke-opacity:1;paint-order:normal"
           d="m 1134.7585,1982.7526 c 0,0 8.5653,4.3975 5.0413,15.4401 0,0 -0.049,-7.4756 -8.9079,-10.5051"
           id="path65" /><path
           style="fill:#000000;fill-opacity:1;stroke:#000000;stroke-width:2.11093;stroke-linecap:round;stroke-linejoin:round;stroke-dasharray:none;stroke-opacity:1;paint-order:normal"
           d="m 1125.367,1990.2748 c 0,0 7.0413,3.615 4.1443,12.6929 0,0 -0.04,-6.1456 -7.323,-8.636"
           id="path66" /></g></g><g
       id="layer10"
       transform="matrix(4.0584835,0,0,4.0584835,636.44809,1883.8085)"
       style="display:inline"
       inkscape:label="Eye10"><g
         id="g105"
         inkscape:label="EyeShape"
         transform="matrix(0.90000005,0,0,0.90000005,7.5419511,106.16058)"><path
           style="fill:#000000;fill-opacity:1;stroke:#000000;stroke-width:28.3357;stroke-linecap:round;stroke-linejoin:round;stroke-dasharray:none;stroke-opacity:1;paint-order:normal"
           d="M 678.86256,421.41174 H 304.53738"
           id="path67" /></g></g></g><g
     id="layer11"
     inkscape:label="layer11"><rect
       style="opacity:0.506608;fill:none;fill-opacity:1;stroke-width:35;stroke-linecap:round;stroke-linejoin:round;stroke-dasharray:none"
       id="rect67"
       width="100"
       height="100"
       x="0"
       y="0" /><rect
       style="opacity:0.506608;fill:none;fill-opacity:1;stroke-width:35;stroke-linecap:round;stroke-linejoin:round;stroke-dasharray:none"
       id="rect68"
       width="100"
       height="100"
       x="8092"
       y="0" /><rect
       style="opacity:0.506608;fill:none;fill-opacity:1;stroke-width:35;stroke-linecap:round;stroke-linejoin:round;stroke-dasharray:none"
       id="rect69"
       width="100"
       height="100"
       x="8092"
       y="8092" /><rect
       style="opacity:0.506608;fill:none;fill-opacity:1;stroke-width:35;stroke-linecap:round;stroke-linejoin:round;stroke-dasharray:none"
       id="rect70"
       width="100"
       height="100"
       x="0"
       y="8092" /></g></svg>
