<?xml version="1.0" encoding="UTF-8" standalone="no"?>
<!-- Created with Inkscape (http://www.inkscape.org/) -->

<svg
   version="1.1"
   id="svg1"
   width="8192"
   height="4096"
   viewBox="0 0 8192 4096"
   xml:space="preserve"
   sodipodi:docname="OffCourseEyebrows.svg"
   inkscape:export-filename="OffCourseEyebrows.svg"
   inkscape:export-xdpi="96"
   inkscape:export-ydpi="96"
   inkscape:version="1.3.2 (091e20e, 2023-11-25, custom)"
   xmlns:inkscape="http://www.inkscape.org/namespaces/inkscape"
   xmlns:sodipodi="http://sodipodi.sourceforge.net/DTD/sodipodi-0.dtd"
   xmlns="http://www.w3.org/2000/svg"
   xmlns:svg="http://www.w3.org/2000/svg"><sodipodi:namedview
     id="namedview1"
     pagecolor="#ffffff"
     bordercolor="#999999"
     borderopacity="1"
     inkscape:showpageshadow="2"
     inkscape:pageopacity="0"
     inkscape:pagecheckerboard="0"
     inkscape:deskcolor="#d1d1d1"
     inkscape:zoom="0.15209961"
     inkscape:cx="1821.175"
     inkscape:cy="2271.5377"
     inkscape:window-width="3200"
     inkscape:window-height="1711"
     inkscape:window-x="2391"
     inkscape:window-y="-9"
     inkscape:window-maximized="1"
     inkscape:current-layer="svg1" /><defs
     id="defs1"><linearGradient
       id="swatch53"><stop
         style="stop-color:#ff6981;stop-opacity:1;"
         offset="0"
         id="stop53" /></linearGradient></defs><g
     id="g8"
     transform="matrix(1.0174364,0.07460346,-0.07460346,1.0174364,3946.5906,1196.3492)"><g
       id="layer11"
       transform="matrix(4.1551747,0,0,4.1551747,-5045.0619,-1952.2628)"><path
         style="fill:#000000;fill-opacity:1;stroke:#000000;stroke-width:6.79557;stroke-linecap:round;stroke-linejoin:round;stroke-dasharray:none;stroke-opacity:1;paint-order:normal"
         d="m 488.41821,506.31859 -9.6e-4,-17.74045 -102.94271,-37.44019 -41.141,44.10449 49.43631,-18.71398 z"
         id="path40" /><path
         style="fill:#000000;fill-opacity:1;stroke:#000000;stroke-width:6.79557;stroke-linecap:round;stroke-linejoin:round;stroke-dasharray:none;stroke-opacity:1;paint-order:normal"
         d="m 562.24632,500.90516 -2.58666,-17.55086 96.38045,-52.05554 47.13429,37.6317 -51.63728,-11.30277 z"
         id="path8" /></g><g
       id="layer12"
       transform="matrix(4.1551747,0,0,4.1551747,-5045.0619,-1952.2628)"
       style="display:inline"><path
         style="fill:#000000;fill-opacity:1;stroke:#000000;stroke-width:6.79357;stroke-linecap:round;stroke-linejoin:round;stroke-dasharray:none;stroke-opacity:1;paint-order:normal"
         d="m 968.76017,476.06581 7.81404,-33.48588 -108.05442,-12.66984 -19.52993,21.78329 z"
         id="path41" /><path
         style="fill:#000000;fill-opacity:1;stroke:#000000;stroke-width:6.79357;stroke-linecap:round;stroke-linejoin:round;stroke-dasharray:none;stroke-opacity:1;paint-order:normal"
         d="m 1046.313,470.37924 -12.6149,-31.98792 105.0506,-28.29576 22.4985,18.70156 z"
         id="path9" /></g><g
       id="layer13"
       transform="matrix(4.1551747,0,0,4.1551747,-5045.0619,-1952.2628)"
       style="display:inline"><ellipse
         style="fill:#000000;fill-opacity:1;stroke:#000000;stroke-width:7.86665;stroke-linecap:round;stroke-linejoin:round;stroke-dasharray:none;stroke-opacity:1;paint-order:normal"
         id="path42"
         cx="445.62387"
         cy="-1446.1448"
         transform="matrix(0.00611874,0.99998128,-0.99998095,0.0061717,0,0)"
         rx="6.2207546"
         ry="6.2091451" /><path
         style="fill:#000000;fill-opacity:1;stroke:#000000;stroke-width:4.52987;stroke-linecap:round;stroke-linejoin:round;stroke-dasharray:none;stroke-opacity:1;paint-order:normal"
         d="m 1453.5283,430.33796 c 0,0 -81.577,-65.41103 -144.9791,-8.72598 0,0 32.6279,-26.86381 70.6388,-16.49581 38.011,10.36802 64.2228,37.27128 64.2228,37.27128"
         id="path43" /><ellipse
         style="fill:#000000;fill-opacity:1;stroke:#000000;stroke-width:7.86665;stroke-linecap:round;stroke-linejoin:round;stroke-dasharray:none;stroke-opacity:1;paint-order:normal"
         id="ellipse9"
         cx="640.29401"
         cy="1454.0557"
         transform="matrix(0.13980959,0.99017841,0.99018581,-0.13975715,0,0)"
         rx="6.2207546"
         ry="6.2091451" /><path
         style="fill:#000000;fill-opacity:1;stroke:#000000;stroke-width:4.52987;stroke-linecap:round;stroke-linejoin:round;stroke-dasharray:none;stroke-opacity:1;paint-order:normal"
         d="m 1523.7437,425.18942 c 0,0 71.1633,-76.6107 142.1557,-29.78012 0,0 -36.1975,-21.8172 -72.2895,-6.0156 -36.0921,15.80162 -58.0993,46.24054 -58.0993,46.24054"
         id="path10" /></g><g
       id="layer14"
       transform="matrix(4.1551747,0,0,4.1551747,-5045.0619,-1952.2628)"
       style="display:inline"><ellipse
         style="fill:#000000;fill-opacity:1;stroke:#000000;stroke-width:5.73426;stroke-linecap:round;stroke-linejoin:round;stroke-dasharray:none;stroke-opacity:1;paint-order:normal"
         id="path44"
         cx="1930.5514"
         cy="398.77948"
         rx="5.9997449"
         ry="6.012989"
         transform="matrix(0.99999999,1.6272788e-4,1.6236946e-4,0.99999999,0,0)" /><path
         style="fill:#000000;fill-opacity:1;stroke:#000000;stroke-width:4.5418;stroke-linecap:round;stroke-linejoin:round;stroke-dasharray:none;stroke-opacity:1;paint-order:normal"
         d="m 1933.524,393.17699 c 0,0 -71.7191,-36.14949 -115.8355,0.67388 0,0 60.0907,-8.99581 110.6678,11.44819"
         id="path45" /><ellipse
         style="fill:#000000;fill-opacity:1;stroke:#000000;stroke-width:5.73426;stroke-linecap:round;stroke-linejoin:round;stroke-dasharray:none;stroke-opacity:1;paint-order:normal"
         id="ellipse10"
         cx="-1932.1327"
         cy="682.63568"
         rx="5.9997449"
         ry="6.012989"
         transform="matrix(-0.98928066,0.14602661,0.14570499,0.98932808,0,0)" /><path
         style="fill:#000000;fill-opacity:1;stroke:#000000;stroke-width:4.5418;stroke-linecap:round;stroke-linejoin:round;stroke-dasharray:none;stroke-opacity:1;paint-order:normal"
         d="m 2007.1452,387.77872 c 0,0 65.679,-46.22421 114.6949,-16.22975 0,0 -60.7602,-0.13443 -107.8143,27.46837"
         id="path11" /></g><g
       id="layer15"
       transform="matrix(4.1551747,0,0,4.1551747,-5045.0619,-1952.2628)"
       style="display:inline"><path
         style="fill:#000000;fill-opacity:1;stroke:#000000;stroke-width:6.69354;stroke-linecap:round;stroke-linejoin:round;stroke-dasharray:none;stroke-opacity:1;paint-order:normal"
         d="m 396.82347,982.00007 c 61.33478,-29.38335 121.47906,15.12649 121.47906,15.12649 l 9.55286,-19.77965 c 0,0 -71.18176,-58.47518 -145.65166,-6.88135 z"
         id="path47" /><path
         style="fill:#000000;fill-opacity:1;stroke:#000000;stroke-width:6.69354;stroke-linecap:round;stroke-linejoin:round;stroke-dasharray:none;stroke-opacity:1;paint-order:normal"
         d="m 722.24697,958.13841 c -64.96479,-20.12244 -117.97333,32.68428 -117.97333,32.68428 l -12.33586,-18.17462 c 0,0 61.89091,-68.23272 143.09008,-28.05331 z"
         id="path12" /></g><g
       id="layer16"
       style="display:inline"
       transform="matrix(4.1551747,0,0,4.1551747,-5045.0619,-1952.2628)"><path
         style="fill:#000000;fill-opacity:1;stroke:#000000;stroke-width:6.81113;stroke-linecap:round;stroke-linejoin:round;stroke-dasharray:none;stroke-opacity:1;paint-order:normal"
         d="m 1000.3756,958.64493 7.5347,-20.84072 c 0,0 -62.3474,-34.46548 -110.26597,9.57904 0,0 48.4438,-16.57435 102.73127,11.26168 z"
         id="path48" /><path
         style="fill:#000000;fill-opacity:1;stroke:#000000;stroke-width:6.81113;stroke-linecap:round;stroke-linejoin:round;stroke-dasharray:none;stroke-opacity:1;paint-order:normal"
         d="m 1085.4273,952.40852 -10.494,-19.51876 c 0,0 56.6532,-43.1912 110.4838,-6.60743 0,0 -50.3433,-9.33079 -99.9898,26.12619 z"
         id="path13" /></g><g
       id="layer17"
       transform="matrix(4.1080298,-0.63829021,0.6383023,4.1064785,-1243.6849,-552.26362)"
       style="display:inline"><path
         style="fill:#000000;stroke:#000000;stroke-width:6.803;stroke-linecap:round;stroke-linejoin:round;stroke-dasharray:none"
         d="M 477.89397,673.21369 476.591,632.98451 341.73365,581.19147 Z"
         id="path31" /><path
         style="fill:#000000;stroke:#000000;stroke-width:6.803;stroke-linecap:round;stroke-linejoin:round;stroke-dasharray:none"
         d="m 546.7174,678.79922 7.77298,-39.4926 141.44425,-29.36914 z"
         id="path14" /></g></g><g
     id="layer1"><rect
       style="opacity:0.517621;fill:none;stroke-width:35.815;stroke-linecap:round;stroke-linejoin:round"
       id="rect1"
       x="0"
       y="0"
       height="100"
       width="100" /><rect
       style="opacity:0.517621;fill:none;stroke-width:35.815;stroke-linecap:round;stroke-linejoin:round"
       id="rect2"
       x="8092"
       y="0"
       height="100"
       width="100" /><rect
       style="opacity:0.517621;fill:none;stroke-width:35.815;stroke-linecap:round;stroke-linejoin:round"
       id="rect3"
       x="8092"
       y="3996"
       height="100"
       width="100" /><rect
       style="opacity:0.517621;fill:none;stroke-width:35.815;stroke-linecap:round;stroke-linejoin:round"
       id="rect4"
       x="0"
       y="3996"
       height="100"
       width="100" /></g></svg>
