<?xml version="1.0" encoding="UTF-8" standalone="no"?>
<!-- Created with Inkscape (http://www.inkscape.org/) -->

<svg
   version="1.1"
   id="svg1"
   width="8192"
   height="6144"
   viewBox="0 0 8192 6144"
   sodipodi:docname="glasses_sheet.svg"
   inkscape:version="1.3.2 (091e20e, 2023-11-25, custom)"
   xml:space="preserve"
   xmlns:inkscape="http://www.inkscape.org/namespaces/inkscape"
   xmlns:sodipodi="http://sodipodi.sourceforge.net/DTD/sodipodi-0.dtd"
   xmlns="http://www.w3.org/2000/svg"
   xmlns:svg="http://www.w3.org/2000/svg"><defs
     id="defs1" /><sodipodi:namedview
     id="namedview1"
     pagecolor="#ffffff"
     bordercolor="#999999"
     borderopacity="1"
     inkscape:showpageshadow="2"
     inkscape:pageopacity="0"
     inkscape:pagecheckerboard="0"
     inkscape:deskcolor="#d1d1d1"
     inkscape:zoom="7.7992473"
     inkscape:cx="8179.2509"
     inkscape:cy="19.681387"
     inkscape:window-width="2400"
     inkscape:window-height="1261"
     inkscape:window-x="2391"
     inkscape:window-y="-9"
     inkscape:window-maximized="1"
     inkscape:current-layer="g1" /><g
     inkscape:groupmode="layer"
     inkscape:label="Image"
     id="g1"><g
       id="g2"
       inkscape:label="CharlieGlasses"
       transform="translate(79.559569,678.87243)"
       style="display:inline"><rect
         style="display:none;opacity:1;fill:#00ff1d;fill-opacity:1;stroke:none;stroke-width:10;stroke-linecap:round;stroke-linejoin:round;stroke-dasharray:none;stroke-opacity:1"
         id="rect55"
         width="2048"
         height="2048"
         x="0"
         y="0"
         transform="translate(-79.559569,-678.87243)" /><path
         id="path4"
         style="display:inline;fill:#362212;fill-opacity:1;stroke:#362212;stroke-width:10;stroke-linecap:round;stroke-linejoin:round;stroke-dasharray:none;stroke-opacity:1"
         d="m 409.75195,53.146484 c -26.06015,0 -48.94836,0.447494 -70.23242,1.216797 -42.56813,1.538608 -58.72391,1.283049 -106.93359,16.15625 -48.20968,14.8732 -64.36458,38.722169 -95.13672,45.902349 -30.77214,7.18016 -80.007814,6.66601 -80.007814,6.66601 l -3.589844,84.625 c 0,0 41.888414,17.13348 56.394528,47.95899 14.50614,30.8255 12.69269,84.13459 33.72657,138.16992 21.03389,54.0353 44.60811,145.78799 116.05078,193.6582 71.44267,47.87021 201.27335,50.77092 264.375,49.32031 63.10163,-1.45062 158.47808,-15.95749 216.86523,-70.35547 58.38715,-54.39796 86.6749,-144.6978 100.81836,-198.00781 14.14348,-53.31002 16.682,-104.44477 41.70508,-123.30273 25.02305,-18.85796 46.78224,-20.67906 60.65234,-20.31641 13.87012,-0.36265 35.62923,1.45845 60.65235,20.31641 25.0231,18.85796 27.5616,69.99271 41.7051,123.30273 14.1435,53.31001 42.4313,143.60985 100.8183,198.00781 58.3873,54.39798 153.7657,68.90485 216.8672,70.35547 63.1018,1.45061 192.9324,-1.4501 264.375,-49.32031 71.4428,-47.87021 95.0151,-139.6229 116.0488,-193.6582 21.034,-54.03533 19.2204,-107.34442 33.7266,-138.16992 14.5061,-30.82551 56.3965,-47.95899 56.3965,-47.95899 l -3.5898,-84.625 c 0,0 -49.2357,0.51415 -80.0079,-6.66601 -30.772,-7.18018 -46.929,-31.029149 -95.1386,-45.902349 -48.2098,-14.873201 -64.3656,-14.617642 -106.9336,-16.15625 -42.5682,-1.538606 -91.5467,-1.793663 -159.502,0.257813 -67.9551,2.051476 -146.4246,10.769054 -190.5312,17.949218 -44.1068,7.180166 -75.6477,25.387137 -93.3418,40.003908 -17.694,14.61675 -32.8234,25.38738 -49.7481,32.05469 -16.9248,6.66729 -36.6704,3.59007 -47.6972,0 -11.02672,-3.59009 -32.0555,-9.74392 -64.09965,-8.97461 -32.04413,-0.76931 -53.07097,5.38452 -64.09765,8.97461 -11.02669,3.59007 -30.7726,6.66729 -47.69727,0 C 815.71986,137.9616 800.59047,127.19097 782.89648,112.57422 765.2025,97.957449 733.66141,79.750478 689.55469,72.570312 645.44795,65.390148 566.97857,56.67257 499.02344,54.621094 465.04586,53.595356 435.81212,53.146484 409.75195,53.146484 Z M 460.55664,104.625 c 52.82551,-0.51287 141.55303,7.18026 157.96484,11.2832 0,0 96.41995,12.3102 133.85938,59.49414 48.24115,60.79707 40.58403,152.54178 38.97852,170.27149 C 789.0855,370.78405 777.27813,477.99102 674.42383,546.71875 577.08475,611.76119 386.17722,605.597 300.0293,554.41211 189.25701,488.59664 176.42798,353.88015 172.83789,272.33398 169.2478,190.78782 206.66455,155.28834 261.05078,132.83398 306.737,113.9716 377.46153,105.43175 460.55664,104.625 Z m 967.76566,0 c 83.0951,0.80675 153.8196,9.34658 199.5058,28.20898 54.3863,22.45438 91.805,57.95375 88.2149,139.5 -3.5901,81.54625 -16.419,216.26259 -127.1914,282.07813 -86.1481,51.18494 -277.0574,57.34915 -374.3965,-7.69336 -102.8544,-68.7278 -114.6597,-175.93467 -116.9336,-201.04492 -1.6055,-17.72973 -9.2627,-109.47436 38.9785,-170.27149 37.4395,-47.18399 133.8594,-59.49414 133.8594,-59.49414 16.4118,-4.10295 105.1372,-11.79607 157.9629,-11.2832 z"
         inkscape:label="CharlieGlasses" /></g><g
       id="g3"
       inkscape:label="GaryGlasses"
       transform="translate(2126.7265,-139.08092)"
       style="display:inline"><rect
         style="display:none;opacity:1;fill:#00ff1d;fill-opacity:1;stroke:none;stroke-width:10;stroke-linecap:round;stroke-linejoin:round;stroke-dasharray:none;stroke-opacity:1"
         id="rect56"
         width="2048"
         height="2048"
         x="0"
         y="0"
         transform="translate(-78.726548,139.08092)" /><path
         style="display:inline;fill:none;fill-opacity:1;stroke:#7e7e7e;stroke-width:30;stroke-linecap:round;stroke-linejoin:round;stroke-dasharray:none;stroke-opacity:1"
         d="m 163.91954,1072.7302 c 0,0 31.18824,224.12 111.6974,302.4533 80.50915,78.3332 244.4287,95.0153 342.34524,53.6727 97.91655,-41.3425 153.03994,-95.7406 193.65717,-265.4626 0.72531,-14.5062 12.33023,-52.2222 6.52776,-154.4906"
         id="path6"
         sodipodi:nodetypes="csscc" /><path
         style="fill:#7e7e7e;fill-opacity:1;stroke:#7e7e7e;stroke-width:30;stroke-linecap:round;stroke-linejoin:round;stroke-dasharray:none;stroke-opacity:1"
         d="m 945.27347,928.26411 c 0,0 -78.47385,0.36266 -107.74966,9.33009 l -10.91343,60.09013 c 24.47914,-33.18282 118.66309,-34.13879 118.66309,-34.13879 0,0 94.18393,0.95597 118.66313,34.13879 l -10.5828,-59.57726 c -29.6065,-9.4803 -108.08033,-9.84296 -108.08033,-9.84296 z"
         id="path7"
         sodipodi:nodetypes="ccccccc" /><path
         style="display:inline;fill:#362212;fill-opacity:1;stroke:#362212;stroke-width:10;stroke-linecap:round;stroke-linejoin:round;stroke-dasharray:none;stroke-opacity:1"
         d="m 723.13181,943.62535 c -147.96278,-47.87031 -340.89464,-55.12338 -450.4161,-9.429 -109.52147,45.69439 -92.11409,152.31465 -92.11409,152.31465 -15.95677,20.3086 -31.18823,3.6265 -31.18823,3.6265 -34.81477,-68.1789 -92.114079,-72.5308 -92.114079,-72.5308 l -0.725308,-78.33319 c 0,0 343.070557,-157.39178 773.903347,-13.05554 0,0 17.40738,46.41969 0,100.09243 0,0 -14.50616,5.0772 -21.75923,-10.1543 0,0 -13.78084,-47.14499 -85.58631,-72.53075 z"
         id="path5"
         sodipodi:nodetypes="cscccccccc" /><path
         style="display:inline;fill:none;fill-opacity:1;stroke:#7e7e7e;stroke-width:30;stroke-linecap:round;stroke-linejoin:round;stroke-dasharray:none;stroke-opacity:1"
         d="m 1726.6274,1072.7302 c 0,0 -31.1882,224.12 -111.6974,302.4533 -80.5091,78.3332 -244.4287,95.0153 -342.3452,53.6727 -97.9166,-41.3425 -153.04,-95.7406 -193.6572,-265.4626 -0.7253,-14.5062 -12.3302,-52.2222 -6.5278,-154.4906"
         id="path10"
         sodipodi:nodetypes="csscc" /><path
         style="display:inline;fill:#362212;fill-opacity:1;stroke:#362212;stroke-width:10;stroke-linecap:round;stroke-linejoin:round;stroke-dasharray:none;stroke-opacity:1"
         d="m 1167.4151,943.62535 c 147.9628,-47.87031 340.8947,-55.12338 450.4161,-9.429 109.5215,45.69439 92.1141,152.31465 92.1141,152.31465 15.9568,20.3086 31.1883,3.6265 31.1883,3.6265 34.8147,-68.1789 92.114,-72.5308 92.114,-72.5308 l 0.7253,-78.33319 c 0,0 -343.0705,-157.39178 -773.9033,-13.05554 0,0 -17.4074,46.41969 0,100.09243 0,0 14.5062,5.0772 21.7592,-10.1543 0,0 13.7809,-47.14499 85.5863,-72.53075 z"
         id="path13"
         sodipodi:nodetypes="cscccccccc" /></g><g
       id="g11"
       inkscape:label="WaferGlasses"
       style="display:inline"
       transform="matrix(0.98293076,0,0,0.98293076,4116.3538,76.144153)"><rect
         style="display:none;opacity:1;fill:#00ff1d;fill-opacity:1;stroke:none;stroke-width:10;stroke-linecap:round;stroke-linejoin:round;stroke-dasharray:none;stroke-opacity:1"
         id="rect57"
         width="2048"
         height="2048"
         x="0"
         y="0"
         transform="matrix(1.0173657,0,0,1.0173657,-20.707219,-77.466446)" /><path
         id="path3"
         style="fill:#000000;fill-opacity:1;stroke:#000000;stroke-width:20;stroke-linecap:round;stroke-linejoin:round;stroke-opacity:1"
         d="m 430.81055,676.98828 c -161.04087,-2.05148 -317.97852,23.5918 -317.97852,23.5918 l 14.35938,113.85742 c 0,0 55.39015,23.5917 62.57031,58.4668 7.18016,34.87508 21.54059,324.1348 224.63672,364.1387 203.0961,40.0036 349.77882,-9.2322 403.11718,-67.6992 53.33838,-58.4672 126.1645,-168.2213 136.42188,-247.20318 0,0 14.87318,-49.7493 67.1367,-51.80078 52.2638,2.05148 67.1387,51.80079 67.1387,51.80078 10.2574,78.98188 83.0834,188.73598 136.4219,247.20318 53.3382,58.467 200.0211,107.7028 403.1172,67.6992 203.0961,-40.0039 217.4566,-329.26362 224.6367,-364.1387 7.1802,-34.8751 62.5703,-58.4668 62.5703,-58.4668 l 14.3594,-113.85742 c 0,0 -156.9376,-25.64328 -317.9786,-23.5918 -161.0407,2.05148 -340.5468,44.10742 -340.5468,44.10742 0,0 -173.7965,45.25699 -249.7188,53.46289 -75.92214,-8.2059 -249.71678,-53.46289 -249.71678,-53.46289 0,0 -179.50601,-42.05594 -340.54687,-44.10742 z M 456.70508,734 c 56.94793,-0.84997 132.97055,3.09372 226.53515,18.86914 124.75281,21.03391 165.36956,66.00306 179.15039,89.21289 13.78083,23.20983 10.87975,121.85215 -32.63867,204.53707 -43.51841,82.6851 -84.86131,122.5774 -196.55859,143.6114 -111.69728,21.0338 -218.27701,8.2065 -268.36328,-29.0137 C 285.77162,1102.4669 249.50614,956.68039 265.46289,844.25781 281.41964,731.83522 406.17188,736.1875 406.17188,736.1875 c 14.68746,-1.08796 31.55055,-1.90418 50.5332,-2.1875 z m 1128.74022,0 c 18.9827,0.28332 35.8458,1.09954 50.5332,2.1875 0,0 124.7522,-4.35217 140.709,108.07031 15.9568,112.42247 -20.3089,258.20919 -99.3672,316.95899 -50.0862,37.2202 -156.6661,50.0474 -268.3633,29.0137 -111.6972,-21.034 -153.0401,-60.9263 -196.5586,-143.6114 -43.5182,-82.6848 -46.4195,-181.32726 -32.6386,-204.53707 13.7808,-23.20981 54.3976,-68.179 179.1504,-89.21289 93.5644,-15.7754 169.5873,-19.71911 226.5351,-18.86914 z" /></g><g
       id="g24"
       inkscape:label="SoftCatEye"
       style="display:inline"
       transform="matrix(0.94288685,0,0,0.94288685,6200.4507,-52.725674)"><rect
         style="display:none;opacity:1;fill:#00ff1d;fill-opacity:1;stroke:none;stroke-width:10;stroke-linecap:round;stroke-linejoin:round;stroke-dasharray:none;stroke-opacity:1"
         id="rect58"
         width="2048"
         height="2048"
         x="0"
         y="0"
         transform="matrix(1.0605726,0,0,1.0605726,-59.870089,55.919408)" /><path
         style="fill:#895800;fill-opacity:1;stroke:#895800;stroke-width:10;stroke-linecap:round;stroke-linejoin:round;stroke-dasharray:none;stroke-opacity:1"
         d="m 120.03843,1010.1723 c 0,0 -23.935157,0.1814 -29.374965,0 -5.439808,-0.1813 -8.341039,-1.4506 -9.429,-8.885 -1.087962,-7.4344 -3.080392,-33.20989 -2.35725,-42.24917 0.54398,-6.79972 9.066346,-6.89042 9.066346,-6.89042 l 27.743019,-1.45062 z"
         id="path12"
         sodipodi:nodetypes="ccsssc" /><path
         style="fill:#895800;fill-opacity:1;stroke:#895800;stroke-width:10;stroke-linecap:round;stroke-linejoin:round;stroke-dasharray:none;stroke-opacity:1"
         d="m 1932.2742,1010.1723 c 0,0 23.9351,0.1814 29.3749,0 5.4398,-0.1813 8.341,-1.4506 9.429,-8.885 1.088,-7.4344 3.0804,-33.20989 2.3573,-42.24917 -0.544,-6.79972 -9.0664,-6.89042 -9.0664,-6.89042 l -27.743,-1.45062 z"
         id="path20"
         sodipodi:nodetypes="ccsssc" /><path
         style="fill:#895800;fill-opacity:1;stroke:#895800;stroke-width:10;stroke-linecap:round;stroke-linejoin:round;stroke-dasharray:none;stroke-opacity:1"
         d="m 1026.1563,1026.3104 c -32.48472,-0.7253 -61.85969,12.0583 -61.85969,12.0583 l 8.7037,69.2669 c 0,0 17.40738,-19.3114 53.15599,-19.674 35.7486,0.3626 53.2195,19.7646 53.2195,19.7646 l 8.7037,-69.6295 c 0,0 -29.4385,-12.5116 -61.9232,-11.7863 z"
         id="path22"
         sodipodi:nodetypes="ccccccc" /><path
         style="display:inline;fill:none;fill-opacity:1;stroke:#d29b00;stroke-width:20;stroke-linecap:round;stroke-linejoin:round;stroke-opacity:1"
         d="m 1927.6852,891.62451 c -3.3337,-39.23455 -45.6455,-53.59492 -45.6455,-53.59492 0,0 -437.9909,-135.39768 -750.8416,143.6036 0,0 -71.9198,55.79951 -34.8411,183.21101 41.5356,142.7264 136.3579,223.3948 168.2714,246.6046 31.9135,23.2099 73.9814,55.1234 181.3269,65.2777 107.3456,10.1543 235.725,-14.5061 345.2465,-130.5554 109.5215,-116.0492 144.5873,-309.2637 136.4834,-454.54659 z"
         id="path19"
         sodipodi:nodetypes="cccssssc" /><path
         style="display:inline;fill:none;fill-opacity:1;stroke:#d29b00;stroke-width:20;stroke-linecap:round;stroke-linejoin:round;stroke-opacity:1"
         d="m 124.62742,891.62451 c 3.33365,-39.23455 45.64542,-53.59492 45.64542,-53.59492 0,0 437.99099,-135.39768 750.84169,143.6036 0,0 71.91973,55.79951 34.84104,183.21101 -41.53557,142.7264 -136.35785,223.3948 -168.27139,246.6046 -31.91354,23.2099 -73.98138,55.1234 -181.32693,65.2777 C 499.01171,1486.8808 370.63224,1462.2204 261.11078,1346.1711 151.58931,1230.1219 116.52353,1036.9074 124.62742,891.62451 Z"
         id="path11"
         sodipodi:nodetypes="cccssssc" /></g><g
       id="g27"
       inkscape:label="ThickCatEye"
       style="display:inline"
       transform="matrix(0.92251074,0,0,0.92251074,84.593985,2039.6347)"><rect
         style="display:none;opacity:1;fill:#00ff1d;fill-opacity:1;stroke:none;stroke-width:10;stroke-linecap:round;stroke-linejoin:round;stroke-dasharray:none;stroke-opacity:1"
         id="rect59"
         width="2048"
         height="2048"
         x="0"
         y="0"
         transform="matrix(1.0839982,0,0,1.0839982,-91.699729,9.0679565)" /><path
         id="path26"
         style="display:inline;fill:#3b0e00;fill-opacity:1;stroke:#3b0e00;stroke-width:10;stroke-linecap:round;stroke-linejoin:round;stroke-dasharray:none;stroke-opacity:1"
         d="m 385.73438,796.64648 c -119.80832,1.56339 -222.60888,14.58603 -285.21094,28.04883 0,0 -18.720803,5.64079 -25.644534,32.56641 0,0 -16.92511,84.88118 -10.257812,193.60938 0,0 -4.614608,24.6181 19.490234,56.416 24.104842,31.798 122.062792,134.8835 184.632812,185.1445 62.57002,50.2613 138.47425,135.3982 277.97461,147.7071 139.50036,12.3089 212.32912,-50.262 272.84766,-112.8321 60.51854,-62.57 87.18727,-113.8554 128.21679,-194.8886 0,0 19.41424,-81.4478 70.5313,-83.9864 51.1169,2.5386 70.5312,83.9864 70.5312,83.9864 41.0296,81.0332 67.7002,132.3186 128.2188,194.8886 60.5185,62.5701 133.3452,125.141 272.8457,112.8321 139.5002,-12.3089 215.4066,-97.4458 277.9765,-147.7071 62.5701,-50.261 160.5281,-153.3465 184.6328,-185.1445 24.1049,-31.7979 19.4883,-56.416 19.4883,-56.416 6.6673,-108.7282 -10.2578,-193.60938 -10.2578,-193.60938 -6.9238,-26.92562 -25.6426,-32.56641 -25.6426,-32.56641 -95.3937,-20.51476 -284.1295,-40.00499 -484.1484,-19.49023 -200.0189,20.51476 -321.0567,108.72851 -321.0567,108.72851 0,0 -26.6547,20.62466 -49.5019,26.06446 0,0 -27.9258,5.44077 -63.0859,5.07812 -35.16041,0.36265 -63.08403,-5.07812 -63.08403,-5.07812 -22.84716,-5.4398 -49.50195,-26.06446 -49.50195,-26.06446 0,0 -121.03776,-88.21375 -321.05664,-108.72851 -50.00473,-5.1287 -99.30503,-7.75689 -146.61719,-8.49414 -17.74206,-0.27647 -35.20484,-0.2878 -52.32031,-0.0645 z m 64.41015,95.62891 c 174.75366,1.93793 285.86066,32.12897 341.89063,61.50391 74.70661,39.16658 92.84041,90.6633 84.13672,142.1602 -8.70369,51.4967 -55.84821,134.9072 -108.07032,190.7558 -52.2221,55.8487 -113.87457,89.9392 -201.63672,84.1367 -87.76215,-5.8025 -135.6328,-34.8155 -196.55859,-88.4882 -60.92579,-53.6727 -155.21582,-177.6999 -170.44727,-197.2833 -15.23144,-19.5832 -10.8789,-47.871 -10.8789,-47.871 0,0 1.10196,-45.6575 5.80273,-95.01567 3.62653,-38.07862 59.47461,-41.3418 59.47461,-41.3418 72.71203,-6.70909 138.03589,-9.20262 196.28711,-8.55664 z m 1136.34177,0 c 58.2512,-0.64598 123.5733,1.84756 196.2852,8.55664 0,0 55.8502,3.26322 59.4765,41.3418 4.7008,49.35812 5.8028,95.01567 5.8028,95.01567 0,0 4.3505,28.2879 -10.8809,47.871 -15.2315,19.5834 -109.5215,143.6106 -170.4472,197.2833 -60.9258,53.6726 -108.7966,82.6857 -196.5586,88.4882 -87.7621,5.8025 -149.4128,-28.288 -201.6348,-84.1367 -52.2221,-55.8485 -99.3666,-139.2592 -108.0703,-190.7558 -8.7037,-51.4969 9.4281,-102.99366 84.1348,-142.1602 56.0298,-29.37491 167.1391,-59.56598 341.8925,-61.50391 z" /></g><g
       id="g36"
       inkscape:label="AviatorGlasses"
       style="display:inline"
       transform="matrix(0.97091512,0,0,0.97091512,2080.6463,2031.6907)"><rect
         style="display:none;opacity:1;fill:#00ff1d;fill-opacity:1;stroke:none;stroke-width:10;stroke-linecap:round;stroke-linejoin:round;stroke-dasharray:none;stroke-opacity:1"
         id="rect60"
         width="2048"
         height="2048"
         x="0"
         y="0"
         transform="matrix(1.0299562,0,0,1.0299562,-33.624296,16.797875)" /><path
         id="path27"
         style="display:inline;fill:#000000;fill-opacity:1;stroke:#000000;stroke-width:10;stroke-linecap:round;stroke-linejoin:round;stroke-dasharray:none;stroke-opacity:1"
         d="m 1021.0508,720.07031 c 0,0 -494.84613,4.10166 -603.57424,15.38477 0,0 -140.52698,-1.02431 -222.58594,123.08984 10e-6,0 -20.51425,45.13176 -24.61718,56.92774 0,0 -7.18051,30.25874 -62.57032,33.33593 1e-5,0 -7.18108,20.51606 -3.07812,65.64841 0,0 38.98684,8.2272 51.67969,53.5586 0,0 26.4731,231.0101 186.76562,320.2227 160.29253,89.2125 343.79542,-18.1319 388.03907,-51.4961 44.24362,-33.3641 123.3024,-108.7965 180.60156,-219.043 0,0 23.93686,-48.9587 55.125,-147.96287 0,0 10.31876,-48.94712 54.21486,-51.12305 43.8959,2.17593 54.2168,51.12305 54.2168,51.12305 31.1879,99.00417 55.123,147.96287 55.123,147.96287 57.2993,110.2465 136.3578,185.6789 180.6016,219.043 44.2435,33.3642 227.7466,140.7086 388.039,51.4961 160.2927,-89.2126 186.7676,-320.2227 186.7676,-320.2227 12.6928,-45.3314 51.6778,-53.5586 51.6778,-53.5586 4.103,-45.13235 -3.0782,-65.64841 -3.0782,-65.64841 -55.3897,-3.07719 -62.5703,-33.33593 -62.5703,-33.33593 -4.1029,-11.79598 -24.6172,-56.92774 -24.6172,-56.92774 C 1765.152,734.43077 1624.625,735.45508 1624.625,735.45508 1515.8968,724.17197 1021.0508,720.07031 1021.0508,720.07031 Z m 0,35.33789 c 13.2359,0 173.5293,0.36328 173.5293,0.36328 0,0 22.8477,4.7138 1.4511,21.03321 -21.3964,16.31938 -63.4645,35.90238 -80.1464,76.51953 0,0 -3.265,26.47383 -26.4746,18.13281 0,0 -35.903,-11.24219 -68.3594,-11.24219 -32.45656,0 -68.35939,11.24219 -68.35939,11.24219 -23.20981,8.34102 -26.47266,-18.13281 -26.47266,-18.13281 -16.68204,-40.61715 -58.74996,-60.20015 -80.14648,-76.51953 -21.39653,-16.31941 1.44921,-21.03321 1.44921,-21.03321 0,0 160.29342,-0.36328 173.52932,-0.36328 z m -396.23244,15.32032 c 9.5692,0.0431 17.87143,0.24425 24.47461,0.6289 47.64631,2.77552 300.20559,20.43783 257.46094,207.19922 -33.33646,145.65476 -132.31986,302.59256 -266.69141,369.26566 -134.37155,66.6728 -239.62295,24.471 -276.95117,8.205 C 281.00525,1320.2493 181.50171,1148.8213 205.14844,968.29883 226.17605,807.771 385.67773,783.66602 385.67773,783.66602 428.7587,777.83213 557.83394,770.427 624.81836,770.72852 Z m 792.46484,0 c 66.9846,-0.30152 196.0596,7.10361 239.1406,12.9375 0,0 159.5016,24.10466 180.5293,184.63281 23.6468,180.52287 -75.8566,351.95027 -157.9629,387.72847 -37.3282,16.266 -142.5774,58.468 -276.9492,-8.205 -134.3718,-66.6731 -233.3568,-223.6107 -266.6933,-369.26566 -42.7448,-186.76177 209.8145,-204.4237 257.4609,-207.19922 6.6032,-0.38465 14.9054,-0.58583 24.4746,-0.6289 z" /></g><g
       id="g43"
       inkscape:label="RoundedGlasses"
       style="display:inline"
       transform="matrix(0.99019825,0,0,0.99019825,4108.9444,2026.0147)"><rect
         style="display:none;opacity:1;fill:#00ff1d;fill-opacity:1;stroke:none;stroke-width:10;stroke-linecap:round;stroke-linejoin:round;stroke-dasharray:none;stroke-opacity:1"
         id="rect61"
         width="2048"
         height="2048"
         x="0"
         y="0"
         transform="matrix(1.0098988,0,0,1.0098988,-13.072531,22.202922)" /><path
         style="fill:#262626;fill-opacity:1;stroke:#262626;stroke-width:20;stroke-linecap:round;stroke-linejoin:round;stroke-dasharray:none;stroke-opacity:1"
         d="m 223.61132,889.31659 c 0,0 -37.95238,-10.2574 -76.9305,13.84749 l -3.59009,81.54633 52.82561,2.56435 c 0,0 9.74453,-58.46718 27.69498,-97.95817 z"
         id="path37" /><path
         style="fill:#262626;fill-opacity:1;stroke:#262626;stroke-width:20;stroke-linecap:round;stroke-linejoin:round;stroke-dasharray:none;stroke-opacity:1"
         d="m 1818.5164,889.31659 c 0,0 37.9524,-10.2574 76.9305,13.84749 l 3.59,81.54633 -52.8255,2.56435 c 0,0 -9.7446,-58.46718 -27.695,-97.95817 z"
         id="path42"
         sodipodi:nodetypes="ccccc" /><path
         style="fill:#262626;fill-opacity:1;stroke:#262626;stroke-width:20;stroke-linecap:round;stroke-linejoin:round;stroke-dasharray:none;stroke-opacity:1"
         d="m 1067.1328,903.18944 c 19.402,0.18133 26.4737,7.61573 26.4737,7.61573 0,0 19.0394,17.22606 36.8094,27.56169 17.77,10.33564 25.3858,5.98379 25.3858,5.98379 10.8796,-39.52927 22.4056,-57.29865 22.4056,-57.29865 l -66.9387,-19.27595 c 0,0 -14.3603,-6.66731 -34.3623,-6.15444 -20.0019,0.51287 -55.8425,-1.02574 -55.8425,-1.02574 0,0 -35.84052,1.53861 -55.84245,1.02574 -20.00193,-0.51287 -34.36229,6.15444 -34.36229,6.15444 L 863.9204,887.052 c 0,0 11.52602,17.76938 22.40564,57.29865 0,0 7.61572,4.35185 25.38576,-5.98379 17.77004,-10.33563 36.80937,-27.56169 36.80937,-27.56169 0,0 7.07175,-7.4344 26.47373,-7.61573 19.40198,-0.18133 46.0689,-0.18133 46.0689,-0.18133 0,0 26.667,0 46.069,0.18133 z"
         id="path43"
         sodipodi:nodetypes="scscccscscccscscs" /><path
         style="display:inline;fill:none;fill-opacity:1;stroke:#575757;stroke-width:20;stroke-linecap:round;stroke-linejoin:round;stroke-dasharray:none;stroke-opacity:1"
         d="m 205.148,960.09265 c -47.18404,220.53415 126.16602,394.90995 218.48263,410.29605 92.3166,15.3861 248.22908,40.0038 384.6525,-150.7838 C 944.70655,1028.8172 879.05919,841.10681 765.20205,782.63963 629.8476,713.13329 266.8119,671.88095 205.148,960.09265 Z"
         id="path36"
         sodipodi:nodetypes="sssss" /><path
         style="display:inline;fill:none;fill-opacity:1;stroke:#575757;stroke-width:20;stroke-linecap:round;stroke-linejoin:round;stroke-dasharray:none;stroke-opacity:1"
         d="m 1836.9797,960.09265 c 47.184,220.53415 -126.166,394.90995 -218.4826,410.29605 -92.3166,15.3861 -248.2291,40.0038 -384.6525,-150.7838 -136.4235,-190.7877 -70.7761,-378.49809 43.081,-436.96527 135.3545,-69.50634 498.3902,-110.75868 560.0541,177.45302 z"
         id="path41"
         sodipodi:nodetypes="sssss" /></g><g
       id="g47"
       inkscape:label="CasparGlasses"
       style="display:inline"
       transform="translate(6143.9268,2051.6307)"><rect
         style="display:none;opacity:1;fill:#00ff1d;fill-opacity:1;stroke:none;stroke-width:10;stroke-linecap:round;stroke-linejoin:round;stroke-dasharray:none;stroke-opacity:1"
         id="rect62"
         width="2048"
         height="2048"
         x="0"
         y="0"
         transform="translate(0.07323348,-3.6307317)" /><path
         id="path46"
         style="fill:#381400;fill-opacity:1;stroke:#381400;stroke-width:20;stroke-linecap:round;stroke-linejoin:round;stroke-dasharray:none;stroke-opacity:1"
         d="m 1484.4395,720.68555 c -124.7462,3.22735 -257.3418,72.07617 -257.3418,72.07617 0,0 -43.518,23.20856 -87.7618,9.42773 0,0 -39.168,-16.68171 -115.2636,-15.59375 -76.09573,-1.08796 -115.26175,15.59375 -115.26175,15.59375 -44.24368,13.78083 -87.76172,-9.42773 -87.76172,-9.42773 0,0 -132.59567,-68.84699 -257.3418,-72.07422 -8.31641,-0.21515 -16.59771,-0.14041 -24.80273,0.26758 -131.28044,6.52775 -199.46044,36.2655 -258.93555,58.75 -59.47511,22.4845 -114.59766,21.03515 -114.59766,21.03515 0,0 -22.27954,-2.97051 -23.04882,15.23633 -0.76931,18.20685 0.51171,60.00586 0.51171,60.00586 0,0 0.76927,16.15475 13.07813,17.69336 0.0287,1.35374 32.30588,-0.45858 44.27344,55.02734 11.96754,55.48588 46.41834,214.69158 153.76367,295.92578 107.34532,81.2343 253.13321,101.5429 380.78711,38.4414 127.6539,-63.1016 174.79884,-175.5253 195.10742,-266.9141 0,0 4.60524,-38.88277 3.83594,-76.32222 0,0 -63.59588,-42.31139 1.79492,-71.54492 0,0 38.46487,-12.0518 88.59769,-13.33398 50.1327,1.28218 88.5996,13.33398 88.5996,13.33398 65.3907,29.23353 1.7949,71.54492 1.7949,71.54492 -0.7693,37.43945 3.834,76.32232 3.834,76.32222 20.3086,91.3888 67.4554,203.8125 195.1094,266.9141 127.6538,63.1015 273.4398,42.7929 380.7851,-38.4414 107.3454,-81.2342 141.798,-240.4399 153.7656,-295.92578 11.9676,-55.48592 44.2445,-53.6736 44.2735,-55.02734 12.3089,-1.53861 13.0781,-17.69336 13.0781,-17.69336 0,0 1.281,-41.79901 0.5117,-60.00586 -0.7693,-18.20684 -23.0488,-15.23633 -23.0488,-15.23633 0,0 -55.1224,1.44935 -114.5977,-21.03515 -59.475,-22.4845 -127.655,-52.22225 -258.9355,-58.75 -8.205,-0.40799 -16.4863,-0.48469 -24.8027,-0.26953 z m -947.70122,41.29883 c 113.94208,0.33148 210.73749,29.87015 259.65039,69.94335 60.20048,49.32089 98.64035,158.11788 72.5293,238.62697 -26.11106,80.5091 -100.0922,206.7123 -245.87891,215.416 -145.7867,8.7037 -213.2405,-45.6955 -279.96875,-114.5996 -66.72824,-68.9042 -97.91546,-190.75571 -66.00195,-284.32032 31.91351,-93.56461 178.42578,-120.40039 178.42578,-120.40039 27.74299,-3.26388 54.94982,-4.74251 81.24414,-4.66601 z m 974.66992,0 c 26.2943,-0.0765 53.5012,1.40213 81.2441,4.66601 0,0 146.5124,26.83587 178.4258,120.40039 31.9135,93.56452 0.7262,215.41622 -66.0019,284.32032 -66.7283,68.904 -134.1822,123.3033 -279.9688,114.5996 -145.7865,-8.7037 -219.77,-134.907 -245.8808,-215.416 -26.1111,-80.50902 12.3309,-189.30612 72.5312,-238.62697 48.913,-40.07316 145.7084,-69.61188 259.6504,-69.94335 z" /></g><g
       id="g52"
       inkscape:label="SquareGlasses"
       style="display:inline"
       transform="translate(2.2709408,4065.3724)"><rect
         style="display:none;opacity:1;fill:#00ff1d;fill-opacity:1;stroke:none;stroke-width:10;stroke-linecap:round;stroke-linejoin:round;stroke-dasharray:none;stroke-opacity:1"
         id="rect63"
         width="2048"
         height="2048"
         x="0"
         y="0"
         transform="translate(-2.2709408,30.627607)" /><path
         style="opacity:1;fill:#444444;fill-opacity:1;stroke:#444444;stroke-width:10;stroke-linecap:round;stroke-linejoin:round;stroke-dasharray:none;stroke-opacity:1"
         d="m 271.62774,966.47254 -68.17892,-4.35185 c 0,0 -13.4182,-0.36265 -13.78085,11.60492 -0.36266,11.96758 -1.81327,15.59412 1.81327,24.66047 3.62654,9.06632 6.89042,12.69292 15.95677,14.14352 9.06634,1.4506 64.91504,6.8904 64.91504,6.8904 z"
         id="path48" /><path
         style="opacity:1;fill:#444444;fill-opacity:1;stroke:#444444;stroke-width:10;stroke-linecap:round;stroke-linejoin:round;stroke-dasharray:none;stroke-opacity:1"
         d="m 896.843,1013.9802 -2.90124,-24.66047 c 0,0 54.03543,-9.429 127.78734,-12.33023 73.7519,2.90123 127.7873,12.33023 127.7873,12.33023 l -2.9012,24.66047 c -65.6404,-11.2422 -124.8861,-12.3302 -124.8861,-12.3302 0,0 -59.24575,1.088 -124.8861,12.3302 z"
         id="path49"
         sodipodi:nodetypes="ccccccc" /><path
         style="opacity:1;fill:#444444;fill-opacity:1;stroke:#444444;stroke-width:10;stroke-linecap:round;stroke-linejoin:round;stroke-dasharray:none;stroke-opacity:1"
         d="m 1771.8304,966.47254 68.1789,-4.35185 c 0,0 13.4182,-0.36265 13.7809,11.60492 0.3626,11.96758 1.8132,15.59412 -1.8133,24.66047 -3.6265,9.06632 -6.8904,12.69292 -15.9568,14.14352 -9.0663,1.4506 -64.915,6.8904 -64.915,6.8904 z"
         id="path51" /><path
         style="display:inline;opacity:1;fill:none;fill-opacity:1;stroke:#747474;stroke-width:20;stroke-linecap:round;stroke-linejoin:round;stroke-dasharray:none;stroke-opacity:1"
         d="m 822.49895,910.9865 c 0,0 -293.02432,-63.10178 -482.32963,-12.33024 0,0 -58.02462,11.96758 -62.01381,48.23297 -3.98919,36.26538 -7.87302,103.98137 9.56456,170.65447 17.43758,66.6731 98.47105,82.5721 98.47105,82.5721 0,0 211.46244,53.2159 386.2616,18.4012 0,0 81.23446,-9.429 99.72981,-88.4876 16.70386,-71.4008 56.574,-191.84385 -49.68358,-219.0429 z"
         id="path47"
         sodipodi:nodetypes="ccssccsc" /><path
         style="display:inline;opacity:1;fill:none;fill-opacity:1;stroke:#747474;stroke-width:20;stroke-linecap:round;stroke-linejoin:round;stroke-dasharray:none;stroke-opacity:1"
         d="m 1220.9592,910.9865 c 0,0 293.0243,-63.10178 482.3297,-12.33024 0,0 58.0246,11.96758 62.0138,48.23297 3.9892,36.26538 7.873,103.98137 -9.5646,170.65447 -17.4376,66.6731 -98.471,82.5721 -98.471,82.5721 0,0 -211.4625,53.2159 -386.2616,18.4012 0,0 -81.2345,-9.429 -99.7299,-88.4876 -16.7038,-71.4008 -56.574,-191.84385 49.6836,-219.0429 z"
         id="path50"
         sodipodi:nodetypes="ccssccsc" /></g><g
       id="g55"
       inkscape:label="DadGlasses"
       transform="translate(2048,4096)"><rect
         style="display:none;opacity:1;fill:#00ff1d;fill-opacity:1;stroke:none;stroke-width:10;stroke-linecap:round;stroke-linejoin:round;stroke-dasharray:none;stroke-opacity:1"
         id="rect64"
         width="2048"
         height="2048"
         x="0"
         y="0" /><path
         id="path52"
         style="opacity:1;fill:#000000;fill-opacity:1;stroke:#000000;stroke-width:10;stroke-linecap:round;stroke-linejoin:round;stroke-dasharray:none;stroke-opacity:1"
         d="m 536.63086,787.02539 c -104.1377,-0.83141 -224.42211,7.60241 -357.12695,33.56641 0,0 -18.1229,0.82012 -20.29883,24.39258 -2.17592,23.57244 0.36265,42.79325 10.1543,58.75 0,-10e-6 37.71597,11.24081 40.61718,33 l 30.09961,164.28322 c 0,0 20.30963,119.6745 96.4668,139.2578 76.15715,19.5833 272.71503,56.5751 485.95508,0.7266 0,0 34.09098,-9e-4 57.30078,-50.0469 0,0 50.04635,-102.9938 79.05859,-211.06448 0,0 9.24786,-55.30499 65.10548,-55.48632 55.8575,0.18133 65.1055,55.48632 65.1055,55.48632 29.0121,108.07068 79.0586,211.06448 79.0586,211.06448 23.2096,50.046 57.2988,50.0469 57.2988,50.0469 213.24,55.8485 409.7977,18.8567 485.9551,-0.7266 76.1571,-19.5833 96.4668,-139.2578 96.4668,-139.2578 l 30.0996,-164.28322 c 2.9012,-21.75919 40.6172,-33 40.6172,-33 9.7914,-15.95675 12.33,-35.17756 10.1543,-58.75 -2.1759,-23.57246 -20.2989,-24.39258 -20.2989,-24.39258 -424.6555,-83.08478 -722.1203,13.33419 -770.3301,18.46289 -48.2096,5.12868 -74.1269,5.1289 -74.1269,5.1289 0,0 -25.91728,-2.2e-4 -74.12696,-5.1289 -33.14416,-3.52598 -184.10215,-50.2002 -413.20508,-52.0293 z m 23.48242,34.58594 c 158.27612,0.87848 276.89258,32.07617 276.89258,32.07617 100.81768,18.85799 90.66239,84.86127 76.15625,145.78711 -14.50614,60.92579 -44.24414,154.49019 -44.24414,154.49019 -30.82555,80.1465 -114.23438,83.4102 -114.23438,83.4102 -232.09824,26.8365 -361.5664,-3.6269 -422.49218,-36.2656 -60.92579,-32.6389 -71.08105,-176.9757 -76.15821,-261.11135 -5.07714,-84.13561 71.08008,-95.01367 71.08008,-95.01367 80.91706,-17.90602 161.05631,-23.77236 233,-23.37305 z m 927.69922,0 c 71.9436,-0.39931 152.0811,5.46704 232.998,23.37305 0,0 76.1573,10.87814 71.0801,95.01367 -5.0771,84.13555 -15.2306,228.47245 -76.1562,261.11135 -60.9258,32.6386 -190.3941,63.1021 -422.4922,36.2656 0,0 -83.4109,-3.2637 -114.2363,-83.4102 0,0 -29.738,-93.5645 -44.2442,-154.49019 -14.5061,-60.92578 -24.6594,-126.92914 76.1582,-145.78711 0,0 118.6167,-31.19769 276.8926,-32.07617 z" /></g><rect
       style="opacity:0;fill:#444444;stroke-width:10;stroke-linecap:round;stroke-linejoin:round"
       id="rect1"
       width="50"
       height="50"
       x="8142"
       y="0" /><rect
       style="opacity:0;fill:#444444;stroke-width:10;stroke-linecap:round;stroke-linejoin:round"
       id="rect2"
       width="50"
       height="50"
       x="8142"
       y="6094" /><rect
       style="opacity:0;fill:#444444;stroke-width:10;stroke-linecap:round;stroke-linejoin:round"
       id="rect3"
       width="50"
       height="50"
       x="0"
       y="6094" /><rect
       style="opacity:0;fill:#444444;stroke-width:10;stroke-linecap:round;stroke-linejoin:round"
       id="rect4"
       width="50"
       height="50"
       x="0"
       y="0" /></g></svg>
